<svg width="25" height="25" viewBox="0 0 25 25" fill="none" xmlns="http://www.w3.org/2000/svg">
<path fill-rule="evenodd" clip-rule="evenodd" d="M23.9522 12.234C24.0873 12.3691 24.1631 12.5524 24.1631 12.7435C24.1631 12.9346 24.0873 13.1179 23.9522 13.2531L17.8418 19.3675C17.7068 19.5026 17.5236 19.5786 17.3326 19.5786C17.1416 19.5786 16.9585 19.5026 16.8234 19.3675C16.6884 19.2324 16.6125 19.0491 16.6125 18.858C16.6125 18.6669 16.6884 18.4836 16.8234 18.3484L21.7046 13.464L1.03824 13.465C0.943553 13.465 0.849794 13.4464 0.762315 13.4101C0.674836 13.3739 0.595351 13.3207 0.528397 13.2537C0.461444 13.1867 0.408333 13.1072 0.372099 13.0196C0.335864 12.9321 0.317213 12.8383 0.317213 12.7435C0.317213 12.6488 0.335864 12.555 0.372099 12.4674C0.408333 12.3799 0.461444 12.3003 0.528397 12.2333C0.595351 12.1664 0.674836 12.1132 0.762315 12.0769C0.849794 12.0407 0.943553 12.022 1.03824 12.022L21.7046 12.023L16.8234 7.13862C16.6884 7.00349 16.6125 6.8202 16.6125 6.62909C16.6125 6.43797 16.6884 6.25469 16.8234 6.11955C16.9585 5.98441 17.1416 5.90849 17.3326 5.90849C17.5236 5.90849 17.7068 5.98441 17.8418 6.11955L23.9522 12.234Z" fill="white"/>
</svg>
