<svg width="5" height="12" viewBox="0 0 5 12" fill="none" xmlns="http://www.w3.org/2000/svg">
<path d="M3.727 0.216553C3.44813 0.216553 3.18068 0.327335 2.98348 0.524529C2.78629 0.721723 2.67551 0.989175 2.67551 1.26805C2.67551 1.54692 2.78629 1.81438 2.98348 2.01157C3.18068 2.20876 3.44813 2.31955 3.727 2.31955C4.00588 2.31955 4.27333 2.20876 4.47052 2.01157C4.66772 1.81438 4.7785 1.54692 4.7785 1.26805C4.7785 0.989175 4.66772 0.721723 4.47052 0.524529C4.27333 0.327335 4.00588 0.216553 3.727 0.216553ZM3.47464 3.56031C2.64046 3.63041 0.362212 5.446 0.362212 5.446C0.222012 5.55115 0.264072 5.54414 0.376232 5.74042C0.488392 5.92969 0.474372 5.94371 0.607561 5.85258C0.747761 5.76145 0.97909 5.61424 1.36464 5.3759C2.85075 4.42254 1.60298 6.62367 0.96507 10.332C0.712711 12.1686 2.36707 11.2222 2.79467 10.9418C3.21527 10.6684 4.34388 9.89032 4.45604 9.81321C4.61026 9.70806 4.4981 9.62394 4.37893 9.4487C4.29481 9.32952 4.21069 9.41365 4.21069 9.41365C3.75504 9.71507 2.92085 10.346 2.80869 9.9464C2.6755 9.54683 3.53072 6.80593 4.00039 4.92025C4.0775 4.47161 4.2878 3.49021 3.47464 3.56031Z" fill="white"/>
</svg>
