<svg width="12" height="19" viewBox="0 0 12 19" fill="none" xmlns="http://www.w3.org/2000/svg">
<path d="M9.48172 0.0907593H2.65934C1.48248 0.0907593 0.527344 1.04589 0.527344 2.22275V16.7203C0.527344 17.8972 1.48248 18.8523 2.65934 18.8523H9.48172C10.6586 18.8523 11.6137 17.8972 11.6137 16.7203V2.22275C11.6137 1.04589 10.6586 0.0907593 9.48172 0.0907593ZM6.07053 17.9995C5.3627 17.9995 4.79133 17.4281 4.79133 16.7203C4.79133 16.0125 5.3627 15.4411 6.07053 15.4411C6.77835 15.4411 7.34972 16.0125 7.34972 16.7203C7.34972 17.4281 6.77835 17.9995 6.07053 17.9995ZM9.90811 14.5883H2.23294V2.64915H9.90811V14.5883Z" fill="#495057"/>
</svg>
