<svg width="360" height="361" viewBox="0 0 360 361" fill="none" xmlns="http://www.w3.org/2000/svg">
<path d="M182.802 302.116C249.96 300.459 303.058 244.673 301.4 177.515C299.742 110.358 243.956 57.2594 176.799 58.9171C109.641 60.5749 56.543 116.361 58.2007 183.518C62.3721 238.838 92.698 294.499 168.755 301.946" stroke="url(#paint0_linear_4292_1763)" stroke-width="10" stroke-miterlimit="10" stroke-dasharray="4 4"/>
<path d="M179.819 282.318C236.044 282.318 281.624 236.738 281.624 180.512C281.624 124.287 236.044 78.707 179.819 78.707C123.593 78.707 78.0137 124.287 78.0137 180.512C78.0137 236.738 123.593 282.318 179.819 282.318Z" stroke="#A6A6A6" stroke-width="1.5339" stroke-miterlimit="10"/>
<path d="M165.085 127.686C165.085 125.796 165.622 124.338 166.695 123.311C167.792 122.284 169.203 121.771 170.93 121.771C172.657 121.771 174.057 122.284 175.13 123.311C176.203 124.338 176.74 125.796 176.74 127.686C176.74 129.576 176.203 131.034 175.13 132.061C174.057 133.088 172.657 133.601 170.93 133.601C169.203 133.601 167.792 133.088 166.695 132.061C165.622 131.034 165.085 129.576 165.085 127.686ZM188.85 122.156L175.375 146.796H169.6L183.075 122.156H188.85ZM170.895 125.271C169.775 125.271 169.215 126.076 169.215 127.686C169.215 129.273 169.775 130.066 170.895 130.066C171.432 130.066 171.852 129.868 172.155 129.471C172.458 129.074 172.61 128.479 172.61 127.686C172.61 126.076 172.038 125.271 170.895 125.271ZM181.745 141.266C181.745 139.376 182.282 137.918 183.355 136.891C184.428 135.864 185.828 135.351 187.555 135.351C189.282 135.351 190.682 135.864 191.755 136.891C192.828 137.918 193.365 139.376 193.365 141.266C193.365 143.156 192.828 144.614 191.755 145.641C190.682 146.668 189.282 147.181 187.555 147.181C185.828 147.181 184.428 146.668 183.355 145.641C182.282 144.614 181.745 143.156 181.745 141.266ZM187.52 138.851C186.983 138.851 186.563 139.049 186.26 139.446C185.98 139.843 185.84 140.449 185.84 141.266C185.84 142.853 186.4 143.646 187.52 143.646C188.057 143.646 188.477 143.448 188.78 143.051C189.083 142.654 189.235 142.059 189.235 141.266C189.235 140.473 189.083 139.878 188.78 139.481C188.477 139.061 188.057 138.851 187.52 138.851Z" fill="#50A5F1"/>
<path d="M114.096 180.102V167.382H136.256V225.782H122.016V180.102H114.096ZM145.614 195.782C145.614 186.609 147.374 179.382 150.894 174.102C154.468 168.822 160.201 166.182 168.094 166.182C175.988 166.182 181.694 168.822 185.214 174.102C188.788 179.382 190.574 186.609 190.574 195.782C190.574 205.062 188.788 212.342 185.214 217.622C181.694 222.902 175.988 225.542 168.094 225.542C160.201 225.542 154.468 222.902 150.894 217.622C147.374 212.342 145.614 205.062 145.614 195.782ZM177.134 195.782C177.134 190.396 176.548 186.262 175.374 183.382C174.201 180.449 171.774 178.982 168.094 178.982C164.414 178.982 161.988 180.449 160.814 183.382C159.641 186.262 159.054 190.396 159.054 195.782C159.054 199.409 159.268 202.422 159.694 204.822C160.121 207.169 160.974 209.089 162.254 210.582C163.588 212.022 165.534 212.742 168.094 212.742C170.654 212.742 172.574 212.022 173.854 210.582C175.188 209.089 176.068 207.169 176.494 204.822C176.921 202.422 177.134 199.409 177.134 195.782ZM197.802 195.782C197.802 186.609 199.562 179.382 203.082 174.102C206.655 168.822 212.388 166.182 220.282 166.182C228.175 166.182 233.882 168.822 237.402 174.102C240.975 179.382 242.762 186.609 242.762 195.782C242.762 205.062 240.975 212.342 237.402 217.622C233.882 222.902 228.175 225.542 220.282 225.542C212.388 225.542 206.655 222.902 203.082 217.622C199.562 212.342 197.802 205.062 197.802 195.782ZM229.322 195.782C229.322 190.396 228.735 186.262 227.562 183.382C226.388 180.449 223.962 178.982 220.282 178.982C216.602 178.982 214.175 180.449 213.002 183.382C211.828 186.262 211.242 190.396 211.242 195.782C211.242 199.409 211.455 202.422 211.882 204.822C212.308 207.169 213.162 209.089 214.442 210.582C215.775 212.022 217.722 212.742 220.282 212.742C222.842 212.742 224.762 212.022 226.042 210.582C227.375 209.089 228.255 207.169 228.682 204.822C229.108 202.422 229.322 199.409 229.322 195.782Z" fill="#50A5F1"/>
<defs>
<linearGradient id="paint0_linear_4292_1763" x1="176.643" y1="56.0521" x2="183.074" y2="316.547" gradientUnits="userSpaceOnUse">
<stop offset="0.00510204" stop-color="#00FFDD"/>
<stop offset="1" stop-color="#5A6FF0"/>
</linearGradient>
</defs>
</svg>
