<svg width="86" height="86" viewBox="0 0 86 86" fill="none" xmlns="http://www.w3.org/2000/svg">
<path d="M77.1181 50.6655C81.3515 31.8943 69.5662 13.2455 50.7951 9.01209C32.024 4.77872 13.3751 16.5639 9.14176 35.3351C4.90839 54.1062 16.6936 72.7551 35.4647 76.9884C54.2359 81.2218 72.8847 69.4366 77.1181 50.6655Z" stroke="#DDDDDD" stroke-width="3.6054" stroke-miterlimit="10"/>
<path d="M45.8181 77.6236C24.5105 78.4759 12.2481 62.3196 9.48365 52.0024C4.50325 33.4153 18.2208 13.5904 34.1205 9.33012C50.0202 5.0698 71.3554 13.6743 76.7928 33.967C82.2302 54.2597 70.468 71.7326 52.156 76.6393" stroke="url(#paint0_linear_1730_1718)" stroke-width="5.487" stroke-miterlimit="10" stroke-linecap="round" stroke-linejoin="round"/>
<path d="M34.3656 46.1813C34.449 46.6647 34.599 47.0313 34.8156 47.2813C35.049 47.5147 35.3656 47.6313 35.7656 47.6313C36.3823 47.6313 36.7823 47.323 36.9656 46.7063C37.1656 46.073 37.2656 45.0647 37.2656 43.6813C36.9656 44.148 36.5323 44.5147 35.9656 44.7813C35.399 45.048 34.7573 45.1813 34.0406 45.1813C32.4573 45.1813 31.1823 44.6813 30.2156 43.6813C29.249 42.6813 28.7656 41.2397 28.7656 39.3563C28.7656 38.1063 29.024 37.023 29.5406 36.1063C30.074 35.173 30.824 34.4563 31.7906 33.9563C32.774 33.4563 33.9156 33.2063 35.2156 33.2063C37.849 33.2063 39.674 33.9813 40.6906 35.5313C41.724 37.0813 42.2406 39.2897 42.2406 42.1563C42.2406 45.4563 41.7323 47.9313 40.7156 49.5813C39.7156 51.2313 38.024 52.0563 35.6406 52.0563C34.324 52.0563 33.1906 51.7813 32.2406 51.2313C31.2906 50.6813 30.5573 49.9647 30.0406 49.0813C29.5406 48.1813 29.2573 47.2147 29.1906 46.1813H34.3656ZM35.4156 40.9313C35.8656 40.9313 36.224 40.8063 36.4906 40.5563C36.7573 40.3063 36.8906 39.9563 36.8906 39.5063C36.8906 39.0063 36.7573 38.6397 36.4906 38.4063C36.2406 38.1563 35.8823 38.0313 35.4156 38.0313C34.949 38.0313 34.5823 38.1563 34.3156 38.4063C34.0656 38.6397 33.9406 39.0063 33.9406 39.5063C33.9406 39.9563 34.074 40.3063 34.3406 40.5563C34.6073 40.8063 34.9656 40.9313 35.4156 40.9313ZM49.2826 46.1813C49.366 46.6647 49.516 47.0313 49.7326 47.2813C49.966 47.5147 50.2826 47.6313 50.6826 47.6313C51.2993 47.6313 51.6993 47.323 51.8826 46.7063C52.0826 46.073 52.1826 45.0647 52.1826 43.6813C51.8826 44.148 51.4493 44.5147 50.8826 44.7813C50.316 45.048 49.6743 45.1813 48.9576 45.1813C47.3743 45.1813 46.0993 44.6813 45.1326 43.6813C44.166 42.6813 43.6826 41.2397 43.6826 39.3563C43.6826 38.1063 43.941 37.023 44.4576 36.1063C44.991 35.173 45.741 34.4563 46.7076 33.9563C47.691 33.4563 48.8326 33.2063 50.1326 33.2063C52.766 33.2063 54.591 33.9813 55.6076 35.5313C56.641 37.0813 57.1576 39.2897 57.1576 42.1563C57.1576 45.4563 56.6493 47.9313 55.6326 49.5813C54.6326 51.2313 52.941 52.0563 50.5576 52.0563C49.241 52.0563 48.1076 51.7813 47.1576 51.2313C46.2076 50.6813 45.4743 49.9647 44.9576 49.0813C44.4576 48.1813 44.1743 47.2147 44.1076 46.1813H49.2826ZM50.3326 40.9313C50.7826 40.9313 51.141 40.8063 51.4076 40.5563C51.6743 40.3063 51.8076 39.9563 51.8076 39.5063C51.8076 39.0063 51.6743 38.6397 51.4076 38.4063C51.1576 38.1563 50.7993 38.0313 50.3326 38.0313C49.866 38.0313 49.4993 38.1563 49.2326 38.4063C48.9826 38.6397 48.8576 39.0063 48.8576 39.5063C48.8576 39.9563 48.991 40.3063 49.2576 40.5563C49.5243 40.8063 49.8826 40.9313 50.3326 40.9313Z" fill="#51A2F1"/>
<defs>
<linearGradient id="paint0_linear_1730_1718" x1="69.8496" y1="31.5779" x2="5.26777" y2="48.8826" gradientUnits="userSpaceOnUse">
<stop stop-color="#556EE6"/>
<stop offset="0.9949" stop-color="#50A5F1"/>
</linearGradient>
</defs>
</svg>
