<svg width="33" height="32" viewBox="0 0 33 32" fill="none" xmlns="http://www.w3.org/2000/svg">
<path d="M28.8123 0.265503C23.5475 0.265503 16.4883 3.87606 11.7463 10.0835H7.81418C4.97433 10.0835 3.34701 12.2041 2.22531 14.4451L0.720703 17.4469H7.81418L11.4959 21.1287L15.1776 24.8104V31.9014L18.1795 30.3993C20.4204 29.28 22.5411 27.6502 22.5411 24.8104V20.8783C28.7485 16.1362 32.3591 9.07467 32.3591 3.81224V0.265503H28.8123ZM22.5411 7.62897C23.1921 7.62897 23.8164 7.88757 24.2767 8.34788C24.737 8.80818 24.9956 9.43249 24.9956 10.0835C24.9956 10.7344 24.737 11.3587 24.2767 11.819C23.8164 12.2794 23.1921 12.538 22.5411 12.538C21.8901 12.538 21.2658 12.2794 20.8055 11.819C20.3452 11.3587 20.0866 10.7344 20.0866 10.0835C20.0866 9.43249 20.3452 8.80818 20.8055 8.34788C21.2658 7.88757 21.8901 7.62897 22.5411 7.62897ZM6.58693 22.3559L5.35969 23.5832C3.58755 25.3553 2.9052 29.7194 2.9052 29.7194C2.9052 29.7194 7.07292 29.2334 9.04142 27.2649L10.2687 26.0376L6.58693 22.3559Z" fill="#34C38F"/>
</svg>
