<svg width="194" height="83" viewBox="0 0 194 83" fill="none" xmlns="http://www.w3.org/2000/svg">
<mask id="mask0_1730_1600" style="mask-type:alpha" maskUnits="userSpaceOnUse" x="0" y="0" width="194" height="83">
<rect x="0.824219" width="193" height="83" rx="4" fill="#C4C4C4"/>
</mask>
<g mask="url(#mask0_1730_1600)">
<path fill-rule="evenodd" clip-rule="evenodd" d="M200.051 83V40.1465C200.051 37.9929 198.351 36.2233 196.2 36.1171C190.367 35.8294 179.228 35.1558 172.178 33.9465C162.277 32.248 147.678 32.4978 143.41 34.4389C141.48 35.142 133.108 38.4793 127.379 39.5919C121.651 40.7046 116.525 40.3995 104.731 30.7586C92.9371 21.1177 83.9549 26.7269 74.8807 28.675C65.8066 30.6231 58.8284 37.3662 50.0014 19.4356C41.1742 1.50497 36.7491 13.2227 28.2174 14.5201C20.6556 15.6701 11.8994 15.8611 0.893005 15.1278C-1.44614 14.9719 -3.45506 16.7975 -3.45503 19.1418C-3.45474 34.1628 -3.45526 83 -3.45526 83" fill="url(#paint0_linear_1730_1600)"/>
<path d="M200.051 83V40.1465C200.051 37.9929 198.351 36.2233 196.2 36.1171C190.367 35.8294 179.228 35.1558 172.178 33.9465C162.277 32.248 147.678 32.4978 143.41 34.4389C141.48 35.142 133.108 38.4793 127.379 39.5919C121.651 40.7046 116.525 40.3995 104.731 30.7586C92.9371 21.1177 83.9549 26.7269 74.8807 28.675C65.8066 30.6231 58.8284 37.3662 50.0014 19.4356C41.1742 1.50497 36.7491 13.2227 28.2174 14.5201C20.6556 15.6701 11.8994 15.8611 0.893012 15.1278C-1.44614 14.9719 -3.45507 16.7975 -3.45503 19.1418C-3.45475 34.1628 -3.45526 83 -3.45526 83" stroke="#556EE6" stroke-width="2"/>
<path d="M200.051 83V51.2079C200.051 49.0413 198.332 47.2664 196.166 47.1847C190.325 46.9642 179.214 46.4498 172.178 45.5278C162.277 44.2303 154.123 41.6097 149.855 43.0925C147.925 43.6296 133.108 48.9904 127.379 49.8404C121.651 50.6903 116.525 50.4573 104.731 43.0925C92.9371 35.7278 87.7218 38.754 78.6476 40.2422C69.5735 41.7303 58.8284 48.1401 50.0014 34.4428C41.1742 20.7456 20.6409 29.9106 12.1093 30.9017C4.70847 31.7615 8.28448 31.7587 0.819116 31.1972C-1.48869 31.0236 -3.45505 32.8398 -3.45501 35.1542C-3.45477 47.5877 -3.45526 83 -3.45526 83" stroke="#34C38F" stroke-width="2"/>
<path d="M199.66 83V72.2231C199.66 70.2453 198.215 68.5644 196.259 68.2682L195.621 68.1715C192.38 67.2103 188.089 64.7906 182.59 58.6943C177.092 52.5981 162.694 52.5981 156.677 52.5981C150.659 52.5981 138.394 52.6043 131.237 60.9873C124.081 69.3702 118.773 68.2659 104.724 57.4309C90.675 46.5959 84.678 54.7292 74.2341 60.9269C63.7902 67.1247 60.0991 70.709 47.1788 57.3184C34.2585 43.9279 31.3104 41.9508 14.0902 52.5981C8.86291 56.0266 4.69681 57.4839 1.73812 58.0627C-0.848629 58.5687 -3.45677 60.8311 -3.45677 63.4669V83" stroke="#F1B44C" stroke-width="2"/>
</g>
<defs>
<linearGradient id="paint0_linear_1730_1600" x1="-94.4543" y1="101.426" x2="-94.5159" y2="-3.84916" gradientUnits="userSpaceOnUse">
<stop stop-color="#D8DEF9" stop-opacity="0.100731"/>
<stop offset="1" stop-color="#556EE6" stop-opacity="0.439216"/>
</linearGradient>
</defs>
</svg>
