<svg width="193" height="75" viewBox="0 0 193 75" fill="none" xmlns="http://www.w3.org/2000/svg">
<path fill-rule="evenodd" clip-rule="evenodd" d="M199.227 75V32.1465C199.227 29.9929 197.527 28.2233 195.376 28.1171C189.543 27.8294 178.403 27.1558 171.354 25.9465C161.453 24.248 146.854 24.4978 142.586 26.4389C140.656 27.142 132.284 30.4793 126.555 31.5919C120.826 32.7046 115.701 32.3995 103.907 22.7586C92.1129 13.1177 83.1307 18.7269 74.0564 20.675C64.9824 22.6231 58.0042 29.3662 49.1772 11.4356C40.35 -6.49503 35.9249 5.22267 27.3932 6.52014C19.8314 7.67011 11.0752 7.86113 0.0687866 7.12779C-2.27036 6.97193 -4.27928 8.7975 -4.27925 11.1418C-4.27896 26.1628 -4.27948 75 -4.27948 75" fill="url(#paint0_linear_1004_637)"/>
<path d="M199.227 75V32.1465C199.227 29.9929 197.527 28.2233 195.376 28.1171C189.543 27.8294 178.403 27.1558 171.354 25.9465C161.453 24.248 146.854 24.4978 142.586 26.4389C140.656 27.142 132.284 30.4793 126.555 31.5919C120.826 32.7046 115.701 32.3995 103.907 22.7586C92.1129 13.1177 83.1307 18.7269 74.0564 20.675C64.9824 22.6231 58.0042 29.3662 49.1772 11.4356C40.35 -6.49503 35.9248 5.22267 27.3932 6.52014C19.8314 7.67011 11.0752 7.86113 0.0687935 7.12779C-2.27035 6.97193 -4.27929 8.7975 -4.27924 11.1418C-4.27896 26.1628 -4.27948 75 -4.27948 75" stroke="#556EE6" stroke-width="2"/>
<path d="M199.227 75V43.2079C199.227 41.0413 197.507 39.2664 195.342 39.1847C189.501 38.9642 178.39 38.4498 171.354 37.5278C161.453 36.2303 153.299 33.6097 149.031 35.0925C147.101 35.6296 132.284 40.9904 126.555 41.8404C120.826 42.6903 115.701 42.4573 103.907 35.0925C92.1129 27.7278 86.8976 30.754 77.8233 32.2422C68.7492 33.7303 58.0042 40.1401 49.1772 26.4428C40.35 12.7456 19.8167 21.9106 11.285 22.9017C3.88426 23.7615 7.46027 23.7587 -0.00510245 23.1972C-2.31291 23.0236 -4.27927 24.8398 -4.27922 27.1542C-4.27899 39.5877 -4.27948 75 -4.27948 75" stroke="#34C38F" stroke-width="2"/>
<path d="M198.836 75V64.2231C198.836 62.2453 197.391 60.5644 195.435 60.2682L194.797 60.1715C191.555 59.2103 187.265 56.7906 181.766 50.6943C176.267 44.5981 161.87 44.5981 155.853 44.5981C149.835 44.5981 137.569 44.6043 130.413 52.9873C123.257 61.3702 117.949 60.2659 103.9 49.4309C89.8508 38.5959 83.8537 46.7292 73.4098 52.9269C62.966 59.1247 59.2749 62.709 46.3546 49.3184C33.4343 35.9279 30.4862 33.9508 13.266 44.5981C8.03869 48.0266 3.8726 49.4839 0.913897 50.0627C-1.67285 50.5687 -4.28099 52.8311 -4.28099 55.4669V75" stroke="#F1B44C" stroke-width="2"/>
<defs>
<linearGradient id="paint0_linear_1004_637" x1="-95.2785" y1="93.4261" x2="-95.3402" y2="-11.8492" gradientUnits="userSpaceOnUse">
<stop stop-color="#D8DEF9" stop-opacity="0.100731"/>
<stop offset="1" stop-color="#556EE6" stop-opacity="0.439216"/>
</linearGradient>
</defs>
</svg>
