<svg width="87" height="80" viewBox="0 0 87 80" fill="none" xmlns="http://www.w3.org/2000/svg">
<path d="M1.24219 64.4229C1.24219 64.4229 29.8941 39.7215 30.8816 0.519775H46.6948C46.6948 0.519775 47.0201 39.0476 11.455 79.8875C6.86369 75.623 3.36157 70.32 1.24219 64.4229Z" fill="#F15A29"/>
<path d="M79.6352 22.4908C79.6352 22.4908 64.5308 41.6966 53.2839 48.6098C42.0369 55.5229 31.8705 62.7731 0.941406 64.4229C3.27084 70.2142 6.73089 75.4833 11.1194 79.9224C11.1194 79.9224 31.2199 78.9348 48.009 69.3841C64.7981 59.8335 79.6352 48.97 86.5484 38.7571L79.6352 22.4908Z" fill="#8DC63F"/>
<path d="M30.8809 0.531494H46.694C46.694 0.531494 48.6692 21.9332 56.5699 37.4211L44.0565 47.297C35.8274 33.0537 31.2976 16.9758 30.8809 0.531494Z" fill="#F7BF17"/>
<path d="M56.5723 64.4694L68.3072 56.5686L81.6107 68.048L71.3978 79.9223C71.3978 79.9223 62.1725 73.4042 56.5723 64.4694Z" fill="#F7BF17"/>
</svg>
