<svg width="21" height="21" viewBox="0 0 21 21" fill="none" xmlns="http://www.w3.org/2000/svg">
<path d="M14.8157 13.3804H13.8818L13.5508 13.0759C14.7093 11.7901 15.4068 10.121 15.4068 8.30518C15.4068 4.25632 11.9668 0.974365 7.72292 0.974365C3.47907 0.974365 0.0390625 4.25632 0.0390625 8.30518C0.0390625 12.3541 3.47907 15.636 7.72292 15.636C9.62615 15.636 11.3757 14.9706 12.7233 13.8653L13.0425 14.1811V15.0721L18.9532 20.6999L20.7146 19.0195L14.8157 13.3804ZM7.72292 13.3804C4.77941 13.3804 2.40333 11.1135 2.40333 8.30518C2.40333 5.49692 4.77941 3.23 7.72292 3.23C10.6664 3.23 13.0425 5.49692 13.0425 8.30518C13.0425 11.1135 10.6664 13.3804 7.72292 13.3804Z" fill="#EFF2F7"/>
</svg>
