<svg width="26" height="26" viewBox="0 0 26 26" fill="none" xmlns="http://www.w3.org/2000/svg">
<path d="M23.1627 0.466797H2.23626C1.0928 0.466797 0.09375 1.28955 0.09375 2.41957V23.3924C0.09375 24.5286 1.0928 25.5411 2.23626 25.5411H23.1565C24.3061 25.5411 25.1681 24.5219 25.1681 23.3924V2.41957C25.1748 1.28955 24.3061 0.466797 23.1627 0.466797ZM7.86623 21.3675H4.27411V10.1988H7.86623V21.3675ZM6.19442 8.50065H6.16867C5.01906 8.50065 4.27467 7.64488 4.27467 6.57362C4.27467 5.48278 5.03865 4.64716 6.21401 4.64716C7.38937 4.64716 8.10858 5.47662 8.13432 6.57362C8.13376 7.64488 7.38937 8.50065 6.19442 8.50065ZM20.9944 21.3675H17.4023V15.2606C17.4023 13.7976 16.8795 12.798 15.5799 12.798C14.587 12.798 13.9994 13.4696 13.738 14.1239C13.64 14.359 13.6137 14.6791 13.6137 15.006V21.3675H10.0216V10.1988H13.6137V11.753C14.1365 11.0086 14.9531 9.93739 16.8532 9.93739C19.2112 9.93739 20.995 11.4917 20.995 14.8426L20.9944 21.3675Z" fill="white"/>
</svg>
