<svg width="169" height="53" viewBox="0 0 169 53" fill="none" xmlns="http://www.w3.org/2000/svg">
<path d="M62.1918 39.8927C59.6918 39.8927 57.7418 39.201 56.3418 37.8177C54.9585 36.4343 54.2668 34.4593 54.2668 31.8927V22.0927H58.3168V31.7427C58.3168 34.876 59.6168 36.4427 62.2168 36.4427C63.4835 36.4427 64.4501 36.0677 65.1168 35.3177C65.7835 34.551 66.1168 33.3593 66.1168 31.7427V22.0927H70.1168V31.8927C70.1168 34.4593 69.4168 36.4343 68.0168 37.8177C66.6335 39.201 64.6918 39.8927 62.1918 39.8927ZM74.1189 22.0927H82.0689C83.9689 22.0927 85.6439 22.4593 87.0939 23.1927C88.5606 23.9093 89.6939 24.926 90.4939 26.2427C91.3106 27.5593 91.7189 29.0927 91.7189 30.8427C91.7189 32.5927 91.3106 34.126 90.4939 35.4427C89.6939 36.7593 88.5606 37.7843 87.0939 38.5177C85.6439 39.2343 83.9689 39.5927 82.0689 39.5927H74.1189V22.0927ZM81.8689 36.2677C83.6189 36.2677 85.0106 35.7843 86.0439 34.8177C87.0939 33.8343 87.6189 32.5093 87.6189 30.8427C87.6189 29.176 87.0939 27.8593 86.0439 26.8927C85.0106 25.9093 83.6189 25.4177 81.8689 25.4177H78.1689V36.2677H81.8689ZM94.7732 22.0927H98.8232V39.5927H94.7732V22.0927ZM106.601 25.3927H101.001V22.0927H116.251V25.3927H110.651V39.5927H106.601V25.3927ZM132.605 36.2927V39.5927H117.305V36.9677L126.905 25.3927H117.505V22.0927H132.23V24.7177L122.655 36.2927H132.605ZM143.603 33.3927V39.5927H139.553V33.3427L132.778 22.0927H137.078L141.753 29.8677L146.428 22.0927H150.403L143.603 33.3927Z" fill="white"/>
<path d="M0.917969 36.8626C0.917969 36.8626 17.0561 22.9496 17.6124 0.869263H26.5191C26.5191 0.869263 26.7023 22.57 6.67035 45.573C4.08427 43.1711 2.11171 40.1841 0.917969 36.8626Z" fill="#F15A29"/>
<path d="M45.0722 13.2444C45.0722 13.2444 36.5647 24.062 30.2299 27.9558C23.8951 31.8497 18.1688 35.9333 0.748047 36.8626C2.0601 40.1245 4.00897 43.0923 6.48082 45.5926C6.48082 45.5926 17.8024 45.0363 27.2588 39.657C36.7153 34.2776 45.0723 28.1587 48.9661 22.4063L45.0722 13.2444Z" fill="#8DC63F"/>
<path d="M17.6113 0.875854H26.518C26.518 0.875854 27.6306 12.9304 32.0807 21.6539L25.0325 27.2165C20.3974 19.194 17.8461 10.1381 17.6113 0.875854Z" fill="#F7BF17"/>
<path d="M32.082 36.8888L38.6917 32.4387L46.1849 38.9044L40.4325 45.5927C40.4325 45.5927 35.2364 41.9214 32.082 36.8888Z" fill="#F7BF17"/>
</svg>
