<svg width="167" height="169" viewBox="0 0 167 169" fill="none" xmlns="http://www.w3.org/2000/svg">
<rect width="166.35" height="168.492" rx="15" transform="matrix(1 0.000675121 -0.00130585 0.999999 0.219727 0)" fill="white"/>
<path d="M36.1431 125.971H32.1911L31.4631 127.986H30.2151L33.4911 118.977H34.8561L38.1191 127.986H36.8711L36.1431 125.971ZM35.8051 125.009L34.1671 120.433L32.5291 125.009H35.8051ZM40.7299 122.188C40.9726 121.764 41.3279 121.417 41.7959 121.148C42.2639 120.88 42.7969 120.745 43.3949 120.745C44.0362 120.745 44.6126 120.897 45.1239 121.2C45.6352 121.504 46.0382 121.933 46.3329 122.487C46.6276 123.033 46.7749 123.67 46.7749 124.398C46.7749 125.118 46.6276 125.759 46.3329 126.322C46.0382 126.886 45.6309 127.323 45.1109 127.635C44.5996 127.947 44.0276 128.103 43.3949 128.103C42.7796 128.103 42.2379 127.969 41.7699 127.7C41.3106 127.432 40.9639 127.089 40.7299 126.673V127.986H39.5469V118.366H40.7299V122.188ZM45.5659 124.398C45.5659 123.861 45.4576 123.393 45.2409 122.994C45.0242 122.596 44.7296 122.292 44.3569 122.084C43.9929 121.876 43.5899 121.772 43.1479 121.772C42.7146 121.772 42.3116 121.881 41.9389 122.097C41.5749 122.305 41.2802 122.613 41.0549 123.02C40.8382 123.419 40.7299 123.883 40.7299 124.411C40.7299 124.949 40.8382 125.421 41.0549 125.828C41.2802 126.227 41.5749 126.535 41.9389 126.751C42.3116 126.959 42.7146 127.063 43.1479 127.063C43.5899 127.063 43.9929 126.959 44.3569 126.751C44.7296 126.535 45.0242 126.227 45.2409 125.828C45.4576 125.421 45.5659 124.944 45.5659 124.398ZM51.4391 128.103C50.7717 128.103 50.1651 127.952 49.6191 127.648C49.0817 127.345 48.6571 126.916 48.3451 126.361C48.0417 125.798 47.8901 125.148 47.8901 124.411C47.8901 123.683 48.0461 123.042 48.3581 122.487C48.6787 121.924 49.1121 121.495 49.6581 121.2C50.2041 120.897 50.8151 120.745 51.4911 120.745C52.1671 120.745 52.7781 120.897 53.3241 121.2C53.8701 121.495 54.2991 121.92 54.6111 122.474C54.9317 123.029 55.0921 123.675 55.0921 124.411C55.0921 125.148 54.9274 125.798 54.5981 126.361C54.2774 126.916 53.8397 127.345 53.2851 127.648C52.7304 127.952 52.1151 128.103 51.4391 128.103ZM51.4391 127.063C51.8637 127.063 52.2624 126.964 52.6351 126.764C53.0077 126.565 53.3067 126.266 53.5321 125.867C53.7661 125.469 53.8831 124.983 53.8831 124.411C53.8831 123.839 53.7704 123.354 53.5451 122.955C53.3197 122.557 53.0251 122.262 52.6611 122.071C52.2971 121.872 51.9027 121.772 51.4781 121.772C51.0447 121.772 50.6461 121.872 50.2821 122.071C49.9267 122.262 49.6407 122.557 49.4241 122.955C49.2074 123.354 49.0991 123.839 49.0991 124.411C49.0991 124.992 49.2031 125.482 49.4111 125.88C49.6277 126.279 49.9137 126.578 50.2691 126.777C50.6244 126.968 51.0144 127.063 51.4391 127.063ZM62.9655 120.862V127.986H61.7825V126.933C61.5572 127.297 61.2408 127.583 60.8335 127.791C60.4348 127.991 59.9928 128.09 59.5075 128.09C58.9528 128.09 58.4545 127.978 58.0125 127.752C57.5705 127.518 57.2195 127.172 56.9595 126.712C56.7082 126.253 56.5825 125.694 56.5825 125.035V120.862H57.7525V124.879C57.7525 125.581 57.9302 126.123 58.2855 126.504C58.6408 126.877 59.1262 127.063 59.7415 127.063C60.3742 127.063 60.8725 126.868 61.2365 126.478C61.6005 126.088 61.7825 125.521 61.7825 124.775V120.862H62.9655ZM66.4059 121.837V126.036C66.4059 126.383 66.4796 126.63 66.6269 126.777C66.7742 126.916 67.0299 126.985 67.3939 126.985H68.2649V127.986H67.1989C66.5402 127.986 66.0462 127.835 65.7169 127.531C65.3876 127.228 65.2229 126.73 65.2229 126.036V121.837H64.2999V120.862H65.2229V119.068H66.4059V120.862H68.2649V121.837H66.4059ZM74.3211 118.925V124.658C74.3211 125.464 74.5161 126.062 74.9061 126.452C75.3048 126.842 75.8551 127.037 76.5571 127.037C77.2504 127.037 77.7921 126.842 78.1821 126.452C78.5808 126.062 78.7801 125.464 78.7801 124.658V118.925H79.9631V124.645C79.9631 125.399 79.8114 126.036 79.5081 126.556C79.2048 127.068 78.7931 127.449 78.2731 127.7C77.7618 127.952 77.1854 128.077 76.5441 128.077C75.9028 128.077 75.3221 127.952 74.8021 127.7C74.2908 127.449 73.8834 127.068 73.5801 126.556C73.2854 126.036 73.1381 125.399 73.1381 124.645V118.925H74.3211ZM84.4585 128.103C83.9125 128.103 83.4229 128.012 82.9895 127.83C82.5562 127.64 82.2139 127.38 81.9625 127.05C81.7112 126.712 81.5725 126.327 81.5465 125.893H82.7685C82.8032 126.249 82.9679 126.539 83.2625 126.764C83.5659 126.99 83.9602 127.102 84.4455 127.102C84.8962 127.102 85.2515 127.003 85.5115 126.803C85.7715 126.604 85.9015 126.353 85.9015 126.049C85.9015 125.737 85.7629 125.508 85.4855 125.36C85.2082 125.204 84.7792 125.053 84.1985 124.905C83.6699 124.767 83.2365 124.628 82.8985 124.489C82.5692 124.342 82.2832 124.13 82.0405 123.852C81.8065 123.566 81.6895 123.194 81.6895 122.734C81.6895 122.37 81.7979 122.037 82.0145 121.733C82.2312 121.43 82.5389 121.192 82.9375 121.018C83.3362 120.836 83.7912 120.745 84.3025 120.745C85.0912 120.745 85.7282 120.945 86.2135 121.343C86.6989 121.742 86.9589 122.288 86.9935 122.981H85.8105C85.7845 122.609 85.6329 122.31 85.3555 122.084C85.0869 121.859 84.7229 121.746 84.2635 121.746C83.8389 121.746 83.5009 121.837 83.2495 122.019C82.9982 122.201 82.8725 122.44 82.8725 122.734C82.8725 122.968 82.9462 123.163 83.0935 123.319C83.2495 123.467 83.4402 123.588 83.6655 123.683C83.8995 123.77 84.2202 123.87 84.6275 123.982C85.1389 124.121 85.5549 124.26 85.8755 124.398C86.1962 124.528 86.4692 124.728 86.6945 124.996C86.9285 125.265 87.0499 125.616 87.0585 126.049C87.0585 126.439 86.9502 126.79 86.7335 127.102C86.5169 127.414 86.2092 127.661 85.8105 127.843C85.4205 128.017 84.9699 128.103 84.4585 128.103Z" fill="#74788D"/>
<path d="M37.0791 98.2459C37.0791 98.7052 36.9708 99.1386 36.7541 99.5459C36.5375 99.9532 36.1908 100.287 35.7141 100.547C35.2375 100.798 34.6265 100.924 33.8811 100.924H32.2431V104.59H30.7611V95.5549H33.8811C34.5745 95.5549 35.1595 95.6762 35.6361 95.9189C36.1215 96.1529 36.4811 96.4736 36.7151 96.8809C36.9578 97.2882 37.0791 97.7432 37.0791 98.2459ZM33.8811 99.7149C34.4445 99.7149 34.8648 99.5892 35.1421 99.3379C35.4195 99.0779 35.5581 98.7139 35.5581 98.2459C35.5581 97.2579 34.9991 96.7639 33.8811 96.7639H32.2431V99.7149H33.8811ZM37.9986 100.976C37.9986 100.257 38.1459 99.6196 38.4406 99.0649C38.7439 98.5102 39.1512 98.0812 39.6626 97.7779C40.1826 97.4659 40.7546 97.3099 41.3786 97.3099C41.9419 97.3099 42.4316 97.4226 42.8476 97.6479C43.2722 97.8646 43.6102 98.1376 43.8616 98.4669V97.4269H45.3566V104.59H43.8616V103.524C43.6102 103.862 43.2679 104.144 42.8346 104.369C42.4012 104.594 41.9072 104.707 41.3526 104.707C40.7372 104.707 40.1739 104.551 39.6626 104.239C39.1512 103.918 38.7439 103.476 38.4406 102.913C38.1459 102.341 37.9986 101.695 37.9986 100.976ZM43.8616 101.002C43.8616 100.508 43.7576 100.079 43.5496 99.7149C43.3502 99.3509 43.0859 99.0736 42.7566 98.8829C42.4272 98.6922 42.0719 98.5969 41.6906 98.5969C41.3092 98.5969 40.9539 98.6922 40.6246 98.8829C40.2952 99.0649 40.0266 99.3379 39.8186 99.7019C39.6192 100.057 39.5196 100.482 39.5196 100.976C39.5196 101.47 39.6192 101.903 39.8186 102.276C40.0266 102.649 40.2952 102.935 40.6246 103.134C40.9626 103.325 41.3179 103.42 41.6906 103.42C42.0719 103.42 42.4272 103.325 42.7566 103.134C43.0859 102.943 43.3502 102.666 43.5496 102.302C43.7576 101.929 43.8616 101.496 43.8616 101.002ZM50.1891 97.3099C50.7438 97.3099 51.2335 97.4226 51.6581 97.6479C52.0915 97.8646 52.4295 98.1376 52.6721 98.4669V97.4269H54.1671V104.707C54.1671 105.366 54.0285 105.951 53.7511 106.462C53.4738 106.982 53.0708 107.389 52.5421 107.684C52.0221 107.979 51.3981 108.126 50.6701 108.126C49.6995 108.126 48.8935 107.896 48.2521 107.437C47.6108 106.986 47.2468 106.371 47.1601 105.591H48.6291C48.7418 105.964 48.9801 106.263 49.3441 106.488C49.7168 106.722 50.1588 106.839 50.6701 106.839C51.2681 106.839 51.7491 106.657 52.1131 106.293C52.4858 105.929 52.6721 105.4 52.6721 104.707V103.511C52.4208 103.849 52.0785 104.135 51.6451 104.369C51.2205 104.594 50.7351 104.707 50.1891 104.707C49.5651 104.707 48.9931 104.551 48.4731 104.239C47.9618 103.918 47.5545 103.476 47.2511 102.913C46.9565 102.341 46.8091 101.695 46.8091 100.976C46.8091 100.257 46.9565 99.6196 47.2511 99.0649C47.5545 98.5102 47.9618 98.0812 48.4731 97.7779C48.9931 97.4659 49.5651 97.3099 50.1891 97.3099ZM52.6721 101.002C52.6721 100.508 52.5681 100.079 52.3601 99.7149C52.1608 99.3509 51.8965 99.0736 51.5671 98.8829C51.2378 98.6922 50.8825 98.5969 50.5011 98.5969C50.1198 98.5969 49.7645 98.6922 49.4351 98.8829C49.1058 99.0649 48.8371 99.3379 48.6291 99.7019C48.4298 100.057 48.3301 100.482 48.3301 100.976C48.3301 101.47 48.4298 101.903 48.6291 102.276C48.8371 102.649 49.1058 102.935 49.4351 103.134C49.7731 103.325 50.1285 103.42 50.5011 103.42C50.8825 103.42 51.2378 103.325 51.5671 103.134C51.8965 102.943 52.1608 102.666 52.3601 102.302C52.5681 101.929 52.6721 101.496 52.6721 101.002ZM62.6787 100.833C62.6787 101.102 62.6613 101.344 62.6267 101.561H57.1537C57.197 102.133 57.4093 102.592 57.7907 102.939C58.172 103.286 58.64 103.459 59.1947 103.459C59.992 103.459 60.5553 103.125 60.8847 102.458H62.4837C62.267 103.117 61.8727 103.658 61.3007 104.083C60.7373 104.499 60.0353 104.707 59.1947 104.707C58.51 104.707 57.8947 104.555 57.3487 104.252C56.8113 103.94 56.3867 103.507 56.0747 102.952C55.7713 102.389 55.6197 101.739 55.6197 101.002C55.6197 100.265 55.767 99.6196 56.0617 99.0649C56.365 98.5016 56.7853 98.0682 57.3227 97.7649C57.8687 97.4616 58.4927 97.3099 59.1947 97.3099C59.8707 97.3099 60.473 97.4572 61.0017 97.7519C61.5303 98.0466 61.942 98.4626 62.2367 98.9999C62.5313 99.5286 62.6787 100.14 62.6787 100.833ZM61.1317 100.365C61.123 99.8189 60.928 99.3812 60.5467 99.0519C60.1653 98.7226 59.693 98.5579 59.1297 98.5579C58.6183 98.5579 58.1807 98.7226 57.8167 99.0519C57.4527 99.3726 57.236 99.8102 57.1667 100.365H61.1317Z" fill="#495057"/>
<path d="M32.2411 35.0399C32.2411 34.1472 32.4405 33.3499 32.8391 32.6479C33.2465 31.9372 33.7968 31.3869 34.4901 30.9969C35.1921 30.5982 35.9765 30.3989 36.8431 30.3989C37.8571 30.3989 38.7455 30.6589 39.5081 31.1789C40.2708 31.6989 40.8038 32.4182 41.1071 33.3369H39.0141C38.8061 32.9036 38.5115 32.5786 38.1301 32.3619C37.7575 32.1452 37.3241 32.0369 36.8301 32.0369C36.3015 32.0369 35.8291 32.1626 35.4131 32.4139C35.0058 32.6566 34.6851 33.0032 34.4511 33.4539C34.2258 33.9046 34.1131 34.4332 34.1131 35.0399C34.1131 35.6379 34.2258 36.1666 34.4511 36.6259C34.6851 37.0766 35.0058 37.4276 35.4131 37.6789C35.8291 37.9216 36.3015 38.0429 36.8301 38.0429C37.3241 38.0429 37.7575 37.9346 38.1301 37.7179C38.5115 37.4926 38.8061 37.1632 39.0141 36.7299H41.1071C40.8038 37.6572 40.2708 38.3809 39.5081 38.9009C38.7541 39.4122 37.8658 39.6679 36.8431 39.6679C35.9765 39.6679 35.1921 39.4729 34.4901 39.0829C33.7968 38.6842 33.2465 38.1339 32.8391 37.4319C32.4405 36.7299 32.2411 35.9326 32.2411 35.0399ZM45.8596 39.7069C45.1663 39.7069 44.5423 39.5552 43.9876 39.2519C43.433 38.9399 42.9953 38.5022 42.6746 37.9389C42.3626 37.3756 42.2066 36.7256 42.2066 35.9889C42.2066 35.2522 42.367 34.6022 42.6876 34.0389C43.017 33.4756 43.4633 33.0422 44.0266 32.7389C44.59 32.4269 45.2183 32.2709 45.9116 32.2709C46.605 32.2709 47.2333 32.4269 47.7966 32.7389C48.36 33.0422 48.802 33.4756 49.1226 34.0389C49.452 34.6022 49.6166 35.2522 49.6166 35.9889C49.6166 36.7256 49.4476 37.3756 49.1096 37.9389C48.7803 38.5022 48.3296 38.9399 47.7576 39.2519C47.1943 39.5552 46.5616 39.7069 45.8596 39.7069ZM45.8596 38.1209C46.189 38.1209 46.4966 38.0429 46.7826 37.8869C47.0773 37.7222 47.3113 37.4796 47.4846 37.1589C47.658 36.8382 47.7446 36.4482 47.7446 35.9889C47.7446 35.3042 47.5626 34.7799 47.1986 34.4159C46.8433 34.0432 46.4056 33.8569 45.8856 33.8569C45.3656 33.8569 44.928 34.0432 44.5726 34.4159C44.226 34.7799 44.0526 35.3042 44.0526 35.9889C44.0526 36.6736 44.2216 37.2022 44.5596 37.5749C44.9063 37.9389 45.3396 38.1209 45.8596 38.1209ZM59.8957 32.2839C60.7797 32.2839 61.4904 32.5569 62.0277 33.1029C62.5737 33.6402 62.8467 34.3942 62.8467 35.3649V39.5899H61.0267V35.6119C61.0267 35.0486 60.8837 34.6196 60.5977 34.3249C60.3117 34.0216 59.9217 33.8699 59.4277 33.8699C58.9337 33.8699 58.5394 34.0216 58.2447 34.3249C57.9587 34.6196 57.8157 35.0486 57.8157 35.6119V39.5899H55.9957V35.6119C55.9957 35.0486 55.8527 34.6196 55.5667 34.3249C55.2807 34.0216 54.8907 33.8699 54.3967 33.8699C53.894 33.8699 53.4954 34.0216 53.2007 34.3249C52.9147 34.6196 52.7717 35.0486 52.7717 35.6119V39.5899H50.9517V32.3879H52.7717V33.2589C53.0057 32.9556 53.3047 32.7172 53.6687 32.5439C54.0414 32.3706 54.4487 32.2839 54.8907 32.2839C55.454 32.2839 55.9567 32.4052 56.3987 32.6479C56.8407 32.8819 57.183 33.2199 57.4257 33.6619C57.6597 33.2459 57.9977 32.9122 58.4397 32.6609C58.8904 32.4096 59.3757 32.2839 59.8957 32.2839ZM66.3938 33.4279C66.6278 33.0986 66.9484 32.8256 67.3558 32.6089C67.7718 32.3836 68.2441 32.2709 68.7728 32.2709C69.3881 32.2709 69.9428 32.4226 70.4368 32.7259C70.9394 33.0292 71.3338 33.4626 71.6198 34.0259C71.9144 34.5806 72.0618 35.2262 72.0618 35.9629C72.0618 36.6996 71.9144 37.3539 71.6198 37.9259C71.3338 38.4892 70.9394 38.9269 70.4368 39.2389C69.9428 39.5509 69.3881 39.7069 68.7728 39.7069C68.2441 39.7069 67.7761 39.5986 67.3688 39.3819C66.9701 39.1652 66.6451 38.8922 66.3938 38.5629V43.0219H64.5738V32.3879H66.3938V33.4279ZM70.2028 35.9629C70.2028 35.5296 70.1118 35.1569 69.9298 34.8449C69.7564 34.5242 69.5224 34.2816 69.2278 34.1169C68.9418 33.9522 68.6298 33.8699 68.2918 33.8699C67.9624 33.8699 67.6504 33.9566 67.3558 34.1299C67.0698 34.2946 66.8358 34.5372 66.6538 34.8579C66.4804 35.1786 66.3938 35.5556 66.3938 35.9889C66.3938 36.4222 66.4804 36.7992 66.6538 37.1199C66.8358 37.4406 67.0698 37.6876 67.3558 37.8609C67.6504 38.0256 67.9624 38.1079 68.2918 38.1079C68.6298 38.1079 68.9418 38.0212 69.2278 37.8479C69.5224 37.6746 69.7564 37.4276 69.9298 37.1069C70.1118 36.7862 70.2028 36.4049 70.2028 35.9629ZM80.0793 35.8329C80.0793 36.0929 80.062 36.3269 80.0273 36.5349H74.7623C74.8056 37.0549 74.9876 37.4622 75.3083 37.7569C75.629 38.0516 76.0233 38.1989 76.4913 38.1989C77.1673 38.1989 77.6483 37.9086 77.9343 37.3279H79.8973C79.6893 38.0212 79.2906 38.5932 78.7013 39.0439C78.112 39.4859 77.3883 39.7069 76.5303 39.7069C75.837 39.7069 75.213 39.5552 74.6583 39.2519C74.1123 38.9399 73.6833 38.5022 73.3713 37.9389C73.068 37.3756 72.9163 36.7256 72.9163 35.9889C72.9163 35.2436 73.068 34.5892 73.3713 34.0259C73.6746 33.4626 74.0993 33.0292 74.6453 32.7259C75.1913 32.4226 75.8196 32.2709 76.5303 32.2709C77.215 32.2709 77.826 32.4182 78.3633 32.7129C78.9093 33.0076 79.3296 33.4279 79.6243 33.9739C79.9276 34.5112 80.0793 35.1309 80.0793 35.8329ZM78.1943 35.3129C78.1856 34.8449 78.0166 34.4722 77.6873 34.1949C77.358 33.9089 76.955 33.7659 76.4783 33.7659C76.0276 33.7659 75.6463 33.9046 75.3343 34.1819C75.031 34.4506 74.8446 34.8276 74.7753 35.3129H78.1943ZM83.5267 33.8829V37.3669C83.5267 37.6096 83.5831 37.7872 83.6957 37.8999C83.8171 38.0039 84.0164 38.0559 84.2937 38.0559H85.1387V39.5899H83.9947C82.4607 39.5899 81.6937 38.8446 81.6937 37.3539V33.8829H80.8357V32.3879H81.6937V30.6069H83.5267V32.3879H85.1387V33.8829H83.5267ZM87.3708 31.5299C87.0501 31.5299 86.7814 31.4302 86.5648 31.2309C86.3568 31.0229 86.2528 30.7672 86.2528 30.4639C86.2528 30.1606 86.3568 29.9092 86.5648 29.7099C86.7814 29.5019 87.0501 29.3979 87.3708 29.3979C87.6914 29.3979 87.9558 29.5019 88.1638 29.7099C88.3804 29.9092 88.4888 30.1606 88.4888 30.4639C88.4888 30.7672 88.3804 31.0229 88.1638 31.2309C87.9558 31.4302 87.6914 31.5299 87.3708 31.5299ZM88.2678 32.3879V39.5899H86.4478V32.3879H88.2678ZM92.1849 33.8829V37.3669C92.1849 37.6096 92.2413 37.7872 92.3539 37.8999C92.4753 38.0039 92.6746 38.0559 92.9519 38.0559H93.7969V39.5899H92.6529C91.1189 39.5899 90.3519 38.8446 90.3519 37.3539V33.8829H89.4939V32.3879H90.3519V30.6069H92.1849V32.3879H93.7969V33.8829H92.1849ZM96.029 31.5299C95.7083 31.5299 95.4397 31.4302 95.223 31.2309C95.015 31.0229 94.911 30.7672 94.911 30.4639C94.911 30.1606 95.015 29.9092 95.223 29.7099C95.4397 29.5019 95.7083 29.3979 96.029 29.3979C96.3497 29.3979 96.614 29.5019 96.822 29.7099C97.0387 29.9092 97.147 30.1606 97.147 30.4639C97.147 30.7672 97.0387 31.0229 96.822 31.2309C96.614 31.4302 96.3497 31.5299 96.029 31.5299ZM96.926 32.3879V39.5899H95.106V32.3879H96.926ZM101.922 39.7069C101.229 39.7069 100.605 39.5552 100.05 39.2519C99.4955 38.9399 99.0578 38.5022 98.7371 37.9389C98.4251 37.3756 98.2691 36.7256 98.2691 35.9889C98.2691 35.2522 98.4295 34.6022 98.7501 34.0389C99.0795 33.4756 99.5258 33.0422 100.089 32.7389C100.652 32.4269 101.281 32.2709 101.974 32.2709C102.667 32.2709 103.296 32.4269 103.859 32.7389C104.422 33.0422 104.864 33.4756 105.185 34.0389C105.514 34.6022 105.679 35.2522 105.679 35.9889C105.679 36.7256 105.51 37.3756 105.172 37.9389C104.843 38.5022 104.392 38.9399 103.82 39.2519C103.257 39.5552 102.624 39.7069 101.922 39.7069ZM101.922 38.1209C102.251 38.1209 102.559 38.0429 102.845 37.8869C103.14 37.7222 103.374 37.4796 103.547 37.1589C103.72 36.8382 103.807 36.4482 103.807 35.9889C103.807 35.3042 103.625 34.7799 103.261 34.4159C102.906 34.0432 102.468 33.8569 101.948 33.8569C101.428 33.8569 100.99 34.0432 100.635 34.4159C100.288 34.7799 100.115 35.3042 100.115 35.9889C100.115 36.6736 100.284 37.2022 100.622 37.5749C100.969 37.9389 101.402 38.1209 101.922 38.1209ZM108.834 33.5059C109.068 33.1246 109.372 32.8256 109.744 32.6089C110.126 32.3922 110.559 32.2839 111.044 32.2839V34.1949H110.563C109.991 34.1949 109.558 34.3292 109.263 34.5979C108.977 34.8666 108.834 35.3346 108.834 36.0019V39.5899H107.014V32.3879H108.834V33.5059Z" fill="#556EE6"/>
<path d="M30.4161 58.2899C30.4161 57.0539 30.6921 55.9499 31.2441 54.9779C31.8081 53.9939 32.5701 53.2319 33.5301 52.6919C34.5021 52.1399 35.5881 51.8639 36.7881 51.8639C38.1921 51.8639 39.4221 52.2239 40.4781 52.9439C41.5341 53.6639 42.2721 54.6599 42.6921 55.9319H39.7941C39.5061 55.3319 39.0981 54.8819 38.5701 54.5819C38.0541 54.2819 37.4541 54.1319 36.7701 54.1319C36.0381 54.1319 35.3841 54.3059 34.8081 54.6539C34.2441 54.9899 33.8001 55.4699 33.4761 56.0939C33.1641 56.7179 33.0081 57.4499 33.0081 58.2899C33.0081 59.1179 33.1641 59.8499 33.4761 60.4859C33.8001 61.1099 34.2441 61.5959 34.8081 61.9439C35.3841 62.2799 36.0381 62.4479 36.7701 62.4479C37.4541 62.4479 38.0541 62.2979 38.5701 61.9979C39.0981 61.6859 39.5061 61.2299 39.7941 60.6299H42.6921C42.2721 61.9139 41.5341 62.9159 40.4781 63.6359C39.4341 64.3439 38.2041 64.6979 36.7881 64.6979C35.5881 64.6979 34.5021 64.4279 33.5301 63.8879C32.5701 63.3359 31.8081 62.5739 31.2441 61.6019C30.6921 60.6299 30.4161 59.5259 30.4161 58.2899ZM49.2725 64.7519C48.3125 64.7519 47.4485 64.5419 46.6805 64.1219C45.9125 63.6899 45.3065 63.0839 44.8625 62.3039C44.4305 61.5239 44.2145 60.6239 44.2145 59.6039C44.2145 58.5839 44.4365 57.6839 44.8805 56.9039C45.3365 56.1239 45.9545 55.5239 46.7345 55.1039C47.5145 54.6719 48.3845 54.4559 49.3445 54.4559C50.3045 54.4559 51.1745 54.6719 51.9545 55.1039C52.7345 55.5239 53.3465 56.1239 53.7905 56.9039C54.2465 57.6839 54.4745 58.5839 54.4745 59.6039C54.4745 60.6239 54.2405 61.5239 53.7725 62.3039C53.3165 63.0839 52.6925 63.6899 51.9005 64.1219C51.1205 64.5419 50.2445 64.7519 49.2725 64.7519ZM49.2725 62.5559C49.7285 62.5559 50.1545 62.4479 50.5505 62.2319C50.9585 62.0039 51.2825 61.6679 51.5225 61.2239C51.7625 60.7799 51.8825 60.2399 51.8825 59.6039C51.8825 58.6559 51.6305 57.9299 51.1265 57.4259C50.6345 56.9099 50.0285 56.6519 49.3085 56.6519C48.5885 56.6519 47.9825 56.9099 47.4905 57.4259C47.0105 57.9299 46.7705 58.6559 46.7705 59.6039C46.7705 60.5519 47.0045 61.2839 47.4725 61.7999C47.9525 62.3039 48.5525 62.5559 49.2725 62.5559ZM68.7071 54.4739C69.9311 54.4739 70.9151 54.8519 71.6591 55.6079C72.4151 56.3519 72.7931 57.3959 72.7931 58.7399V64.5899H70.2731V59.0819C70.2731 58.3019 70.0751 57.7079 69.6791 57.2999C69.2831 56.8799 68.7431 56.6699 68.0591 56.6699C67.3751 56.6699 66.8291 56.8799 66.4211 57.2999C66.0251 57.7079 65.8271 58.3019 65.8271 59.0819V64.5899H63.3071V59.0819C63.3071 58.3019 63.1091 57.7079 62.7131 57.2999C62.3171 56.8799 61.7771 56.6699 61.0931 56.6699C60.3971 56.6699 59.8451 56.8799 59.4371 57.2999C59.0411 57.7079 58.8431 58.3019 58.8431 59.0819V64.5899H56.3231V54.6179H58.8431V55.8239C59.1671 55.4039 59.5811 55.0739 60.0851 54.8339C60.6011 54.5939 61.1651 54.4739 61.7771 54.4739C62.5571 54.4739 63.2531 54.6419 63.8651 54.9779C64.4771 55.3019 64.9511 55.7699 65.2871 56.3819C65.6111 55.8059 66.0791 55.3439 66.6911 54.9959C67.3151 54.6479 67.9871 54.4739 68.7071 54.4739ZM77.7044 56.0579C78.0284 55.6019 78.4724 55.2239 79.0364 54.9239C79.6124 54.6119 80.2664 54.4559 80.9984 54.4559C81.8504 54.4559 82.6184 54.6659 83.3024 55.0859C83.9984 55.5059 84.5444 56.1059 84.9404 56.8859C85.3484 57.6539 85.5524 58.5479 85.5524 59.5679C85.5524 60.5879 85.3484 61.4939 84.9404 62.2859C84.5444 63.0659 83.9984 63.6719 83.3024 64.1039C82.6184 64.5359 81.8504 64.7519 80.9984 64.7519C80.2664 64.7519 79.6184 64.6019 79.0544 64.3019C78.5024 64.0019 78.0524 63.6239 77.7044 63.1679V69.3419H75.1844V54.6179H77.7044V56.0579ZM82.9784 59.5679C82.9784 58.9679 82.8524 58.4519 82.6004 58.0199C82.3604 57.5759 82.0364 57.2399 81.6284 57.0119C81.2324 56.7839 80.8004 56.6699 80.3324 56.6699C79.8764 56.6699 79.4444 56.7899 79.0364 57.0299C78.6404 57.2579 78.3164 57.5939 78.0644 58.0379C77.8244 58.4819 77.7044 59.0039 77.7044 59.6039C77.7044 60.2039 77.8244 60.7259 78.0644 61.1699C78.3164 61.6139 78.6404 61.9559 79.0364 62.1959C79.4444 62.4239 79.8764 62.5379 80.3324 62.5379C80.8004 62.5379 81.2324 62.4179 81.6284 62.1779C82.0364 61.9379 82.3604 61.5959 82.6004 61.1519C82.8524 60.7079 82.9784 60.1799 82.9784 59.5679ZM96.6536 59.3879C96.6536 59.7479 96.6296 60.0719 96.5816 60.3599H89.2916C89.3516 61.0799 89.6036 61.6439 90.0476 62.0519C90.4916 62.4599 91.0376 62.6639 91.6856 62.6639C92.6216 62.6639 93.2876 62.2619 93.6836 61.4579H96.4016C96.1136 62.4179 95.5616 63.2099 94.7456 63.8339C93.9296 64.4459 92.9276 64.7519 91.7396 64.7519C90.7796 64.7519 89.9156 64.5419 89.1476 64.1219C88.3916 63.6899 87.7976 63.0839 87.3656 62.3039C86.9456 61.5239 86.7356 60.6239 86.7356 59.6039C86.7356 58.5719 86.9456 57.6659 87.3656 56.8859C87.7856 56.1059 88.3736 55.5059 89.1296 55.0859C89.8856 54.6659 90.7556 54.4559 91.7396 54.4559C92.6876 54.4559 93.5336 54.6599 94.2776 55.0679C95.0336 55.4759 95.6156 56.0579 96.0236 56.8139C96.4436 57.5579 96.6536 58.4159 96.6536 59.3879ZM94.0436 58.6679C94.0316 58.0199 93.7976 57.5039 93.3416 57.1199C92.8856 56.7239 92.3276 56.5259 91.6676 56.5259C91.0436 56.5259 90.5156 56.7179 90.0836 57.1019C89.6636 57.4739 89.4056 57.9959 89.3096 58.6679H94.0436ZM101.427 56.6879V61.5119C101.427 61.8479 101.505 62.0939 101.661 62.2499C101.829 62.3939 102.105 62.4659 102.489 62.4659H103.659V64.5899H102.075C99.951 64.5899 98.889 63.5579 98.889 61.4939V56.6879H97.701V54.6179H98.889V52.1519H101.427V54.6179H103.659V56.6879H101.427ZM106.749 53.4299C106.305 53.4299 105.933 53.2919 105.633 53.0159C105.345 52.7279 105.201 52.3739 105.201 51.9539C105.201 51.5339 105.345 51.1859 105.633 50.9099C105.933 50.6219 106.305 50.4779 106.749 50.4779C107.193 50.4779 107.559 50.6219 107.847 50.9099C108.147 51.1859 108.297 51.5339 108.297 51.9539C108.297 52.3739 108.147 52.7279 107.847 53.0159C107.559 53.2919 107.193 53.4299 106.749 53.4299ZM107.991 54.6179V64.5899H105.471V54.6179H107.991ZM113.415 56.6879V61.5119C113.415 61.8479 113.493 62.0939 113.649 62.2499C113.817 62.3939 114.093 62.4659 114.477 62.4659H115.647V64.5899H114.063C111.939 64.5899 110.877 63.5579 110.877 61.4939V56.6879H109.689V54.6179H110.877V52.1519H113.415V54.6179H115.647V56.6879H113.415ZM121.888 64.7519C120.928 64.7519 120.064 64.5419 119.296 64.1219C118.528 63.6899 117.922 63.0839 117.478 62.3039C117.046 61.5239 116.83 60.6239 116.83 59.6039C116.83 58.5839 117.052 57.6839 117.496 56.9039C117.952 56.1239 118.57 55.5239 119.35 55.1039C120.13 54.6719 121 54.4559 121.96 54.4559C122.92 54.4559 123.79 54.6719 124.57 55.1039C125.35 55.5239 125.962 56.1239 126.406 56.9039C126.862 57.6839 127.09 58.5839 127.09 59.6039C127.09 60.6239 126.856 61.5239 126.388 62.3039C125.932 63.0839 125.308 63.6899 124.516 64.1219C123.736 64.5419 122.86 64.7519 121.888 64.7519ZM121.888 62.5559C122.344 62.5559 122.77 62.4479 123.166 62.2319C123.574 62.0039 123.898 61.6679 124.138 61.2239C124.378 60.7799 124.498 60.2399 124.498 59.6039C124.498 58.6559 124.246 57.9299 123.742 57.4259C123.25 56.9099 122.644 56.6519 121.924 56.6519C121.204 56.6519 120.598 56.9099 120.106 57.4259C119.626 57.9299 119.386 58.6559 119.386 59.6039C119.386 60.5519 119.62 61.2839 120.088 61.7999C120.568 62.3039 121.168 62.5559 121.888 62.5559ZM131.458 56.1659C131.782 55.6379 132.202 55.2239 132.718 54.9239C133.246 54.6239 133.846 54.4739 134.518 54.4739V57.1199H133.852C133.06 57.1199 132.46 57.3059 132.052 57.6779C131.656 58.0499 131.458 58.6979 131.458 59.6219V64.5899H128.938V54.6179H131.458V56.1659ZM139.911 53.7899V51.4679H144.249V64.5899H141.657V53.7899H139.911Z" fill="#343A40"/>
</svg>
