<svg width="424" height="215" viewBox="0 0 424 215" fill="none" xmlns="http://www.w3.org/2000/svg">
<path d="M423.395 165.266H200.862L229.238 0.5H408.895C416.903 0.5 423.395 6.99187 423.395 15V165.266ZM228.223 0.5L199.847 165.266H0.5V15C0.5 6.99187 6.99187 0.5 15 0.5H228.223ZM200.269 166.266H423.395V214.5H178.068H0.5V166.266H200.269Z" fill="white" stroke="#E9E9E9"/>
<path d="M36.357 130.381H32.405L31.677 132.396H30.429L33.705 123.387H35.07L38.333 132.396H37.085L36.357 130.381ZM36.019 129.419L34.381 124.843L32.743 129.419H36.019ZM40.9438 126.598C41.1864 126.174 41.5418 125.827 42.0098 125.558C42.4778 125.29 43.0108 125.155 43.6088 125.155C44.2501 125.155 44.8264 125.307 45.3378 125.61C45.8491 125.914 46.2521 126.343 46.5468 126.897C46.8414 127.443 46.9888 128.08 46.9888 128.808C46.9888 129.528 46.8414 130.169 46.5468 130.732C46.2521 131.296 45.8448 131.733 45.3248 132.045C44.8134 132.357 44.2414 132.513 43.6088 132.513C42.9934 132.513 42.4518 132.379 41.9838 132.11C41.5244 131.842 41.1778 131.499 40.9438 131.083V132.396H39.7608V122.776H40.9438V126.598ZM45.7798 128.808C45.7798 128.271 45.6714 127.803 45.4548 127.404C45.2381 127.006 44.9434 126.702 44.5708 126.494C44.2068 126.286 43.8038 126.182 43.3618 126.182C42.9284 126.182 42.5254 126.291 42.1528 126.507C41.7888 126.715 41.4941 127.023 41.2688 127.43C41.0521 127.829 40.9438 128.293 40.9438 128.821C40.9438 129.359 41.0521 129.831 41.2688 130.238C41.4941 130.637 41.7888 130.945 42.1528 131.161C42.5254 131.369 42.9284 131.473 43.3618 131.473C43.8038 131.473 44.2068 131.369 44.5708 131.161C44.9434 130.945 45.2381 130.637 45.4548 130.238C45.6714 129.831 45.7798 129.354 45.7798 128.808ZM51.6529 132.513C50.9856 132.513 50.3789 132.362 49.8329 132.058C49.2956 131.755 48.8709 131.326 48.5589 130.771C48.2556 130.208 48.1039 129.558 48.1039 128.821C48.1039 128.093 48.2599 127.452 48.5719 126.897C48.8926 126.334 49.3259 125.905 49.8719 125.61C50.4179 125.307 51.0289 125.155 51.7049 125.155C52.3809 125.155 52.9919 125.307 53.5379 125.61C54.0839 125.905 54.5129 126.33 54.8249 126.884C55.1456 127.439 55.3059 128.085 55.3059 128.821C55.3059 129.558 55.1413 130.208 54.8119 130.771C54.4913 131.326 54.0536 131.755 53.4989 132.058C52.9443 132.362 52.3289 132.513 51.6529 132.513ZM51.6529 131.473C52.0776 131.473 52.4763 131.374 52.8489 131.174C53.2216 130.975 53.5206 130.676 53.7459 130.277C53.9799 129.879 54.0969 129.393 54.0969 128.821C54.0969 128.249 53.9843 127.764 53.7589 127.365C53.5336 126.967 53.2389 126.672 52.8749 126.481C52.5109 126.282 52.1166 126.182 51.6919 126.182C51.2586 126.182 50.8599 126.282 50.4959 126.481C50.1406 126.672 49.8546 126.967 49.6379 127.365C49.4213 127.764 49.3129 128.249 49.3129 128.821C49.3129 129.402 49.4169 129.892 49.6249 130.29C49.8416 130.689 50.1276 130.988 50.4829 131.187C50.8383 131.378 51.2283 131.473 51.6529 131.473ZM63.1794 125.272V132.396H61.9964V131.343C61.771 131.707 61.4547 131.993 61.0474 132.201C60.6487 132.401 60.2067 132.5 59.7214 132.5C59.1667 132.5 58.6684 132.388 58.2264 132.162C57.7844 131.928 57.4334 131.582 57.1734 131.122C56.922 130.663 56.7964 130.104 56.7964 129.445V125.272H57.9664V129.289C57.9664 129.991 58.144 130.533 58.4994 130.914C58.8547 131.287 59.34 131.473 59.9554 131.473C60.588 131.473 61.0864 131.278 61.4504 130.888C61.8144 130.498 61.9964 129.931 61.9964 129.185V125.272H63.1794ZM66.6198 126.247V130.446C66.6198 130.793 66.6934 131.04 66.8408 131.187C66.9881 131.326 67.2438 131.395 67.6078 131.395H68.4788V132.396H67.4128C66.7541 132.396 66.2601 132.245 65.9308 131.941C65.6014 131.638 65.4368 131.14 65.4368 130.446V126.247H64.5138V125.272H65.4368V123.478H66.6198V125.272H68.4788V126.247H66.6198ZM74.535 123.335V129.068C74.535 129.874 74.73 130.472 75.12 130.862C75.5186 131.252 76.069 131.447 76.771 131.447C77.4643 131.447 78.006 131.252 78.396 130.862C78.7946 130.472 78.994 129.874 78.994 129.068V123.335H80.177V129.055C80.177 129.809 80.0253 130.446 79.722 130.966C79.4186 131.478 79.007 131.859 78.487 132.11C77.9756 132.362 77.3993 132.487 76.758 132.487C76.1166 132.487 75.536 132.362 75.016 132.11C74.5046 131.859 74.0973 131.478 73.794 130.966C73.4993 130.446 73.352 129.809 73.352 129.055V123.335H74.535ZM84.6724 132.513C84.1264 132.513 83.6367 132.422 83.2034 132.24C82.7701 132.05 82.4277 131.79 82.1764 131.46C81.9251 131.122 81.7864 130.737 81.7604 130.303H82.9824C83.0171 130.659 83.1817 130.949 83.4764 131.174C83.7797 131.4 84.1741 131.512 84.6594 131.512C85.1101 131.512 85.4654 131.413 85.7254 131.213C85.9854 131.014 86.1154 130.763 86.1154 130.459C86.1154 130.147 85.9767 129.918 85.6994 129.77C85.4221 129.614 84.9931 129.463 84.4124 129.315C83.8837 129.177 83.4504 129.038 83.1124 128.899C82.7831 128.752 82.4971 128.54 82.2544 128.262C82.0204 127.976 81.9034 127.604 81.9034 127.144C81.9034 126.78 82.0117 126.447 82.2284 126.143C82.4451 125.84 82.7527 125.602 83.1514 125.428C83.5501 125.246 84.0051 125.155 84.5164 125.155C85.3051 125.155 85.9421 125.355 86.4274 125.753C86.9127 126.152 87.1727 126.698 87.2074 127.391H86.0244C85.9984 127.019 85.8467 126.72 85.5694 126.494C85.3007 126.269 84.9367 126.156 84.4774 126.156C84.0527 126.156 83.7147 126.247 83.4634 126.429C83.2121 126.611 83.0864 126.85 83.0864 127.144C83.0864 127.378 83.1601 127.573 83.3074 127.729C83.4634 127.877 83.6541 127.998 83.8794 128.093C84.1134 128.18 84.4341 128.28 84.8414 128.392C85.3527 128.531 85.7687 128.67 86.0894 128.808C86.4101 128.938 86.6831 129.138 86.9084 129.406C87.1424 129.675 87.2637 130.026 87.2724 130.459C87.2724 130.849 87.1641 131.2 86.9474 131.512C86.7307 131.824 86.4231 132.071 86.0244 132.253C85.6344 132.427 85.1837 132.513 84.6724 132.513Z" fill="#74788D"/>
<path d="M37.293 102.656C37.293 103.115 37.1847 103.549 36.968 103.956C36.7513 104.363 36.4047 104.697 35.928 104.957C35.4513 105.208 34.8403 105.334 34.095 105.334H32.457V109H30.975V99.965H34.095C34.7883 99.965 35.3733 100.086 35.85 100.329C36.3353 100.563 36.695 100.884 36.929 101.291C37.1717 101.698 37.293 102.153 37.293 102.656ZM34.095 104.125C34.6583 104.125 35.0787 103.999 35.356 103.748C35.6333 103.488 35.772 103.124 35.772 102.656C35.772 101.668 35.213 101.174 34.095 101.174H32.457V104.125H34.095ZM38.2124 105.386C38.2124 104.667 38.3598 104.03 38.6544 103.475C38.9578 102.92 39.3651 102.491 39.8764 102.188C40.3964 101.876 40.9684 101.72 41.5924 101.72C42.1558 101.72 42.6454 101.833 43.0614 102.058C43.4861 102.275 43.8241 102.548 44.0754 102.877V101.837H45.5704V109H44.0754V107.934C43.8241 108.272 43.4818 108.554 43.0484 108.779C42.6151 109.004 42.1211 109.117 41.5664 109.117C40.9511 109.117 40.3878 108.961 39.8764 108.649C39.3651 108.328 38.9578 107.886 38.6544 107.323C38.3598 106.751 38.2124 106.105 38.2124 105.386ZM44.0754 105.412C44.0754 104.918 43.9714 104.489 43.7634 104.125C43.5641 103.761 43.2998 103.484 42.9704 103.293C42.6411 103.102 42.2858 103.007 41.9044 103.007C41.5231 103.007 41.1678 103.102 40.8384 103.293C40.5091 103.475 40.2404 103.748 40.0324 104.112C39.8331 104.467 39.7334 104.892 39.7334 105.386C39.7334 105.88 39.8331 106.313 40.0324 106.686C40.2404 107.059 40.5091 107.345 40.8384 107.544C41.1764 107.735 41.5318 107.83 41.9044 107.83C42.2858 107.83 42.6411 107.735 42.9704 107.544C43.2998 107.353 43.5641 107.076 43.7634 106.712C43.9714 106.339 44.0754 105.906 44.0754 105.412ZM50.403 101.72C50.9577 101.72 51.4473 101.833 51.872 102.058C52.3053 102.275 52.6433 102.548 52.886 102.877V101.837H54.381V109.117C54.381 109.776 54.2423 110.361 53.965 110.872C53.6877 111.392 53.2847 111.799 52.756 112.094C52.236 112.389 51.612 112.536 50.884 112.536C49.9133 112.536 49.1073 112.306 48.466 111.847C47.8247 111.396 47.4607 110.781 47.374 110.001H48.843C48.9557 110.374 49.194 110.673 49.558 110.898C49.9307 111.132 50.3727 111.249 50.884 111.249C51.482 111.249 51.963 111.067 52.327 110.703C52.6997 110.339 52.886 109.81 52.886 109.117V107.921C52.6347 108.259 52.2923 108.545 51.859 108.779C51.4343 109.004 50.949 109.117 50.403 109.117C49.779 109.117 49.207 108.961 48.687 108.649C48.1757 108.328 47.7683 107.886 47.465 107.323C47.1703 106.751 47.023 106.105 47.023 105.386C47.023 104.667 47.1703 104.03 47.465 103.475C47.7683 102.92 48.1757 102.491 48.687 102.188C49.207 101.876 49.779 101.72 50.403 101.72ZM52.886 105.412C52.886 104.918 52.782 104.489 52.574 104.125C52.3747 103.761 52.1103 103.484 51.781 103.293C51.4517 103.102 51.0963 103.007 50.715 103.007C50.3337 103.007 49.9783 103.102 49.649 103.293C49.3197 103.475 49.051 103.748 48.843 104.112C48.6437 104.467 48.544 104.892 48.544 105.386C48.544 105.88 48.6437 106.313 48.843 106.686C49.051 107.059 49.3197 107.345 49.649 107.544C49.987 107.735 50.3423 107.83 50.715 107.83C51.0963 107.83 51.4517 107.735 51.781 107.544C52.1103 107.353 52.3747 107.076 52.574 106.712C52.782 106.339 52.886 105.906 52.886 105.412ZM62.8925 105.243C62.8925 105.512 62.8752 105.754 62.8405 105.971H57.3675C57.4109 106.543 57.6232 107.002 58.0045 107.349C58.3859 107.696 58.8539 107.869 59.4085 107.869C60.2059 107.869 60.7692 107.535 61.0985 106.868H62.6975C62.4809 107.527 62.0865 108.068 61.5145 108.493C60.9512 108.909 60.2492 109.117 59.4085 109.117C58.7239 109.117 58.1085 108.965 57.5625 108.662C57.0252 108.35 56.6005 107.917 56.2885 107.362C55.9852 106.799 55.8335 106.149 55.8335 105.412C55.8335 104.675 55.9809 104.03 56.2755 103.475C56.5789 102.912 56.9992 102.478 57.5365 102.175C58.0825 101.872 58.7065 101.72 59.4085 101.72C60.0845 101.72 60.6869 101.867 61.2155 102.162C61.7442 102.457 62.1559 102.873 62.4505 103.41C62.7452 103.939 62.8925 104.55 62.8925 105.243ZM61.3455 104.775C61.3369 104.229 61.1419 103.791 60.7605 103.462C60.3792 103.133 59.9069 102.968 59.3435 102.968C58.8322 102.968 58.3945 103.133 58.0305 103.462C57.6665 103.783 57.4499 104.22 57.3805 104.775H61.3455Z" fill="#495057"/>
<path d="M32.184 194.434H35.356V195.396H31.001V186.335H32.184V194.434ZM36.1703 191.808C36.1703 191.08 36.3177 190.443 36.6123 189.897C36.907 189.343 37.31 188.914 37.8213 188.61C38.3413 188.307 38.9177 188.155 39.5503 188.155C40.1743 188.155 40.716 188.29 41.1753 188.558C41.6347 188.827 41.977 189.165 42.2023 189.572V188.272H43.3983V195.396H42.2023V194.07C41.9683 194.486 41.6173 194.833 41.1493 195.11C40.69 195.379 40.1527 195.513 39.5373 195.513C38.9047 195.513 38.3327 195.357 37.8213 195.045C37.31 194.733 36.907 194.296 36.6123 193.732C36.3177 193.169 36.1703 192.528 36.1703 191.808ZM42.2023 191.821C42.2023 191.284 42.094 190.816 41.8773 190.417C41.6607 190.019 41.366 189.715 40.9933 189.507C40.6293 189.291 40.2263 189.182 39.7843 189.182C39.3423 189.182 38.9393 189.286 38.5753 189.494C38.2113 189.702 37.921 190.006 37.7043 190.404C37.4877 190.803 37.3793 191.271 37.3793 191.808C37.3793 192.354 37.4877 192.831 37.7043 193.238C37.921 193.637 38.2113 193.945 38.5753 194.161C38.9393 194.369 39.3423 194.473 39.7843 194.473C40.2263 194.473 40.6293 194.369 40.9933 194.161C41.366 193.945 41.6607 193.637 41.8773 193.238C42.094 192.831 42.2023 192.359 42.2023 191.821ZM47.9195 195.513C47.3735 195.513 46.8838 195.422 46.4505 195.24C46.0172 195.05 45.6748 194.79 45.4235 194.46C45.1722 194.122 45.0335 193.737 45.0075 193.303H46.2295C46.2642 193.659 46.4288 193.949 46.7235 194.174C47.0268 194.4 47.4212 194.512 47.9065 194.512C48.3572 194.512 48.7125 194.413 48.9725 194.213C49.2325 194.014 49.3625 193.763 49.3625 193.459C49.3625 193.147 49.2238 192.918 48.9465 192.77C48.6692 192.614 48.2402 192.463 47.6595 192.315C47.1308 192.177 46.6975 192.038 46.3595 191.899C46.0302 191.752 45.7442 191.54 45.5015 191.262C45.2675 190.976 45.1505 190.604 45.1505 190.144C45.1505 189.78 45.2588 189.447 45.4755 189.143C45.6922 188.84 45.9998 188.602 46.3985 188.428C46.7972 188.246 47.2522 188.155 47.7635 188.155C48.5522 188.155 49.1892 188.355 49.6745 188.753C50.1598 189.152 50.4198 189.698 50.4545 190.391H49.2715C49.2455 190.019 49.0938 189.72 48.8165 189.494C48.5478 189.269 48.1838 189.156 47.7245 189.156C47.2998 189.156 46.9618 189.247 46.7105 189.429C46.4592 189.611 46.3335 189.85 46.3335 190.144C46.3335 190.378 46.4072 190.573 46.5545 190.729C46.7105 190.877 46.9012 190.998 47.1265 191.093C47.3605 191.18 47.6812 191.28 48.0885 191.392C48.5998 191.531 49.0158 191.67 49.3365 191.808C49.6572 191.938 49.9302 192.138 50.1555 192.406C50.3895 192.675 50.5108 193.026 50.5195 193.459C50.5195 193.849 50.4112 194.2 50.1945 194.512C49.9778 194.824 49.6702 195.071 49.2715 195.253C48.8815 195.427 48.4308 195.513 47.9195 195.513ZM53.6325 189.247V193.446C53.6325 193.793 53.7061 194.04 53.8535 194.187C54.0008 194.326 54.2565 194.395 54.6205 194.395H55.4915V195.396H54.4255C53.7668 195.396 53.2728 195.245 52.9435 194.941C52.6141 194.638 52.4495 194.14 52.4495 193.446V189.247H51.5265V188.272H52.4495V186.478H53.6325V188.272H55.4915V189.247H53.6325ZM59.9486 190.859C59.9486 189.975 60.148 189.182 60.5466 188.48C60.9453 187.77 61.487 187.215 62.1716 186.816C62.865 186.418 63.632 186.218 64.4726 186.218C65.4606 186.218 66.323 186.457 67.0596 186.933C67.7963 187.41 68.3336 188.086 68.6716 188.961H67.2546C67.0033 188.415 66.6393 187.995 66.1626 187.7C65.6946 187.406 65.1313 187.258 64.4726 187.258C63.84 187.258 63.2723 187.406 62.7696 187.7C62.267 187.995 61.8726 188.415 61.5866 188.961C61.3006 189.499 61.1576 190.131 61.1576 190.859C61.1576 191.579 61.3006 192.211 61.5866 192.757C61.8726 193.295 62.267 193.711 62.7696 194.005C63.2723 194.3 63.84 194.447 64.4726 194.447C65.1313 194.447 65.6946 194.304 66.1626 194.018C66.6393 193.724 67.0033 193.303 67.2546 192.757H68.6716C68.3336 193.624 67.7963 194.296 67.0596 194.772C66.323 195.24 65.4606 195.474 64.4726 195.474C63.632 195.474 62.865 195.279 62.1716 194.889C61.487 194.491 60.9453 193.94 60.5466 193.238C60.148 192.536 59.9486 191.743 59.9486 190.859ZM69.9906 191.808C69.9906 191.08 70.138 190.443 70.4326 189.897C70.7273 189.343 71.1303 188.914 71.6416 188.61C72.1616 188.307 72.738 188.155 73.3706 188.155C73.9946 188.155 74.5363 188.29 74.9956 188.558C75.455 188.827 75.7973 189.165 76.0226 189.572V188.272H77.2186V195.396H76.0226V194.07C75.7886 194.486 75.4376 194.833 74.9696 195.11C74.5103 195.379 73.973 195.513 73.3576 195.513C72.725 195.513 72.153 195.357 71.6416 195.045C71.1303 194.733 70.7273 194.296 70.4326 193.732C70.138 193.169 69.9906 192.528 69.9906 191.808ZM76.0226 191.821C76.0226 191.284 75.9143 190.816 75.6976 190.417C75.481 190.019 75.1863 189.715 74.8136 189.507C74.4496 189.291 74.0466 189.182 73.6046 189.182C73.1626 189.182 72.7596 189.286 72.3956 189.494C72.0316 189.702 71.7413 190.006 71.5246 190.404C71.308 190.803 71.1996 191.271 71.1996 191.808C71.1996 192.354 71.308 192.831 71.5246 193.238C71.7413 193.637 72.0316 193.945 72.3956 194.161C72.7596 194.369 73.1626 194.473 73.6046 194.473C74.0466 194.473 74.4496 194.369 74.8136 194.161C75.1863 193.945 75.481 193.637 75.6976 193.238C75.9143 192.831 76.0226 192.359 76.0226 191.821ZM87.7848 188.142C88.3395 188.142 88.8335 188.259 89.2668 188.493C89.7001 188.719 90.0425 189.061 90.2938 189.52C90.5451 189.98 90.6708 190.539 90.6708 191.197V195.396H89.5008V191.366C89.5008 190.656 89.3231 190.114 88.9678 189.741C88.6211 189.36 88.1488 189.169 87.5508 189.169C86.9355 189.169 86.4458 189.369 86.0818 189.767C85.7178 190.157 85.5358 190.725 85.5358 191.47V195.396H84.3658V191.366C84.3658 190.656 84.1881 190.114 83.8328 189.741C83.4861 189.36 83.0138 189.169 82.4158 189.169C81.8005 189.169 81.3108 189.369 80.9468 189.767C80.5828 190.157 80.4008 190.725 80.4008 191.47V195.396H79.2178V188.272H80.4008V189.299C80.6348 188.927 80.9468 188.641 81.3368 188.441C81.7355 188.242 82.1731 188.142 82.6498 188.142C83.2478 188.142 83.7765 188.277 84.2358 188.545C84.6951 188.814 85.0375 189.208 85.2628 189.728C85.4621 189.226 85.7915 188.836 86.2508 188.558C86.7101 188.281 87.2215 188.142 87.7848 188.142ZM93.7944 189.585C94.0284 189.178 94.375 188.84 94.8344 188.571C95.3024 188.294 95.844 188.155 96.4594 188.155C97.092 188.155 97.664 188.307 98.1754 188.61C98.6954 188.914 99.1027 189.343 99.3974 189.897C99.692 190.443 99.8394 191.08 99.8394 191.808C99.8394 192.528 99.692 193.169 99.3974 193.732C99.1027 194.296 98.6954 194.733 98.1754 195.045C97.664 195.357 97.092 195.513 96.4594 195.513C95.8527 195.513 95.3154 195.379 94.8474 195.11C94.388 194.833 94.037 194.491 93.7944 194.083V198.776H92.6114V188.272H93.7944V189.585ZM98.6304 191.808C98.6304 191.271 98.522 190.803 98.3054 190.404C98.0887 190.006 97.794 189.702 97.4214 189.494C97.0574 189.286 96.6544 189.182 96.2124 189.182C95.779 189.182 95.376 189.291 95.0034 189.507C94.6394 189.715 94.3447 190.023 94.1194 190.43C93.9027 190.829 93.7944 191.293 93.7944 191.821C93.7944 192.359 93.9027 192.831 94.1194 193.238C94.3447 193.637 94.6394 193.945 95.0034 194.161C95.376 194.369 95.779 194.473 96.2124 194.473C96.6544 194.473 97.0574 194.369 97.4214 194.161C97.794 193.945 98.0887 193.637 98.3054 193.238C98.522 192.831 98.6304 192.354 98.6304 191.808ZM100.955 191.808C100.955 191.08 101.102 190.443 101.397 189.897C101.691 189.343 102.094 188.914 102.606 188.61C103.126 188.307 103.702 188.155 104.335 188.155C104.959 188.155 105.5 188.29 105.96 188.558C106.419 188.827 106.761 189.165 106.987 189.572V188.272H108.183V195.396H106.987V194.07C106.753 194.486 106.402 194.833 105.934 195.11C105.474 195.379 104.937 195.513 104.322 195.513C103.689 195.513 103.117 195.357 102.606 195.045C102.094 194.733 101.691 194.296 101.397 193.732C101.102 193.169 100.955 192.528 100.955 191.808ZM106.987 191.821C106.987 191.284 106.878 190.816 106.662 190.417C106.445 190.019 106.15 189.715 105.778 189.507C105.414 189.291 105.011 189.182 104.569 189.182C104.127 189.182 103.724 189.286 103.36 189.494C102.996 189.702 102.705 190.006 102.489 190.404C102.272 190.803 102.164 191.271 102.164 191.808C102.164 192.354 102.272 192.831 102.489 193.238C102.705 193.637 102.996 193.945 103.36 194.161C103.724 194.369 104.127 194.473 104.569 194.473C105.011 194.473 105.414 194.369 105.778 194.161C106.15 193.945 106.445 193.637 106.662 193.238C106.878 192.831 106.987 192.359 106.987 191.821ZM111.365 189.429C111.573 189.022 111.867 188.706 112.249 188.48C112.639 188.255 113.111 188.142 113.666 188.142V189.364H113.354C112.028 189.364 111.365 190.084 111.365 191.522V195.396H110.182V188.272H111.365V189.429ZM121.531 191.561C121.531 191.787 121.518 192.025 121.492 192.276H115.798C115.842 192.978 116.08 193.529 116.513 193.927C116.955 194.317 117.488 194.512 118.112 194.512C118.624 194.512 119.048 194.395 119.386 194.161C119.733 193.919 119.976 193.598 120.114 193.199H121.388C121.198 193.884 120.816 194.443 120.244 194.876C119.672 195.301 118.962 195.513 118.112 195.513C117.436 195.513 116.83 195.362 116.292 195.058C115.764 194.755 115.348 194.326 115.044 193.771C114.741 193.208 114.589 192.558 114.589 191.821C114.589 191.085 114.737 190.439 115.031 189.884C115.326 189.33 115.738 188.905 116.266 188.61C116.804 188.307 117.419 188.155 118.112 188.155C118.788 188.155 119.386 188.303 119.906 188.597C120.426 188.892 120.825 189.299 121.102 189.819C121.388 190.331 121.531 190.911 121.531 191.561ZM120.309 191.314C120.309 190.864 120.21 190.478 120.01 190.157C119.811 189.828 119.538 189.581 119.191 189.416C118.853 189.243 118.476 189.156 118.06 189.156C117.462 189.156 116.951 189.347 116.526 189.728C116.11 190.11 115.872 190.638 115.811 191.314H120.309ZM129.38 186.335C130.368 186.335 131.221 186.522 131.941 186.894C132.669 187.258 133.223 187.783 133.605 188.467C133.995 189.152 134.19 189.958 134.19 190.885C134.19 191.813 133.995 192.619 133.605 193.303C133.223 193.979 132.669 194.499 131.941 194.863C131.221 195.219 130.368 195.396 129.38 195.396H126.559V186.335H129.38ZM129.38 194.421C130.55 194.421 131.442 194.114 132.058 193.498C132.673 192.874 132.981 192.003 132.981 190.885C132.981 189.759 132.669 188.879 132.045 188.246C131.429 187.614 130.541 187.297 129.38 187.297H127.742V194.421H129.38ZM135.308 191.808C135.308 191.08 135.455 190.443 135.75 189.897C136.045 189.343 136.448 188.914 136.959 188.61C137.479 188.307 138.055 188.155 138.688 188.155C139.312 188.155 139.854 188.29 140.313 188.558C140.772 188.827 141.115 189.165 141.34 189.572V188.272H142.536V195.396H141.34V194.07C141.106 194.486 140.755 194.833 140.287 195.11C139.828 195.379 139.29 195.513 138.675 195.513C138.042 195.513 137.47 195.357 136.959 195.045C136.448 194.733 136.045 194.296 135.75 193.732C135.455 193.169 135.308 192.528 135.308 191.808ZM141.34 191.821C141.34 191.284 141.232 190.816 141.015 190.417C140.798 190.019 140.504 189.715 140.131 189.507C139.767 189.291 139.364 189.182 138.922 189.182C138.48 189.182 138.077 189.286 137.713 189.494C137.349 189.702 137.059 190.006 136.842 190.404C136.625 190.803 136.517 191.271 136.517 191.808C136.517 192.354 136.625 192.831 136.842 193.238C137.059 193.637 137.349 193.945 137.713 194.161C138.077 194.369 138.48 194.473 138.922 194.473C139.364 194.473 139.767 194.369 140.131 194.161C140.504 193.945 140.798 193.637 141.015 193.238C141.232 192.831 141.34 192.359 141.34 191.821ZM145.978 189.247V193.446C145.978 193.793 146.052 194.04 146.199 194.187C146.347 194.326 146.602 194.395 146.966 194.395H147.837V195.396H146.771C146.113 195.396 145.619 195.245 145.289 194.941C144.96 194.638 144.795 194.14 144.795 193.446V189.247H143.872V188.272H144.795V186.478H145.978V188.272H147.837V189.247H145.978ZM155.771 191.561C155.771 191.787 155.758 192.025 155.732 192.276H150.038C150.081 192.978 150.319 193.529 150.753 193.927C151.195 194.317 151.728 194.512 152.352 194.512C152.863 194.512 153.288 194.395 153.626 194.161C153.972 193.919 154.215 193.598 154.354 193.199H155.628C155.437 193.884 155.056 194.443 154.484 194.876C153.912 195.301 153.201 195.513 152.352 195.513C151.676 195.513 151.069 195.362 150.532 195.058C150.003 194.755 149.587 194.326 149.284 193.771C148.98 193.208 148.829 192.558 148.829 191.821C148.829 191.085 148.976 190.439 149.271 189.884C149.565 189.33 149.977 188.905 150.506 188.61C151.043 188.307 151.658 188.155 152.352 188.155C153.028 188.155 153.626 188.303 154.146 188.597C154.666 188.892 155.064 189.299 155.342 189.819C155.628 190.331 155.771 190.911 155.771 191.561ZM154.549 191.314C154.549 190.864 154.449 190.478 154.25 190.157C154.05 189.828 153.777 189.581 153.431 189.416C153.093 189.243 152.716 189.156 152.3 189.156C151.702 189.156 151.19 189.347 150.766 189.728C150.35 190.11 150.111 190.638 150.051 191.314H154.549ZM161.175 195.474C160.95 195.474 160.759 195.396 160.603 195.24C160.447 195.084 160.369 194.894 160.369 194.668C160.369 194.443 160.447 194.252 160.603 194.096C160.759 193.94 160.95 193.862 161.175 193.862C161.392 193.862 161.574 193.94 161.721 194.096C161.877 194.252 161.955 194.443 161.955 194.668C161.955 194.894 161.877 195.084 161.721 195.24C161.574 195.396 161.392 195.474 161.175 195.474ZM161.175 189.91C160.95 189.91 160.759 189.832 160.603 189.676C160.447 189.52 160.369 189.33 160.369 189.104C160.369 188.879 160.447 188.688 160.603 188.532C160.759 188.376 160.95 188.298 161.175 188.298C161.392 188.298 161.574 188.376 161.721 188.532C161.877 188.688 161.955 188.879 161.955 189.104C161.955 189.33 161.877 189.52 161.721 189.676C161.574 189.832 161.392 189.91 161.175 189.91Z" fill="#74788D"/>
<path d="M37.514 37.734C37.514 38.2193 37.397 38.6743 37.163 39.099C36.9377 39.5237 36.578 39.866 36.084 40.126C35.5987 40.386 34.9833 40.516 34.238 40.516H32.717V44H30.897V34.926H34.238C34.94 34.926 35.538 35.0473 36.032 35.29C36.526 35.5327 36.8943 35.8663 37.137 36.291C37.3883 36.7157 37.514 37.1967 37.514 37.734ZM34.16 39.047C34.6627 39.047 35.0353 38.9343 35.278 38.709C35.5207 38.475 35.642 38.15 35.642 37.734C35.642 36.85 35.148 36.408 34.16 36.408H32.717V39.047H34.16ZM42.0042 44.117C41.3108 44.117 40.6868 43.9653 40.1322 43.662C39.5775 43.35 39.1398 42.9123 38.8192 42.349C38.5072 41.7857 38.3512 41.1357 38.3512 40.399C38.3512 39.6623 38.5115 39.0123 38.8322 38.449C39.1615 37.8857 39.6078 37.4523 40.1712 37.149C40.7345 36.837 41.3628 36.681 42.0562 36.681C42.7495 36.681 43.3778 36.837 43.9412 37.149C44.5045 37.4523 44.9465 37.8857 45.2672 38.449C45.5965 39.0123 45.7612 39.6623 45.7612 40.399C45.7612 41.1357 45.5922 41.7857 45.2542 42.349C44.9248 42.9123 44.4742 43.35 43.9022 43.662C43.3388 43.9653 42.7062 44.117 42.0042 44.117ZM42.0042 42.531C42.3335 42.531 42.6412 42.453 42.9272 42.297C43.2218 42.1323 43.4558 41.8897 43.6292 41.569C43.8025 41.2483 43.8892 40.8583 43.8892 40.399C43.8892 39.7143 43.7072 39.19 43.3432 38.826C42.9878 38.4533 42.5502 38.267 42.0302 38.267C41.5102 38.267 41.0725 38.4533 40.7172 38.826C40.3705 39.19 40.1972 39.7143 40.1972 40.399C40.1972 41.0837 40.3662 41.6123 40.7042 41.985C41.0508 42.349 41.4842 42.531 42.0042 42.531ZM48.9162 37.916C49.1502 37.5347 49.4536 37.2357 49.8262 37.019C50.2076 36.8023 50.6409 36.694 51.1262 36.694V38.605H50.6452C50.0732 38.605 49.6399 38.7393 49.3452 39.008C49.0592 39.2767 48.9162 39.7447 48.9162 40.412V44H47.0962V36.798H48.9162V37.916ZM54.4711 38.293V41.777C54.4711 42.0197 54.5274 42.1973 54.6401 42.31C54.7614 42.414 54.9607 42.466 55.2381 42.466H56.0831V44H54.9391C53.4051 44 52.6381 43.2547 52.6381 41.764V38.293H51.7801V36.798H52.6381V35.017H54.4711V36.798H56.0831V38.293H54.4711ZM60.6941 38.293H59.4331V44H57.5871V38.293H56.7681V36.798H57.5871V36.434C57.5871 35.55 57.8385 34.9 58.3411 34.484C58.8438 34.068 59.6021 33.873 60.6161 33.899V35.433C60.1741 35.4243 59.8665 35.498 59.6931 35.654C59.5198 35.81 59.4331 36.0917 59.4331 36.499V36.798H60.6941V38.293ZM65.0716 44.117C64.3782 44.117 63.7542 43.9653 63.1996 43.662C62.6449 43.35 62.2072 42.9123 61.8866 42.349C61.5746 41.7857 61.4186 41.1357 61.4186 40.399C61.4186 39.6623 61.5789 39.0123 61.8996 38.449C62.2289 37.8857 62.6752 37.4523 63.2386 37.149C63.8019 36.837 64.4302 36.681 65.1236 36.681C65.8169 36.681 66.4452 36.837 67.0086 37.149C67.5719 37.4523 68.0139 37.8857 68.3346 38.449C68.6639 39.0123 68.8286 39.6623 68.8286 40.399C68.8286 41.1357 68.6596 41.7857 68.3216 42.349C67.9922 42.9123 67.5416 43.35 66.9696 43.662C66.4062 43.9653 65.7736 44.117 65.0716 44.117ZM65.0716 42.531C65.4009 42.531 65.7086 42.453 65.9946 42.297C66.2892 42.1323 66.5232 41.8897 66.6966 41.569C66.8699 41.2483 66.9566 40.8583 66.9566 40.399C66.9566 39.7143 66.7746 39.19 66.4106 38.826C66.0552 38.4533 65.6176 38.267 65.0976 38.267C64.5776 38.267 64.1399 38.4533 63.7846 38.826C63.4379 39.19 63.2646 39.7143 63.2646 40.399C63.2646 41.0837 63.4336 41.6123 63.7716 41.985C64.1182 42.349 64.5516 42.531 65.0716 42.531ZM71.9836 34.38V44H70.1636V34.38H71.9836ZM74.7048 35.94C74.3841 35.94 74.1154 35.8403 73.8988 35.641C73.6908 35.433 73.5868 35.1773 73.5868 34.874C73.5868 34.5707 73.6908 34.3193 73.8988 34.12C74.1154 33.912 74.3841 33.808 74.7048 33.808C75.0254 33.808 75.2898 33.912 75.4978 34.12C75.7144 34.3193 75.8228 34.5707 75.8228 34.874C75.8228 35.1773 75.7144 35.433 75.4978 35.641C75.2898 35.8403 75.0254 35.94 74.7048 35.94ZM75.6018 36.798V44H73.7818V36.798H75.6018ZM80.5979 44.117C79.9046 44.117 79.2806 43.9653 78.7259 43.662C78.1713 43.35 77.7336 42.9123 77.4129 42.349C77.1009 41.7857 76.9449 41.1357 76.9449 40.399C76.9449 39.6623 77.1053 39.0123 77.4259 38.449C77.7553 37.8857 78.2016 37.4523 78.7649 37.149C79.3283 36.837 79.9566 36.681 80.6499 36.681C81.3433 36.681 81.9716 36.837 82.5349 37.149C83.0983 37.4523 83.5403 37.8857 83.8609 38.449C84.1903 39.0123 84.3549 39.6623 84.3549 40.399C84.3549 41.1357 84.1859 41.7857 83.8479 42.349C83.5186 42.9123 83.0679 43.35 82.4959 43.662C81.9326 43.9653 81.2999 44.117 80.5979 44.117ZM80.5979 42.531C80.9273 42.531 81.2349 42.453 81.5209 42.297C81.8156 42.1323 82.0496 41.8897 82.2229 41.569C82.3963 41.2483 82.4829 40.8583 82.4829 40.399C82.4829 39.7143 82.3009 39.19 81.9369 38.826C81.5816 38.4533 81.1439 38.267 80.6239 38.267C80.1039 38.267 79.6663 38.4533 79.3109 38.826C78.9643 39.19 78.7909 39.7143 78.7909 40.399C78.7909 41.0837 78.9599 41.6123 79.2979 41.985C79.6446 42.349 80.0779 42.531 80.5979 42.531Z" fill="#556EE6"/>
<path d="M173.522 190.112C173.037 189.921 172.664 189.644 172.404 189.28C172.144 188.916 172.014 188.474 172.014 187.954C172.014 187.486 172.131 187.066 172.365 186.693C172.599 186.312 172.946 186.013 173.405 185.796C173.873 185.571 174.436 185.458 175.095 185.458C175.754 185.458 176.313 185.571 176.772 185.796C177.24 186.013 177.591 186.312 177.825 186.693C178.068 187.066 178.189 187.486 178.189 187.954C178.189 188.457 178.055 188.899 177.786 189.28C177.517 189.653 177.149 189.93 176.681 190.112C177.218 190.277 177.643 190.567 177.955 190.983C178.276 191.39 178.436 191.884 178.436 192.465C178.436 193.028 178.297 193.522 178.02 193.947C177.743 194.363 177.348 194.688 176.837 194.922C176.334 195.147 175.754 195.26 175.095 195.26C174.436 195.26 173.856 195.147 173.353 194.922C172.859 194.688 172.473 194.363 172.196 193.947C171.919 193.522 171.78 193.028 171.78 192.465C171.78 191.884 171.936 191.386 172.248 190.97C172.56 190.554 172.985 190.268 173.522 190.112ZM177.045 188.097C177.045 187.568 176.872 187.161 176.525 186.875C176.178 186.589 175.702 186.446 175.095 186.446C174.497 186.446 174.025 186.589 173.678 186.875C173.331 187.161 173.158 187.573 173.158 188.11C173.158 188.595 173.336 188.985 173.691 189.28C174.055 189.575 174.523 189.722 175.095 189.722C175.676 189.722 176.144 189.575 176.499 189.28C176.863 188.977 177.045 188.582 177.045 188.097ZM175.095 190.632C174.454 190.632 173.929 190.784 173.522 191.087C173.115 191.382 172.911 191.828 172.911 192.426C172.911 192.981 173.106 193.427 173.496 193.765C173.895 194.103 174.428 194.272 175.095 194.272C175.762 194.272 176.291 194.103 176.681 193.765C177.071 193.427 177.266 192.981 177.266 192.426C177.266 191.845 177.067 191.403 176.668 191.1C176.269 190.788 175.745 190.632 175.095 190.632ZM188.231 185.939V192.634C188.231 193.379 188.001 193.977 187.542 194.428C187.083 194.87 186.476 195.091 185.722 195.091C184.959 195.091 184.348 194.866 183.889 194.415C183.43 193.956 183.2 193.332 183.2 192.543H184.383C184.392 192.985 184.504 193.345 184.721 193.622C184.946 193.899 185.28 194.038 185.722 194.038C186.164 194.038 186.493 193.908 186.71 193.648C186.927 193.379 187.035 193.041 187.035 192.634V185.939H188.231ZM196.88 187.876V195H195.697V193.947C195.471 194.311 195.155 194.597 194.748 194.805C194.349 195.004 193.907 195.104 193.422 195.104C192.867 195.104 192.369 194.991 191.927 194.766C191.485 194.532 191.134 194.185 190.874 193.726C190.622 193.267 190.497 192.708 190.497 192.049V187.876H191.667V191.893C191.667 192.595 191.844 193.137 192.2 193.518C192.555 193.891 193.04 194.077 193.656 194.077C194.288 194.077 194.787 193.882 195.151 193.492C195.515 193.102 195.697 192.534 195.697 191.789V187.876H196.88ZM200.06 185.38V195H198.877V185.38H200.06ZM205.204 194.051C206.305 193.167 207.167 192.443 207.791 191.88C208.415 191.308 208.939 190.714 209.364 190.099C209.797 189.475 210.014 188.864 210.014 188.266C210.014 187.703 209.875 187.261 209.598 186.94C209.329 186.611 208.892 186.446 208.285 186.446C207.696 186.446 207.236 186.632 206.907 187.005C206.586 187.369 206.413 187.859 206.387 188.474H205.243C205.278 187.503 205.572 186.754 206.127 186.225C206.682 185.696 207.397 185.432 208.272 185.432C209.165 185.432 209.871 185.679 210.391 186.173C210.92 186.667 211.184 187.347 211.184 188.214C211.184 188.933 210.967 189.635 210.534 190.32C210.109 190.996 209.624 191.594 209.078 192.114C208.532 192.625 207.834 193.223 206.985 193.908H211.457V194.896H205.204V194.051ZM212.825 190.203C212.825 188.712 213.067 187.551 213.553 186.719C214.038 185.878 214.887 185.458 216.101 185.458C217.305 185.458 218.15 185.878 218.636 186.719C219.121 187.551 219.364 188.712 219.364 190.203C219.364 191.72 219.121 192.898 218.636 193.739C218.15 194.58 217.305 195 216.101 195C214.887 195 214.038 194.58 213.553 193.739C213.067 192.898 212.825 191.72 212.825 190.203ZM218.194 190.203C218.194 189.449 218.142 188.812 218.038 188.292C217.942 187.763 217.739 187.339 217.427 187.018C217.123 186.697 216.681 186.537 216.101 186.537C215.511 186.537 215.061 186.697 214.749 187.018C214.445 187.339 214.242 187.763 214.138 188.292C214.042 188.812 213.995 189.449 213.995 190.203C213.995 190.983 214.042 191.637 214.138 192.166C214.242 192.695 214.445 193.119 214.749 193.44C215.061 193.761 215.511 193.921 216.101 193.921C216.681 193.921 217.123 193.761 217.427 193.44C217.739 193.119 217.942 192.695 218.038 192.166C218.142 191.637 218.194 190.983 218.194 190.203ZM220.676 186.68V185.601H223.12V195H221.924V186.68H220.676ZM226.868 190.112C226.382 189.921 226.01 189.644 225.75 189.28C225.49 188.916 225.36 188.474 225.36 187.954C225.36 187.486 225.477 187.066 225.711 186.693C225.945 186.312 226.291 186.013 226.751 185.796C227.219 185.571 227.782 185.458 228.441 185.458C229.099 185.458 229.658 185.571 230.118 185.796C230.586 186.013 230.937 186.312 231.171 186.693C231.413 187.066 231.535 187.486 231.535 187.954C231.535 188.457 231.4 188.899 231.132 189.28C230.863 189.653 230.495 189.93 230.027 190.112C230.564 190.277 230.989 190.567 231.301 190.983C231.621 191.39 231.782 191.884 231.782 192.465C231.782 193.028 231.643 193.522 231.366 193.947C231.088 194.363 230.694 194.688 230.183 194.922C229.68 195.147 229.099 195.26 228.441 195.26C227.782 195.26 227.201 195.147 226.699 194.922C226.205 194.688 225.819 194.363 225.542 193.947C225.264 193.522 225.126 193.028 225.126 192.465C225.126 191.884 225.282 191.386 225.594 190.97C225.906 190.554 226.33 190.268 226.868 190.112ZM230.391 188.097C230.391 187.568 230.217 187.161 229.871 186.875C229.524 186.589 229.047 186.446 228.441 186.446C227.843 186.446 227.37 186.589 227.024 186.875C226.677 187.161 226.504 187.573 226.504 188.11C226.504 188.595 226.681 188.985 227.037 189.28C227.401 189.575 227.869 189.722 228.441 189.722C229.021 189.722 229.489 189.575 229.845 189.28C230.209 188.977 230.391 188.582 230.391 188.097ZM228.441 190.632C227.799 190.632 227.275 190.784 226.868 191.087C226.46 191.382 226.257 191.828 226.257 192.426C226.257 192.981 226.452 193.427 226.842 193.765C227.24 194.103 227.773 194.272 228.441 194.272C229.108 194.272 229.637 194.103 230.027 193.765C230.417 193.427 230.612 192.981 230.612 192.426C230.612 191.845 230.412 191.403 230.014 191.1C229.615 190.788 229.091 190.632 228.441 190.632Z" fill="#556EE6"/>
<path d="M40.404 60.324C40.404 60.996 40.242 61.626 39.918 62.214C39.606 62.802 39.108 63.276 38.424 63.636C37.752 63.996 36.9 64.176 35.868 64.176H33.762V69H31.242V56.436H35.868C36.84 56.436 37.668 56.604 38.352 56.94C39.036 57.276 39.546 57.738 39.882 58.326C40.23 58.914 40.404 59.58 40.404 60.324ZM35.76 62.142C36.456 62.142 36.972 61.986 37.308 61.674C37.644 61.35 37.812 60.9 37.812 60.324C37.812 59.1 37.128 58.488 35.76 58.488H33.762V62.142H35.76ZM46.6212 69.162C45.6612 69.162 44.7972 68.952 44.0292 68.532C43.2612 68.1 42.6552 67.494 42.2112 66.714C41.7792 65.934 41.5632 65.034 41.5632 64.014C41.5632 62.994 41.7852 62.094 42.2292 61.314C42.6852 60.534 43.3032 59.934 44.0832 59.514C44.8632 59.082 45.7332 58.866 46.6932 58.866C47.6532 58.866 48.5232 59.082 49.3032 59.514C50.0832 59.934 50.6952 60.534 51.1392 61.314C51.5952 62.094 51.8232 62.994 51.8232 64.014C51.8232 65.034 51.5892 65.934 51.1212 66.714C50.6652 67.494 50.0412 68.1 49.2492 68.532C48.4692 68.952 47.5932 69.162 46.6212 69.162ZM46.6212 66.966C47.0772 66.966 47.5032 66.858 47.8992 66.642C48.3072 66.414 48.6312 66.078 48.8712 65.634C49.1112 65.19 49.2312 64.65 49.2312 64.014C49.2312 63.066 48.9792 62.34 48.4752 61.836C47.9832 61.32 47.3772 61.062 46.6572 61.062C45.9372 61.062 45.3312 61.32 44.8392 61.836C44.3592 62.34 44.1192 63.066 44.1192 64.014C44.1192 64.962 44.3532 65.694 44.8212 66.21C45.3012 66.714 45.9012 66.966 46.6212 66.966ZM56.1917 60.576C56.5157 60.048 56.9357 59.634 57.4517 59.334C57.9797 59.034 58.5797 58.884 59.2517 58.884V61.53H58.5857C57.7937 61.53 57.1937 61.716 56.7857 62.088C56.3897 62.46 56.1917 63.108 56.1917 64.032V69H53.6717V59.028H56.1917V60.576ZM63.883 61.098V65.922C63.883 66.258 63.961 66.504 64.117 66.66C64.285 66.804 64.561 66.876 64.945 66.876H66.115V69H64.531C62.407 69 61.345 67.968 61.345 65.904V61.098H60.157V59.028H61.345V56.562H63.883V59.028H66.115V61.098H63.883ZM72.4995 61.098H70.7535V69H68.1975V61.098H67.0635V59.028H68.1975V58.524C68.1975 57.3 68.5455 56.4 69.2415 55.824C69.9375 55.248 70.9875 54.978 72.3915 55.014V57.138C71.7795 57.126 71.3535 57.228 71.1135 57.444C70.8735 57.66 70.7535 58.05 70.7535 58.614V59.028H72.4995V61.098ZM78.5606 69.162C77.6006 69.162 76.7366 68.952 75.9686 68.532C75.2006 68.1 74.5946 67.494 74.1506 66.714C73.7186 65.934 73.5026 65.034 73.5026 64.014C73.5026 62.994 73.7246 62.094 74.1686 61.314C74.6246 60.534 75.2426 59.934 76.0226 59.514C76.8026 59.082 77.6726 58.866 78.6326 58.866C79.5926 58.866 80.4626 59.082 81.2426 59.514C82.0226 59.934 82.6346 60.534 83.0786 61.314C83.5346 62.094 83.7626 62.994 83.7626 64.014C83.7626 65.034 83.5286 65.934 83.0606 66.714C82.6046 67.494 81.9806 68.1 81.1886 68.532C80.4086 68.952 79.5326 69.162 78.5606 69.162ZM78.5606 66.966C79.0166 66.966 79.4426 66.858 79.8386 66.642C80.2466 66.414 80.5706 66.078 80.8106 65.634C81.0506 65.19 81.1706 64.65 81.1706 64.014C81.1706 63.066 80.9186 62.34 80.4146 61.836C79.9226 61.32 79.3166 61.062 78.5966 61.062C77.8766 61.062 77.2706 61.32 76.7786 61.836C76.2986 62.34 76.0586 63.066 76.0586 64.014C76.0586 64.962 76.2926 65.694 76.7606 66.21C77.2406 66.714 77.8406 66.966 78.5606 66.966ZM88.1311 55.68V69H85.6111V55.68H88.1311ZM91.8989 57.84C91.4549 57.84 91.0829 57.702 90.7829 57.426C90.4949 57.138 90.3509 56.784 90.3509 56.364C90.3509 55.944 90.4949 55.596 90.7829 55.32C91.0829 55.032 91.4549 54.888 91.8989 54.888C92.3429 54.888 92.7089 55.032 92.9969 55.32C93.2969 55.596 93.4469 55.944 93.4469 56.364C93.4469 56.784 93.2969 57.138 92.9969 57.426C92.7089 57.702 92.3429 57.84 91.8989 57.84ZM93.1409 59.028V69H90.6209V59.028H93.1409ZM100.059 69.162C99.0987 69.162 98.2347 68.952 97.4667 68.532C96.6987 68.1 96.0927 67.494 95.6487 66.714C95.2167 65.934 95.0007 65.034 95.0007 64.014C95.0007 62.994 95.2227 62.094 95.6667 61.314C96.1227 60.534 96.7407 59.934 97.5207 59.514C98.3007 59.082 99.1707 58.866 100.131 58.866C101.091 58.866 101.961 59.082 102.741 59.514C103.521 59.934 104.133 60.534 104.577 61.314C105.033 62.094 105.261 62.994 105.261 64.014C105.261 65.034 105.027 65.934 104.559 66.714C104.103 67.494 103.479 68.1 102.687 68.532C101.907 68.952 101.031 69.162 100.059 69.162ZM100.059 66.966C100.515 66.966 100.941 66.858 101.337 66.642C101.745 66.414 102.069 66.078 102.309 65.634C102.549 65.19 102.669 64.65 102.669 64.014C102.669 63.066 102.417 62.34 101.913 61.836C101.421 61.32 100.815 61.062 100.095 61.062C99.3747 61.062 98.7687 61.32 98.2767 61.836C97.7967 62.34 97.5567 63.066 97.5567 64.014C97.5567 64.962 97.7907 65.694 98.2587 66.21C98.7387 66.714 99.3387 66.966 100.059 66.966ZM110.804 58.2V55.878H115.142V69H112.55V58.2H110.804Z" fill="#343A40"/>
<circle cx="215.5" cy="87.5" r="31" fill="white" stroke="#E9E9E9"/>
<path d="M216.136 82.832L212.04 94H209.32L205.224 82.832H207.624L210.696 91.712L213.752 82.832H216.136ZM221.335 94.112C220.556 94.112 219.852 93.9787 219.223 93.712C218.604 93.4453 218.114 93.0613 217.751 92.56C217.388 92.0587 217.202 91.4667 217.191 90.784H219.591C219.623 91.2427 219.783 91.6053 220.071 91.872C220.37 92.1387 220.775 92.272 221.287 92.272C221.81 92.272 222.22 92.1493 222.519 91.904C222.818 91.648 222.967 91.3173 222.967 90.912C222.967 90.5813 222.866 90.3093 222.663 90.096C222.46 89.8827 222.204 89.7173 221.895 89.6C221.596 89.472 221.18 89.3333 220.647 89.184C219.922 88.9707 219.33 88.7627 218.871 88.56C218.423 88.3467 218.034 88.032 217.703 87.616C217.383 87.1893 217.223 86.624 217.223 85.92C217.223 85.2587 217.388 84.6827 217.719 84.192C218.05 83.7013 218.514 83.328 219.111 83.072C219.708 82.8053 220.391 82.672 221.159 82.672C222.311 82.672 223.244 82.9547 223.959 83.52C224.684 84.0747 225.084 84.8533 225.159 85.856H222.695C222.674 85.472 222.508 85.1573 222.199 84.912C221.9 84.656 221.5 84.528 220.999 84.528C220.562 84.528 220.21 84.64 219.943 84.864C219.687 85.088 219.559 85.4133 219.559 85.84C219.559 86.1387 219.655 86.3893 219.847 86.592C220.05 86.784 220.295 86.944 220.583 87.072C220.882 87.1893 221.298 87.328 221.831 87.488C222.556 87.7013 223.148 87.9147 223.607 88.128C224.066 88.3413 224.46 88.6613 224.791 89.088C225.122 89.5147 225.287 90.0747 225.287 90.768C225.287 91.3653 225.132 91.92 224.823 92.432C224.514 92.944 224.06 93.3547 223.463 93.664C222.866 93.9627 222.156 94.112 221.335 94.112Z" fill="black"/>
<path d="M321 181C321 178.791 322.791 177 325 177H408C410.209 177 412 178.791 412 181V200C412 202.209 410.209 204 408 204H325C322.791 204 321 202.209 321 200V181Z" fill="#556EE6"/>
<path d="M339.384 186.075L336.394 194H335.2L332.21 186.075H333.312L335.802 192.908L338.293 186.075H339.384ZM341.053 186.757C340.856 186.757 340.689 186.689 340.553 186.553C340.416 186.416 340.348 186.249 340.348 186.052C340.348 185.855 340.416 185.689 340.553 185.552C340.689 185.416 340.856 185.347 341.053 185.347C341.242 185.347 341.402 185.416 341.53 185.552C341.667 185.689 341.735 185.855 341.735 186.052C341.735 186.249 341.667 186.416 341.53 186.553C341.402 186.689 341.242 186.757 341.053 186.757ZM341.553 187.769V194H340.519V187.769H341.553ZM349.002 190.646C349.002 190.843 348.99 191.051 348.968 191.271H343.987C344.025 191.885 344.234 192.367 344.613 192.715C344.999 193.056 345.466 193.227 346.011 193.227C346.459 193.227 346.83 193.125 347.126 192.92C347.429 192.708 347.641 192.427 347.762 192.078H348.877C348.71 192.677 348.376 193.166 347.876 193.545C347.376 193.917 346.754 194.102 346.011 194.102C345.42 194.102 344.889 193.97 344.42 193.704C343.957 193.439 343.593 193.064 343.328 192.579C343.063 192.086 342.93 191.518 342.93 190.873C342.93 190.229 343.059 189.664 343.317 189.179C343.574 188.694 343.934 188.323 344.397 188.065C344.867 187.8 345.405 187.667 346.011 187.667C346.603 187.667 347.126 187.796 347.58 188.053C348.035 188.311 348.384 188.667 348.626 189.122C348.877 189.569 349.002 190.077 349.002 190.646ZM347.933 190.43C347.933 190.036 347.846 189.698 347.671 189.418C347.497 189.13 347.258 188.914 346.955 188.77C346.659 188.618 346.33 188.542 345.966 188.542C345.443 188.542 344.996 188.709 344.624 189.043C344.26 189.376 344.052 189.839 343.999 190.43H347.933ZM358.667 187.769L356.723 194H355.654L354.154 189.054L352.653 194H351.584L349.628 187.769H350.686L352.118 192.999L353.665 187.769H354.722L356.234 193.011L357.644 187.769H358.667ZM365.193 186.075C366.057 186.075 366.804 186.238 367.433 186.564C368.069 186.882 368.555 187.341 368.888 187.94C369.229 188.539 369.4 189.244 369.4 190.055C369.4 190.866 369.229 191.571 368.888 192.169C368.555 192.761 368.069 193.215 367.433 193.534C366.804 193.845 366.057 194 365.193 194H362.726V186.075H365.193ZM365.193 193.147C366.216 193.147 366.997 192.878 367.535 192.34C368.073 191.794 368.342 191.032 368.342 190.055C368.342 189.069 368.069 188.3 367.524 187.746C366.986 187.193 366.209 186.916 365.193 186.916H363.76V193.147H365.193ZM376.45 190.646C376.45 190.843 376.438 191.051 376.415 191.271H371.435C371.473 191.885 371.682 192.367 372.061 192.715C372.447 193.056 372.913 193.227 373.459 193.227C373.906 193.227 374.278 193.125 374.573 192.92C374.877 192.708 375.089 192.427 375.21 192.078H376.324C376.158 192.677 375.824 193.166 375.324 193.545C374.824 193.917 374.202 194.102 373.459 194.102C372.868 194.102 372.337 193.97 371.867 193.704C371.405 193.439 371.041 193.064 370.776 192.579C370.511 192.086 370.378 191.518 370.378 190.873C370.378 190.229 370.507 189.664 370.765 189.179C371.022 188.694 371.382 188.323 371.845 188.065C372.315 187.8 372.853 187.667 373.459 187.667C374.05 187.667 374.573 187.796 375.028 188.053C375.483 188.311 375.832 188.667 376.074 189.122C376.324 189.569 376.45 190.077 376.45 190.646ZM375.381 190.43C375.381 190.036 375.294 189.698 375.119 189.418C374.945 189.13 374.706 188.914 374.403 188.77C374.107 188.618 373.778 188.542 373.414 188.542C372.891 188.542 372.444 188.709 372.072 189.043C371.708 189.376 371.5 189.839 371.447 190.43H375.381ZM379.077 188.622V192.294C379.077 192.598 379.142 192.814 379.271 192.943C379.399 193.064 379.623 193.125 379.941 193.125H380.703V194H379.771C379.195 194 378.763 193.867 378.475 193.602C378.187 193.337 378.043 192.901 378.043 192.294V188.622H377.235V187.769H378.043V186.2H379.077V187.769H380.703V188.622H379.077ZM381.57 190.862C381.57 190.225 381.699 189.668 381.957 189.19C382.215 188.705 382.567 188.33 383.014 188.065C383.469 187.8 383.973 187.667 384.527 187.667C385.072 187.667 385.546 187.784 385.948 188.019C386.349 188.254 386.649 188.55 386.846 188.906V187.769H387.892V194H386.846V192.84C386.641 193.204 386.334 193.507 385.925 193.75C385.523 193.985 385.053 194.102 384.515 194.102C383.962 194.102 383.462 193.966 383.014 193.693C382.567 193.42 382.215 193.037 381.957 192.545C381.699 192.052 381.57 191.491 381.57 190.862ZM386.846 190.873C386.846 190.403 386.751 189.994 386.562 189.645C386.372 189.297 386.115 189.031 385.789 188.849C385.47 188.66 385.118 188.565 384.731 188.565C384.345 188.565 383.992 188.656 383.674 188.838C383.355 189.02 383.101 189.285 382.912 189.634C382.722 189.983 382.628 190.392 382.628 190.862C382.628 191.339 382.722 191.756 382.912 192.113C383.101 192.461 383.355 192.73 383.674 192.92C383.992 193.102 384.345 193.193 384.731 193.193C385.118 193.193 385.47 193.102 385.789 192.92C386.115 192.73 386.372 192.461 386.562 192.113C386.751 191.756 386.846 191.343 386.846 190.873ZM390.175 186.757C389.978 186.757 389.811 186.689 389.675 186.553C389.538 186.416 389.47 186.249 389.47 186.052C389.47 185.855 389.538 185.689 389.675 185.552C389.811 185.416 389.978 185.347 390.175 185.347C390.364 185.347 390.524 185.416 390.652 185.552C390.789 185.689 390.857 185.855 390.857 186.052C390.857 186.249 390.789 186.416 390.652 186.553C390.524 186.689 390.364 186.757 390.175 186.757ZM390.675 187.769V194H389.641V187.769H390.675ZM393.473 185.586V194H392.439V185.586H393.473ZM397.442 194.102C396.965 194.102 396.537 194.023 396.158 193.864C395.779 193.697 395.479 193.469 395.259 193.181C395.04 192.886 394.918 192.548 394.896 192.169H395.964C395.995 192.48 396.139 192.734 396.396 192.931C396.662 193.128 397.007 193.227 397.431 193.227C397.825 193.227 398.136 193.14 398.363 192.965C398.591 192.791 398.705 192.571 398.705 192.306C398.705 192.033 398.583 191.832 398.341 191.703C398.098 191.567 397.723 191.434 397.215 191.305C396.753 191.184 396.374 191.063 396.078 190.941C395.79 190.813 395.54 190.627 395.328 190.384C395.123 190.134 395.021 189.808 395.021 189.407C395.021 189.088 395.115 188.796 395.305 188.531C395.494 188.266 395.763 188.057 396.112 187.906C396.461 187.746 396.859 187.667 397.306 187.667C397.996 187.667 398.553 187.841 398.977 188.19C399.402 188.539 399.629 189.016 399.66 189.623H398.625C398.602 189.297 398.47 189.035 398.227 188.838C397.992 188.641 397.674 188.542 397.272 188.542C396.9 188.542 396.605 188.622 396.385 188.781C396.165 188.94 396.055 189.149 396.055 189.407C396.055 189.611 396.12 189.782 396.249 189.918C396.385 190.047 396.552 190.153 396.749 190.237C396.954 190.312 397.234 190.399 397.59 190.498C398.037 190.619 398.401 190.741 398.682 190.862C398.962 190.976 399.201 191.15 399.398 191.385C399.603 191.62 399.709 191.927 399.716 192.306C399.716 192.647 399.622 192.954 399.432 193.227C399.243 193.5 398.974 193.716 398.625 193.875C398.284 194.027 397.89 194.102 397.442 194.102Z" fill="white"/>
</svg>
