<svg width="413" height="186" viewBox="0 0 413 186" fill="none" xmlns="http://www.w3.org/2000/svg">
<path d="M0.5 0.5H411.861V185.073H0.5V0.5Z" fill="white" stroke="#E9E9E9"/>
<path d="M30.4985 148.335V157.396H29.3155V148.335H30.4985ZM35.9857 150.142C36.8523 150.142 37.5543 150.407 38.0917 150.935C38.629 151.455 38.8977 152.209 38.8977 153.197V157.396H37.7277V153.366C37.7277 152.656 37.55 152.114 37.1947 151.741C36.8393 151.36 36.354 151.169 35.7387 151.169C35.1147 151.169 34.6163 151.364 34.2437 151.754C33.8797 152.144 33.6977 152.712 33.6977 153.457V157.396H32.5147V150.272H33.6977V151.286C33.9317 150.922 34.248 150.641 34.6467 150.441C35.054 150.242 35.5003 150.142 35.9857 150.142ZM40.3881 153.808C40.3881 153.08 40.5354 152.443 40.8301 151.897C41.1248 151.343 41.5278 150.914 42.0391 150.61C42.5591 150.307 43.1398 150.155 43.7811 150.155C44.3358 150.155 44.8514 150.285 45.3281 150.545C45.8048 150.797 46.1688 151.13 46.4201 151.546V147.776H47.6161V157.396H46.4201V156.057C46.1861 156.482 45.8394 156.833 45.3801 157.11C44.9208 157.379 44.3834 157.513 43.7681 157.513C43.1354 157.513 42.5591 157.357 42.0391 157.045C41.5278 156.733 41.1248 156.296 40.8301 155.732C40.5354 155.169 40.3881 154.528 40.3881 153.808ZM46.4201 153.821C46.4201 153.284 46.3118 152.816 46.0951 152.417C45.8784 152.019 45.5838 151.715 45.2111 151.507C44.8471 151.291 44.4441 151.182 44.0021 151.182C43.5601 151.182 43.1571 151.286 42.7931 151.494C42.4291 151.702 42.1388 152.006 41.9221 152.404C41.7054 152.803 41.5971 153.271 41.5971 153.808C41.5971 154.354 41.7054 154.831 41.9221 155.238C42.1388 155.637 42.4291 155.945 42.7931 156.161C43.1571 156.369 43.5601 156.473 44.0021 156.473C44.4441 156.473 44.8471 156.369 45.2111 156.161C45.5838 155.945 45.8784 155.637 46.0951 155.238C46.3118 154.831 46.4201 154.359 46.4201 153.821ZM55.9333 150.272V157.396H54.7503V156.343C54.5249 156.707 54.2086 156.993 53.8013 157.201C53.4026 157.401 52.9606 157.5 52.4753 157.5C51.9206 157.5 51.4223 157.388 50.9803 157.162C50.5383 156.928 50.1873 156.582 49.9273 156.122C49.6759 155.663 49.5503 155.104 49.5503 154.445V150.272H50.7203V154.289C50.7203 154.991 50.8979 155.533 51.2533 155.914C51.6086 156.287 52.0939 156.473 52.7093 156.473C53.3419 156.473 53.8403 156.278 54.2043 155.888C54.5683 155.498 54.7503 154.931 54.7503 154.185V150.272H55.9333ZM60.4527 157.513C59.9067 157.513 59.417 157.422 58.9837 157.24C58.5504 157.05 58.208 156.79 57.9567 156.46C57.7054 156.122 57.5667 155.737 57.5407 155.303H58.7627C58.7974 155.659 58.962 155.949 59.2567 156.174C59.56 156.4 59.9544 156.512 60.4397 156.512C60.8904 156.512 61.2457 156.413 61.5057 156.213C61.7657 156.014 61.8957 155.763 61.8957 155.459C61.8957 155.147 61.757 154.918 61.4797 154.77C61.2024 154.614 60.7734 154.463 60.1927 154.315C59.664 154.177 59.2307 154.038 58.8927 153.899C58.5634 153.752 58.2774 153.54 58.0347 153.262C57.8007 152.976 57.6837 152.604 57.6837 152.144C57.6837 151.78 57.792 151.447 58.0087 151.143C58.2254 150.84 58.533 150.602 58.9317 150.428C59.3304 150.246 59.7854 150.155 60.2967 150.155C61.0854 150.155 61.7224 150.355 62.2077 150.753C62.693 151.152 62.953 151.698 62.9877 152.391H61.8047C61.7787 152.019 61.627 151.72 61.3497 151.494C61.081 151.269 60.717 151.156 60.2577 151.156C59.833 151.156 59.495 151.247 59.2437 151.429C58.9924 151.611 58.8667 151.85 58.8667 152.144C58.8667 152.378 58.9404 152.573 59.0877 152.729C59.2437 152.877 59.4344 152.998 59.6597 153.093C59.8937 153.18 60.2144 153.28 60.6217 153.392C61.133 153.531 61.549 153.67 61.8697 153.808C62.1904 153.938 62.4634 154.138 62.6887 154.406C62.9227 154.675 63.044 155.026 63.0527 155.459C63.0527 155.849 62.9444 156.2 62.7277 156.512C62.511 156.824 62.2034 157.071 61.8047 157.253C61.4147 157.427 60.964 157.513 60.4527 157.513ZM66.1657 151.247V155.446C66.1657 155.793 66.2393 156.04 66.3867 156.187C66.534 156.326 66.7897 156.395 67.1537 156.395H68.0247V157.396H66.9587C66.3 157.396 65.806 157.245 65.4767 156.941C65.1473 156.638 64.9827 156.14 64.9827 155.446V151.247H64.0597V150.272H64.9827V148.478H66.1657V150.272H68.0247V151.247H66.1657ZM70.641 151.429C70.849 151.022 71.1437 150.706 71.525 150.48C71.915 150.255 72.3874 150.142 72.942 150.142V151.364H72.63C71.304 151.364 70.641 152.084 70.641 153.522V157.396H69.458V150.272H70.641V151.429ZM80.4436 150.272L76.1536 160.75H74.9316L76.3356 157.318L73.4626 150.272H74.7756L77.0116 156.044L79.2216 150.272H80.4436ZM92.2227 157.396H91.0397L86.2817 150.181V157.396H85.0987V148.322H86.2817L91.0397 155.524V148.322H92.2227V157.396ZM93.7973 153.808C93.7973 153.08 93.9446 152.443 94.2393 151.897C94.5339 151.343 94.9369 150.914 95.4483 150.61C95.9683 150.307 96.5446 150.155 97.1773 150.155C97.8013 150.155 98.3429 150.29 98.8023 150.558C99.2616 150.827 99.6039 151.165 99.8293 151.572V150.272H101.025V157.396H99.8293V156.07C99.5953 156.486 99.2443 156.833 98.7763 157.11C98.3169 157.379 97.7796 157.513 97.1643 157.513C96.5316 157.513 95.9596 157.357 95.4483 157.045C94.9369 156.733 94.5339 156.296 94.2393 155.732C93.9446 155.169 93.7973 154.528 93.7973 153.808ZM99.8293 153.821C99.8293 153.284 99.7209 152.816 99.5043 152.417C99.2876 152.019 98.9929 151.715 98.6203 151.507C98.2563 151.291 97.8533 151.182 97.4113 151.182C96.9693 151.182 96.5663 151.286 96.2023 151.494C95.8383 151.702 95.5479 152.006 95.3313 152.404C95.1146 152.803 95.0063 153.271 95.0063 153.808C95.0063 154.354 95.1146 154.831 95.3313 155.238C95.5479 155.637 95.8383 155.945 96.2023 156.161C96.5663 156.369 96.9693 156.473 97.4113 156.473C97.8533 156.473 98.2563 156.369 98.6203 156.161C98.9929 155.945 99.2876 155.637 99.5043 155.238C99.7209 154.831 99.8293 154.359 99.8293 153.821ZM111.591 150.142C112.146 150.142 112.64 150.259 113.073 150.493C113.507 150.719 113.849 151.061 114.1 151.52C114.352 151.98 114.477 152.539 114.477 153.197V157.396H113.307V153.366C113.307 152.656 113.13 152.114 112.774 151.741C112.428 151.36 111.955 151.169 111.357 151.169C110.742 151.169 110.252 151.369 109.888 151.767C109.524 152.157 109.342 152.725 109.342 153.47V157.396H108.172V153.366C108.172 152.656 107.995 152.114 107.639 151.741C107.293 151.36 106.82 151.169 106.222 151.169C105.607 151.169 105.117 151.369 104.753 151.767C104.389 152.157 104.207 152.725 104.207 153.47V157.396H103.024V150.272H104.207V151.299C104.441 150.927 104.753 150.641 105.143 150.441C105.542 150.242 105.98 150.142 106.456 150.142C107.054 150.142 107.583 150.277 108.042 150.545C108.502 150.814 108.844 151.208 109.069 151.728C109.269 151.226 109.598 150.836 110.057 150.558C110.517 150.281 111.028 150.142 111.591 150.142ZM122.918 153.561C122.918 153.787 122.905 154.025 122.879 154.276H117.185C117.228 154.978 117.467 155.529 117.9 155.927C118.342 156.317 118.875 156.512 119.499 156.512C120.01 156.512 120.435 156.395 120.773 156.161C121.12 155.919 121.362 155.598 121.501 155.199H122.775C122.584 155.884 122.203 156.443 121.631 156.876C121.059 157.301 120.348 157.513 119.499 157.513C118.823 157.513 118.216 157.362 117.679 157.058C117.15 156.755 116.734 156.326 116.431 155.771C116.128 155.208 115.976 154.558 115.976 153.821C115.976 153.085 116.123 152.439 116.418 151.884C116.713 151.33 117.124 150.905 117.653 150.61C118.19 150.307 118.806 150.155 119.499 150.155C120.175 150.155 120.773 150.303 121.293 150.597C121.813 150.892 122.212 151.299 122.489 151.819C122.775 152.331 122.918 152.911 122.918 153.561ZM121.696 153.314C121.696 152.864 121.596 152.478 121.397 152.157C121.198 151.828 120.925 151.581 120.578 151.416C120.24 151.243 119.863 151.156 119.447 151.156C118.849 151.156 118.338 151.347 117.913 151.728C117.497 152.11 117.259 152.638 117.198 153.314H121.696Z" fill="#74788D"/>
<path d="M32.2405 124.965C33.2025 124.965 34.0431 125.151 34.7625 125.524C35.4905 125.888 36.0495 126.417 36.4395 127.11C36.8381 127.795 37.0375 128.596 37.0375 129.515C37.0375 130.434 36.8381 131.231 36.4395 131.907C36.0495 132.583 35.4905 133.103 34.7625 133.467C34.0431 133.822 33.2025 134 32.2405 134H29.2895V124.965H32.2405ZM32.2405 132.791C33.2978 132.791 34.1081 132.505 34.6715 131.933C35.2348 131.361 35.5165 130.555 35.5165 129.515C35.5165 128.466 35.2348 127.647 34.6715 127.058C34.1081 126.469 33.2978 126.174 32.2405 126.174H30.7715V132.791H32.2405ZM38.0123 130.386C38.0123 129.667 38.1596 129.03 38.4543 128.475C38.7576 127.92 39.1649 127.491 39.6763 127.188C40.1963 126.876 40.7683 126.72 41.3923 126.72C41.9556 126.72 42.4453 126.833 42.8613 127.058C43.2859 127.275 43.6239 127.548 43.8753 127.877V126.837H45.3703V134H43.8753V132.934C43.6239 133.272 43.2816 133.554 42.8483 133.779C42.4149 134.004 41.9209 134.117 41.3663 134.117C40.7509 134.117 40.1876 133.961 39.6763 133.649C39.1649 133.328 38.7576 132.886 38.4543 132.323C38.1596 131.751 38.0123 131.105 38.0123 130.386ZM43.8753 130.412C43.8753 129.918 43.7713 129.489 43.5633 129.125C43.3639 128.761 43.0996 128.484 42.7703 128.293C42.4409 128.102 42.0856 128.007 41.7043 128.007C41.3229 128.007 40.9676 128.102 40.6383 128.293C40.3089 128.475 40.0403 128.748 39.8323 129.112C39.6329 129.467 39.5333 129.892 39.5333 130.386C39.5333 130.88 39.6329 131.313 39.8323 131.686C40.0403 132.059 40.3089 132.345 40.6383 132.544C40.9763 132.735 41.3316 132.83 41.7043 132.83C42.0856 132.83 42.4409 132.735 42.7703 132.544C43.0996 132.353 43.3639 132.076 43.5633 131.712C43.7713 131.339 43.8753 130.906 43.8753 130.412ZM49.0458 128.046V132.011C49.0458 132.28 49.1065 132.475 49.2278 132.596C49.3578 132.709 49.5745 132.765 49.8778 132.765H50.7878V134H49.6178C48.9505 134 48.4391 133.844 48.0838 133.532C47.7285 133.22 47.5508 132.713 47.5508 132.011V128.046H46.7058V126.837H47.5508V125.056H49.0458V126.837H50.7878V128.046H49.0458ZM51.6597 130.386C51.6597 129.667 51.807 129.03 52.1017 128.475C52.405 127.92 52.8124 127.491 53.3237 127.188C53.8437 126.876 54.4157 126.72 55.0397 126.72C55.603 126.72 56.0927 126.833 56.5087 127.058C56.9334 127.275 57.2714 127.548 57.5227 127.877V126.837H59.0177V134H57.5227V132.934C57.2714 133.272 56.929 133.554 56.4957 133.779C56.0624 134.004 55.5684 134.117 55.0137 134.117C54.3984 134.117 53.835 133.961 53.3237 133.649C52.8124 133.328 52.405 132.886 52.1017 132.323C51.807 131.751 51.6597 131.105 51.6597 130.386ZM57.5227 130.412C57.5227 129.918 57.4187 129.489 57.2107 129.125C57.0114 128.761 56.747 128.484 56.4177 128.293C56.0884 128.102 55.733 128.007 55.3517 128.007C54.9704 128.007 54.615 128.102 54.2857 128.293C53.9564 128.475 53.6877 128.748 53.4797 129.112C53.2804 129.467 53.1807 129.892 53.1807 130.386C53.1807 130.88 53.2804 131.313 53.4797 131.686C53.6877 132.059 53.9564 132.345 54.2857 132.544C54.6237 132.735 54.979 132.83 55.3517 132.83C55.733 132.83 56.0884 132.735 56.4177 132.544C56.747 132.353 57.0114 132.076 57.2107 131.712C57.4187 131.339 57.5227 130.906 57.5227 130.412ZM67.3182 134.091C66.7115 134.091 66.1655 133.987 65.6802 133.779C65.1949 133.562 64.8135 133.259 64.5362 132.869C64.2589 132.479 64.1202 132.024 64.1202 131.504H65.7062C65.7409 131.894 65.8925 132.215 66.1612 132.466C66.4385 132.717 66.8242 132.843 67.3182 132.843C67.8295 132.843 68.2282 132.722 68.5142 132.479C68.8002 132.228 68.9432 131.907 68.9432 131.517C68.9432 131.214 68.8522 130.967 68.6702 130.776C68.4969 130.585 68.2759 130.438 68.0072 130.334C67.7472 130.23 67.3832 130.117 66.9152 129.996C66.3259 129.84 65.8449 129.684 65.4722 129.528C65.1082 129.363 64.7962 129.112 64.5362 128.774C64.2762 128.436 64.1462 127.985 64.1462 127.422C64.1462 126.902 64.2762 126.447 64.5362 126.057C64.7962 125.667 65.1602 125.368 65.6282 125.16C66.0962 124.952 66.6379 124.848 67.2532 124.848C68.1285 124.848 68.8435 125.069 69.3982 125.511C69.9615 125.944 70.2735 126.542 70.3342 127.305H68.6962C68.6702 126.976 68.5142 126.694 68.2282 126.46C67.9422 126.226 67.5652 126.109 67.0972 126.109C66.6725 126.109 66.3259 126.217 66.0572 126.434C65.7885 126.651 65.6542 126.963 65.6542 127.37C65.6542 127.647 65.7365 127.877 65.9012 128.059C66.0745 128.232 66.2912 128.371 66.5512 128.475C66.8112 128.579 67.1665 128.692 67.6172 128.813C68.2152 128.978 68.7005 129.142 69.0732 129.307C69.4545 129.472 69.7752 129.727 70.0352 130.074C70.3039 130.412 70.4382 130.867 70.4382 131.439C70.4382 131.898 70.3125 132.332 70.0612 132.739C69.8185 133.146 69.4589 133.476 68.9822 133.727C68.5142 133.97 67.9595 134.091 67.3182 134.091ZM71.6929 130.412C71.6929 129.675 71.8402 129.03 72.1349 128.475C72.4382 127.912 72.8542 127.478 73.3829 127.175C73.9116 126.872 74.5182 126.72 75.2029 126.72C76.0696 126.72 76.7846 126.928 77.3479 127.344C77.9199 127.751 78.3056 128.336 78.5049 129.099H76.9059C76.7759 128.744 76.5679 128.466 76.2819 128.267C75.9959 128.068 75.6362 127.968 75.2029 127.968C74.5962 127.968 74.1109 128.185 73.7469 128.618C73.3916 129.043 73.2139 129.641 73.2139 130.412C73.2139 131.183 73.3916 131.786 73.7469 132.219C74.1109 132.652 74.5962 132.869 75.2029 132.869C76.0609 132.869 76.6286 132.492 76.9059 131.738H78.5049C78.2969 132.466 77.9069 133.047 77.3349 133.48C76.7629 133.905 76.0522 134.117 75.2029 134.117C74.5182 134.117 73.9116 133.965 73.3829 133.662C72.8542 133.35 72.4382 132.917 72.1349 132.362C71.8402 131.799 71.6929 131.149 71.6929 130.412ZM80.7358 125.888C80.4672 125.888 80.2418 125.797 80.0598 125.615C79.8778 125.433 79.7868 125.208 79.7868 124.939C79.7868 124.67 79.8778 124.445 80.0598 124.263C80.2418 124.081 80.4672 123.99 80.7358 123.99C80.9958 123.99 81.2168 124.081 81.3988 124.263C81.5808 124.445 81.6718 124.67 81.6718 124.939C81.6718 125.208 81.5808 125.433 81.3988 125.615C81.2168 125.797 80.9958 125.888 80.7358 125.888ZM81.4638 126.837V134H79.9818V126.837H81.4638ZM89.9746 130.243C89.9746 130.512 89.9572 130.754 89.9226 130.971H84.4496C84.4929 131.543 84.7052 132.002 85.0866 132.349C85.4679 132.696 85.9359 132.869 86.4906 132.869C87.2879 132.869 87.8512 132.535 88.1806 131.868H89.7796C89.5629 132.527 89.1686 133.068 88.5966 133.493C88.0332 133.909 87.3312 134.117 86.4906 134.117C85.8059 134.117 85.1906 133.965 84.6446 133.662C84.1072 133.35 83.6826 132.917 83.3706 132.362C83.0672 131.799 82.9156 131.149 82.9156 130.412C82.9156 129.675 83.0629 129.03 83.3576 128.475C83.6609 127.912 84.0812 127.478 84.6186 127.175C85.1646 126.872 85.7886 126.72 86.4906 126.72C87.1666 126.72 87.7689 126.867 88.2976 127.162C88.8262 127.457 89.2379 127.873 89.5326 128.41C89.8272 128.939 89.9746 129.55 89.9746 130.243ZM88.4276 129.775C88.4189 129.229 88.2239 128.791 87.8426 128.462C87.4612 128.133 86.9889 127.968 86.4256 127.968C85.9142 127.968 85.4766 128.133 85.1126 128.462C84.7486 128.783 84.5319 129.22 84.4626 129.775H88.4276ZM95.047 126.72C95.6103 126.72 96.113 126.837 96.555 127.071C97.0057 127.305 97.3567 127.652 97.608 128.111C97.8593 128.57 97.985 129.125 97.985 129.775V134H96.516V129.996C96.516 129.355 96.3557 128.865 96.035 128.527C95.7143 128.18 95.2767 128.007 94.722 128.007C94.1673 128.007 93.7253 128.18 93.396 128.527C93.0753 128.865 92.915 129.355 92.915 129.996V134H91.433V126.837H92.915V127.656C93.1577 127.361 93.4653 127.132 93.838 126.967C94.2193 126.802 94.6223 126.72 95.047 126.72ZM99.3814 130.412C99.3814 129.675 99.5287 129.03 99.8234 128.475C100.127 127.912 100.543 127.478 101.071 127.175C101.6 126.872 102.207 126.72 102.891 126.72C103.758 126.72 104.473 126.928 105.036 127.344C105.608 127.751 105.994 128.336 106.193 129.099H104.594C104.464 128.744 104.256 128.466 103.97 128.267C103.684 128.068 103.325 127.968 102.891 127.968C102.285 127.968 101.799 128.185 101.435 128.618C101.08 129.043 100.902 129.641 100.902 130.412C100.902 131.183 101.08 131.786 101.435 132.219C101.799 132.652 102.285 132.869 102.891 132.869C103.749 132.869 104.317 132.492 104.594 131.738H106.193C105.985 132.466 105.595 133.047 105.023 133.48C104.451 133.905 103.741 134.117 102.891 134.117C102.207 134.117 101.6 133.965 101.071 133.662C100.543 133.35 100.127 132.917 99.8234 132.362C99.5287 131.799 99.3814 131.149 99.3814 130.412ZM114.235 130.243C114.235 130.512 114.218 130.754 114.183 130.971H108.71C108.754 131.543 108.966 132.002 109.347 132.349C109.729 132.696 110.197 132.869 110.751 132.869C111.549 132.869 112.112 132.535 112.441 131.868H114.04C113.824 132.527 113.429 133.068 112.857 133.493C112.294 133.909 111.592 134.117 110.751 134.117C110.067 134.117 109.451 133.965 108.905 133.662C108.368 133.35 107.943 132.917 107.631 132.362C107.328 131.799 107.176 131.149 107.176 130.412C107.176 129.675 107.324 129.03 107.618 128.475C107.922 127.912 108.342 127.478 108.879 127.175C109.425 126.872 110.049 126.72 110.751 126.72C111.427 126.72 112.03 126.867 112.558 127.162C113.087 127.457 113.499 127.873 113.793 128.41C114.088 128.939 114.235 129.55 114.235 130.243ZM112.688 129.775C112.68 129.229 112.485 128.791 112.103 128.462C111.722 128.133 111.25 127.968 110.686 127.968C110.175 127.968 109.737 128.133 109.373 128.462C109.009 128.783 108.793 129.22 108.723 129.775H112.688ZM126.052 129.931H123.426V132.622H122.048V129.931H119.422V128.683H122.048V125.992H123.426V128.683H126.052V129.931ZM128.13 126.863C128.182 126.057 128.49 125.429 129.053 124.978C129.625 124.527 130.353 124.302 131.237 124.302C131.844 124.302 132.368 124.41 132.81 124.627C133.252 124.844 133.586 125.138 133.811 125.511C134.036 125.884 134.149 126.304 134.149 126.772C134.149 127.309 134.006 127.769 133.72 128.15C133.434 128.531 133.092 128.787 132.693 128.917V128.969C133.204 129.125 133.603 129.411 133.889 129.827C134.175 130.234 134.318 130.759 134.318 131.4C134.318 131.911 134.201 132.366 133.967 132.765C133.733 133.164 133.386 133.48 132.927 133.714C132.468 133.939 131.917 134.052 131.276 134.052C130.34 134.052 129.569 133.814 128.962 133.337C128.364 132.852 128.043 132.158 128 131.257H129.43C129.465 131.716 129.642 132.093 129.963 132.388C130.284 132.674 130.717 132.817 131.263 132.817C131.792 132.817 132.199 132.674 132.485 132.388C132.771 132.093 132.914 131.716 132.914 131.257C132.914 130.65 132.719 130.221 132.329 129.97C131.948 129.71 131.358 129.58 130.561 129.58H130.223V128.358H130.574C131.276 128.349 131.809 128.232 132.173 128.007C132.546 127.782 132.732 127.426 132.732 126.941C132.732 126.525 132.598 126.196 132.329 125.953C132.06 125.702 131.679 125.576 131.185 125.576C130.7 125.576 130.323 125.702 130.054 125.953C129.785 126.196 129.625 126.499 129.573 126.863H128.13ZM148.963 124.965V134H147.481V127.812L144.725 134H143.698L140.929 127.812V134H139.447V124.965H141.046L144.218 132.05L147.377 124.965H148.963ZM154.018 134.117C153.342 134.117 152.731 133.965 152.185 133.662C151.639 133.35 151.21 132.917 150.898 132.362C150.586 131.799 150.43 131.149 150.43 130.412C150.43 129.684 150.59 129.038 150.911 128.475C151.231 127.912 151.669 127.478 152.224 127.175C152.778 126.872 153.398 126.72 154.083 126.72C154.767 126.72 155.387 126.872 155.942 127.175C156.496 127.478 156.934 127.912 157.255 128.475C157.575 129.038 157.736 129.684 157.736 130.412C157.736 131.14 157.571 131.786 157.242 132.349C156.912 132.912 156.462 133.35 155.89 133.662C155.326 133.965 154.702 134.117 154.018 134.117ZM154.018 132.83C154.399 132.83 154.754 132.739 155.084 132.557C155.422 132.375 155.695 132.102 155.903 131.738C156.111 131.374 156.215 130.932 156.215 130.412C156.215 129.892 156.115 129.454 155.916 129.099C155.716 128.735 155.452 128.462 155.123 128.28C154.793 128.098 154.438 128.007 154.057 128.007C153.675 128.007 153.32 128.098 152.991 128.28C152.67 128.462 152.414 128.735 152.224 129.099C152.033 129.454 151.938 129.892 151.938 130.412C151.938 131.183 152.133 131.781 152.523 132.206C152.921 132.622 153.42 132.83 154.018 132.83ZM160.683 127.877C160.899 127.513 161.185 127.231 161.541 127.032C161.905 126.824 162.334 126.72 162.828 126.72V128.254H162.451C161.87 128.254 161.428 128.401 161.125 128.696C160.83 128.991 160.683 129.502 160.683 130.23V134H159.201V126.837H160.683V127.877ZM170.755 130.243C170.755 130.512 170.738 130.754 170.703 130.971H165.23C165.273 131.543 165.486 132.002 165.867 132.349C166.248 132.696 166.716 132.869 167.271 132.869C168.068 132.869 168.632 132.535 168.961 131.868H170.56C170.343 132.527 169.949 133.068 169.377 133.493C168.814 133.909 168.112 134.117 167.271 134.117C166.586 134.117 165.971 133.965 165.425 133.662C164.888 133.35 164.463 132.917 164.151 132.362C163.848 131.799 163.696 131.149 163.696 130.412C163.696 129.675 163.843 129.03 164.138 128.475C164.441 127.912 164.862 127.478 165.399 127.175C165.945 126.872 166.569 126.72 167.271 126.72C167.947 126.72 168.549 126.867 169.078 127.162C169.607 127.457 170.018 127.873 170.313 128.41C170.608 128.939 170.755 129.55 170.755 130.243ZM169.208 129.775C169.199 129.229 169.004 128.791 168.623 128.462C168.242 128.133 167.769 127.968 167.206 127.968C166.695 127.968 166.257 128.133 165.893 128.462C165.529 128.783 165.312 129.22 165.243 129.775H169.208Z" fill="#495057"/>
<path d="M257.125 100.095H255.942L251.184 92.8797V100.095H250.001V91.0207H251.184L255.942 98.2227V91.0207H257.125V100.095ZM262.249 100.212C261.581 100.212 260.975 100.06 260.429 99.7567C259.891 99.4534 259.467 99.0244 259.155 98.4697C258.851 97.9064 258.7 97.2564 258.7 96.5197C258.7 95.7917 258.856 95.1504 259.168 94.5957C259.488 94.0324 259.922 93.6034 260.468 93.3087C261.014 93.0054 261.625 92.8537 262.301 92.8537C262.977 92.8537 263.588 93.0054 264.134 93.3087C264.68 93.6034 265.109 94.0281 265.421 94.5827C265.741 95.1374 265.902 95.7831 265.902 96.5197C265.902 97.2564 265.737 97.9064 265.408 98.4697C265.087 99.0244 264.649 99.4534 264.095 99.7567C263.54 100.06 262.925 100.212 262.249 100.212ZM262.249 99.1717C262.673 99.1717 263.072 99.0721 263.445 98.8727C263.817 98.6734 264.116 98.3744 264.342 97.9757C264.576 97.5771 264.693 97.0917 264.693 96.5197C264.693 95.9477 264.58 95.4624 264.355 95.0637C264.129 94.6651 263.835 94.3704 263.471 94.1797C263.107 93.9804 262.712 93.8807 262.288 93.8807C261.854 93.8807 261.456 93.9804 261.092 94.1797C260.736 94.3704 260.45 94.6651 260.234 95.0637C260.017 95.4624 259.909 95.9477 259.909 96.5197C259.909 97.1004 260.013 97.5901 260.221 97.9887C260.437 98.3874 260.723 98.6864 261.079 98.8857C261.434 99.0764 261.824 99.1717 262.249 99.1717ZM274.03 100.212C273.363 100.212 272.756 100.06 272.21 99.7567C271.673 99.4534 271.248 99.0244 270.936 98.4697C270.633 97.9064 270.481 97.2564 270.481 96.5197C270.481 95.7917 270.637 95.1504 270.949 94.5957C271.27 94.0324 271.703 93.6034 272.249 93.3087C272.795 93.0054 273.406 92.8537 274.082 92.8537C274.758 92.8537 275.369 93.0054 275.915 93.3087C276.461 93.6034 276.89 94.0281 277.202 94.5827C277.523 95.1374 277.683 95.7831 277.683 96.5197C277.683 97.2564 277.518 97.9064 277.189 98.4697C276.868 99.0244 276.431 99.4534 275.876 99.7567C275.321 100.06 274.706 100.212 274.03 100.212ZM274.03 99.1717C274.455 99.1717 274.853 99.0721 275.226 98.8727C275.599 98.6734 275.898 98.3744 276.123 97.9757C276.357 97.5771 276.474 97.0917 276.474 96.5197C276.474 95.9477 276.361 95.4624 276.136 95.0637C275.911 94.6651 275.616 94.3704 275.252 94.1797C274.888 93.9804 274.494 93.8807 274.069 93.8807C273.636 93.8807 273.237 93.9804 272.873 94.1797C272.518 94.3704 272.232 94.6651 272.015 95.0637C271.798 95.4624 271.69 95.9477 271.69 96.5197C271.69 97.1004 271.794 97.5901 272.002 97.9887C272.219 98.3874 272.505 98.6864 272.86 98.8857C273.215 99.0764 273.605 99.1717 274.03 99.1717ZM282.137 93.9457H280.642V100.095H279.459V93.9457H278.536V92.9707H279.459V92.4637C279.459 91.6664 279.663 91.0857 280.07 90.7217C280.486 90.3491 281.149 90.1627 282.059 90.1627V91.1507C281.539 91.1507 281.171 91.2547 280.954 91.4627C280.746 91.6621 280.642 91.9957 280.642 92.4637V92.9707H282.137V93.9457ZM292.338 98.0797H288.386L287.658 100.095H286.41L289.686 91.0857H291.051L294.314 100.095H293.066L292.338 98.0797ZM292 97.1177L290.362 92.5417L288.724 97.1177H292ZM302.06 92.9707V100.095H300.877V99.0417C300.652 99.4057 300.336 99.6917 299.928 99.8997C299.53 100.099 299.088 100.199 298.602 100.199C298.048 100.199 297.549 100.086 297.107 99.8607C296.665 99.6267 296.314 99.2801 296.054 98.8207C295.803 98.3614 295.677 97.8024 295.677 97.1437V92.9707H296.847V96.9877C296.847 97.6897 297.025 98.2314 297.38 98.6127C297.736 98.9854 298.221 99.1717 298.836 99.1717C299.469 99.1717 299.967 98.9767 300.331 98.5867C300.695 98.1967 300.877 97.6291 300.877 96.8837V92.9707H302.06ZM303.616 96.5067C303.616 95.7787 303.763 95.1417 304.058 94.5957C304.352 94.0411 304.755 93.6121 305.267 93.3087C305.787 93.0054 306.367 92.8537 307.009 92.8537C307.563 92.8537 308.079 92.9837 308.556 93.2437C309.032 93.4951 309.396 93.8287 309.648 94.2447V90.4747H310.844V100.095H309.648V98.7557C309.414 99.1804 309.067 99.5314 308.608 99.8087C308.148 100.077 307.611 100.212 306.996 100.212C306.363 100.212 305.787 100.056 305.267 99.7437C304.755 99.4317 304.352 98.9941 304.058 98.4307C303.763 97.8674 303.616 97.2261 303.616 96.5067ZM309.648 96.5197C309.648 95.9824 309.539 95.5144 309.323 95.1157C309.106 94.7171 308.811 94.4137 308.439 94.2057C308.075 93.9891 307.672 93.8807 307.23 93.8807C306.788 93.8807 306.385 93.9847 306.021 94.1927C305.657 94.4007 305.366 94.7041 305.15 95.1027C304.933 95.5014 304.825 95.9694 304.825 96.5067C304.825 97.0527 304.933 97.5294 305.15 97.9367C305.366 98.3354 305.657 98.6431 306.021 98.8597C306.385 99.0677 306.788 99.1717 307.23 99.1717C307.672 99.1717 308.075 99.0677 308.439 98.8597C308.811 98.6431 309.106 98.3354 309.323 97.9367C309.539 97.5294 309.648 97.0571 309.648 96.5197ZM313.454 91.8137C313.228 91.8137 313.038 91.7357 312.882 91.5797C312.726 91.4237 312.648 91.2331 312.648 91.0077C312.648 90.7824 312.726 90.5917 312.882 90.4357C313.038 90.2797 313.228 90.2017 313.454 90.2017C313.67 90.2017 313.852 90.2797 314 90.4357C314.156 90.5917 314.234 90.7824 314.234 91.0077C314.234 91.2331 314.156 91.4237 314 91.5797C313.852 91.7357 313.67 91.8137 313.454 91.8137ZM314.026 92.9707V100.095H312.843V92.9707H314.026ZM317.485 93.9457V98.1447C317.485 98.4914 317.559 98.7384 317.706 98.8857C317.853 99.0244 318.109 99.0937 318.473 99.0937H319.344V100.095H318.278C317.619 100.095 317.125 99.9431 316.796 99.6397C316.467 99.3364 316.302 98.8381 316.302 98.1447V93.9457H315.379V92.9707H316.302V91.1767H317.485V92.9707H319.344V93.9457H317.485ZM323.299 100.212C322.753 100.212 322.264 100.121 321.83 99.9387C321.397 99.7481 321.055 99.4881 320.803 99.1587C320.552 98.8207 320.413 98.4351 320.387 98.0017H321.609C321.644 98.3571 321.809 98.6474 322.103 98.8727C322.407 99.0981 322.801 99.2107 323.286 99.2107C323.737 99.2107 324.092 99.1111 324.352 98.9117C324.612 98.7124 324.742 98.4611 324.742 98.1577C324.742 97.8457 324.604 97.6161 324.326 97.4687C324.049 97.3127 323.62 97.1611 323.039 97.0137C322.511 96.8751 322.077 96.7364 321.739 96.5977C321.41 96.4504 321.124 96.2381 320.881 95.9607C320.647 95.6747 320.53 95.3021 320.53 94.8427C320.53 94.4787 320.639 94.1451 320.855 93.8417C321.072 93.5384 321.38 93.3001 321.778 93.1267C322.177 92.9447 322.632 92.8537 323.143 92.8537C323.932 92.8537 324.569 93.0531 325.054 93.4517C325.54 93.8504 325.8 94.3964 325.834 95.0897H324.651C324.625 94.7171 324.474 94.4181 324.196 94.1927C323.928 93.9674 323.564 93.8547 323.104 93.8547C322.68 93.8547 322.342 93.9457 322.09 94.1277C321.839 94.3097 321.713 94.5481 321.713 94.8427C321.713 95.0767 321.787 95.2717 321.934 95.4277C322.09 95.5751 322.281 95.6964 322.506 95.7917C322.74 95.8784 323.061 95.9781 323.468 96.0907C323.98 96.2294 324.396 96.3681 324.716 96.5067C325.037 96.6367 325.31 96.8361 325.535 97.1047C325.769 97.3734 325.891 97.7244 325.899 98.1577C325.899 98.5477 325.791 98.8987 325.574 99.2107C325.358 99.5227 325.05 99.7697 324.651 99.9517C324.261 100.125 323.811 100.212 323.299 100.212ZM330.593 96.5067C330.593 95.7787 330.741 95.1417 331.035 94.5957C331.33 94.0411 331.733 93.6121 332.244 93.3087C332.764 93.0054 333.345 92.8537 333.986 92.8537C334.541 92.8537 335.057 92.9837 335.533 93.2437C336.01 93.4951 336.374 93.8287 336.625 94.2447V90.4747H337.821V100.095H336.625V98.7557C336.391 99.1804 336.045 99.5314 335.585 99.8087C335.126 100.077 334.589 100.212 333.973 100.212C333.341 100.212 332.764 100.056 332.244 99.7437C331.733 99.4317 331.33 98.9941 331.035 98.4307C330.741 97.8674 330.593 97.2261 330.593 96.5067ZM336.625 96.5197C336.625 95.9824 336.517 95.5144 336.3 95.1157C336.084 94.7171 335.789 94.4137 335.416 94.2057C335.052 93.9891 334.649 93.8807 334.207 93.8807C333.765 93.8807 333.362 93.9847 332.998 94.1927C332.634 94.4007 332.344 94.7041 332.127 95.1027C331.911 95.5014 331.802 95.9694 331.802 96.5067C331.802 97.0527 331.911 97.5294 332.127 97.9367C332.344 98.3354 332.634 98.6431 332.998 98.8597C333.362 99.0677 333.765 99.1717 334.207 99.1717C334.649 99.1717 335.052 99.0677 335.416 98.8597C335.789 98.6431 336.084 98.3354 336.3 97.9367C336.517 97.5294 336.625 97.0571 336.625 96.5197ZM342.927 100.212C342.26 100.212 341.653 100.06 341.107 99.7567C340.57 99.4534 340.145 99.0244 339.833 98.4697C339.53 97.9064 339.378 97.2564 339.378 96.5197C339.378 95.7917 339.534 95.1504 339.846 94.5957C340.167 94.0324 340.6 93.6034 341.146 93.3087C341.692 93.0054 342.303 92.8537 342.979 92.8537C343.655 92.8537 344.266 93.0054 344.812 93.3087C345.358 93.6034 345.787 94.0281 346.099 94.5827C346.42 95.1374 346.58 95.7831 346.58 96.5197C346.58 97.2564 346.416 97.9064 346.086 98.4697C345.766 99.0244 345.328 99.4534 344.773 99.7567C344.219 100.06 343.603 100.212 342.927 100.212ZM342.927 99.1717C343.352 99.1717 343.751 99.0721 344.123 98.8727C344.496 98.6734 344.795 98.3744 345.02 97.9757C345.254 97.5771 345.371 97.0917 345.371 96.5197C345.371 95.9477 345.259 95.4624 345.033 95.0637C344.808 94.6651 344.513 94.3704 344.149 94.1797C343.785 93.9804 343.391 93.8807 342.966 93.8807C342.533 93.8807 342.134 93.9804 341.77 94.1797C341.415 94.3704 341.129 94.6651 340.912 95.0637C340.696 95.4624 340.587 95.9477 340.587 96.5197C340.587 97.1004 340.691 97.5901 340.899 97.9887C341.116 98.3874 341.402 98.6864 341.757 98.8857C342.113 99.0764 342.503 99.1717 342.927 99.1717ZM351.607 92.8407C352.473 92.8407 353.175 93.1051 353.713 93.6337C354.25 94.1537 354.519 94.9077 354.519 95.8957V100.095H353.349V96.0647C353.349 95.3541 353.171 94.8124 352.816 94.4397C352.46 94.0584 351.975 93.8677 351.36 93.8677C350.736 93.8677 350.237 94.0627 349.865 94.4527C349.501 94.8427 349.319 95.4104 349.319 96.1557V100.095H348.136V92.9707H349.319V93.9847C349.553 93.6207 349.869 93.3391 350.268 93.1397C350.675 92.9404 351.121 92.8407 351.607 92.8407ZM362.951 96.2597C362.951 96.4851 362.938 96.7234 362.912 96.9747H357.218C357.262 97.6767 357.5 98.2271 357.933 98.6257C358.375 99.0157 358.908 99.2107 359.532 99.2107C360.044 99.2107 360.468 99.0937 360.806 98.8597C361.153 98.6171 361.396 98.2964 361.534 97.8977H362.808C362.618 98.5824 362.236 99.1414 361.664 99.5747C361.092 99.9994 360.382 100.212 359.532 100.212C358.856 100.212 358.25 100.06 357.712 99.7567C357.184 99.4534 356.768 99.0244 356.464 98.4697C356.161 97.9064 356.009 97.2564 356.009 96.5197C356.009 95.7831 356.157 95.1374 356.451 94.5827C356.746 94.0281 357.158 93.6034 357.686 93.3087C358.224 93.0054 358.839 92.8537 359.532 92.8537C360.208 92.8537 360.806 93.0011 361.326 93.2957C361.846 93.5904 362.245 93.9977 362.522 94.5177C362.808 95.0291 362.951 95.6097 362.951 96.2597ZM361.729 96.0127C361.729 95.5621 361.63 95.1764 361.43 94.8557C361.231 94.5264 360.958 94.2794 360.611 94.1147C360.273 93.9414 359.896 93.8547 359.48 93.8547C358.882 93.8547 358.371 94.0454 357.946 94.4267C357.53 94.8081 357.292 95.3367 357.231 96.0127H361.729Z" fill="#74788D"/>
<path d="M249.78 71.8362C249.78 70.3369 250.031 69.1669 250.534 68.3262C251.045 67.4769 251.921 67.0522 253.16 67.0522C254.399 67.0522 255.27 67.4769 255.773 68.3262C256.284 69.1669 256.54 70.3369 256.54 71.8362C256.54 73.3529 256.284 74.5402 255.773 75.3982C255.27 76.2476 254.399 76.6722 253.16 76.6722C251.921 76.6722 251.045 76.2476 250.534 75.3982C250.031 74.5402 249.78 73.3529 249.78 71.8362ZM255.084 71.8362C255.084 71.1342 255.036 70.5406 254.941 70.0552C254.854 69.5699 254.672 69.1756 254.395 68.8722C254.118 68.5602 253.706 68.4042 253.16 68.4042C252.614 68.4042 252.202 68.5602 251.925 68.8722C251.648 69.1756 251.461 69.5699 251.366 70.0552C251.279 70.5406 251.236 71.1342 251.236 71.8362C251.236 72.5642 251.279 73.1752 251.366 73.6692C251.453 74.1632 251.635 74.5619 251.912 74.8652C252.198 75.1686 252.614 75.3202 253.16 75.3202C253.706 75.3202 254.118 75.1686 254.395 74.8652C254.681 74.5619 254.867 74.1632 254.954 73.6692C255.041 73.1752 255.084 72.5642 255.084 71.8362ZM257.926 74.7222V73.6042L262.294 67.3382H264.088V73.4352H265.297V74.7222H264.088V76.6982H262.632V74.7222H257.926ZM262.697 68.8462L259.629 73.4352H262.697V68.8462Z" fill="#495057"/>
<path d="M30.4725 89.3355V95.0685C30.4725 95.8745 30.6675 96.4725 31.0575 96.8625C31.4561 97.2525 32.0065 97.4475 32.7085 97.4475C33.4018 97.4475 33.9435 97.2525 34.3335 96.8625C34.7321 96.4725 34.9315 95.8745 34.9315 95.0685V89.3355H36.1145V95.0555C36.1145 95.8095 35.9628 96.4465 35.6595 96.9665C35.3561 97.4778 34.9445 97.8592 34.4245 98.1105C33.9131 98.3618 33.3368 98.4875 32.6955 98.4875C32.0541 98.4875 31.4735 98.3618 30.9535 98.1105C30.4421 97.8592 30.0348 97.4778 29.7315 96.9665C29.4368 96.4465 29.2895 95.8095 29.2895 95.0555V89.3355H30.4725ZM42.8589 98.3965L40.7009 94.6915H39.2709V98.3965H38.0879V89.3355H41.0129C41.6976 89.3355 42.2739 89.4525 42.7419 89.6865C43.2186 89.9205 43.5739 90.2368 43.8079 90.6355C44.0419 91.0342 44.1589 91.4892 44.1589 92.0005C44.1589 92.6245 43.9769 93.1748 43.6129 93.6515C43.2576 94.1282 42.7202 94.4445 42.0009 94.6005L44.2759 98.3965H42.8589ZM39.2709 93.7425H41.0129C41.6542 93.7425 42.1352 93.5865 42.4559 93.2745C42.7766 92.9538 42.9369 92.5292 42.9369 92.0005C42.9369 91.4632 42.7766 91.0472 42.4559 90.7525C42.1439 90.4578 41.6629 90.3105 41.0129 90.3105H39.2709V93.7425ZM47.1801 97.4345H50.3521V98.3965H45.9971V89.3355H47.1801V97.4345Z" fill="#74788D"/>
<path d="M32.9945 67.72C33.5405 67.72 34.0258 67.837 34.4505 68.071C34.8838 68.305 35.2218 68.6517 35.4645 69.111C35.7158 69.5703 35.8415 70.125 35.8415 70.775V75H34.3725V70.996C34.3725 70.3547 34.2121 69.865 33.8915 69.527C33.5708 69.1803 33.1331 69.007 32.5785 69.007C32.0238 69.007 31.5818 69.1803 31.2525 69.527C30.9318 69.865 30.7715 70.3547 30.7715 70.996V75H29.2895V65.38H30.7715V68.669C31.0228 68.3657 31.3391 68.1317 31.7205 67.967C32.1105 67.8023 32.5351 67.72 32.9945 67.72ZM39.4608 69.046V73.011C39.4608 73.2797 39.5215 73.4747 39.6428 73.596C39.7728 73.7087 39.9895 73.765 40.2928 73.765H41.2028V75H40.0328C39.3655 75 38.8542 74.844 38.4988 74.532C38.1435 74.22 37.9658 73.713 37.9658 73.011V69.046H37.1208V67.837H37.9658V66.056H39.4608V67.837H41.2028V69.046H39.4608ZM44.2978 69.046V73.011C44.2978 73.2797 44.3584 73.4747 44.4798 73.596C44.6098 73.7087 44.8264 73.765 45.1298 73.765H46.0398V75H44.8698C44.2024 75 43.6911 74.844 43.3358 74.532C42.9804 74.22 42.8028 73.713 42.8028 73.011V69.046H41.9578V67.837H42.8028V66.056H44.2978V67.837H46.0398V69.046H44.2978ZM48.8877 68.89C49.139 68.5607 49.4813 68.2833 49.9147 68.058C50.348 67.8327 50.8377 67.72 51.3837 67.72C52.0077 67.72 52.5753 67.876 53.0867 68.188C53.6067 68.4913 54.014 68.9203 54.3087 69.475C54.6033 70.0297 54.7507 70.6667 54.7507 71.386C54.7507 72.1053 54.6033 72.751 54.3087 73.323C54.014 73.8863 53.6067 74.3283 53.0867 74.649C52.5753 74.961 52.0077 75.117 51.3837 75.117C50.8377 75.117 50.3523 75.0087 49.9277 74.792C49.503 74.5667 49.1563 74.2893 48.8877 73.96V78.406H47.4057V67.837H48.8877V68.89ZM53.2427 71.386C53.2427 70.892 53.1387 70.4673 52.9307 70.112C52.7313 69.748 52.4627 69.475 52.1247 69.293C51.7953 69.1023 51.44 69.007 51.0587 69.007C50.686 69.007 50.3307 69.1023 49.9927 69.293C49.6633 69.4837 49.3947 69.761 49.1867 70.125C48.9873 70.489 48.8877 70.918 48.8877 71.412C48.8877 71.906 48.9873 72.3393 49.1867 72.712C49.3947 73.076 49.6633 73.3533 49.9927 73.544C50.3307 73.7347 50.686 73.83 51.0587 73.83C51.44 73.83 51.7953 73.7347 52.1247 73.544C52.4627 73.3447 52.7313 73.0587 52.9307 72.686C53.1387 72.3133 53.2427 71.88 53.2427 71.386ZM56.8142 75.091C56.5455 75.091 56.3202 75 56.1382 74.818C55.9562 74.636 55.8652 74.4107 55.8652 74.142C55.8652 73.8733 55.9562 73.648 56.1382 73.466C56.3202 73.284 56.5455 73.193 56.8142 73.193C57.0742 73.193 57.2952 73.284 57.4772 73.466C57.6592 73.648 57.7502 73.8733 57.7502 74.142C57.7502 74.4107 57.6592 74.636 57.4772 74.818C57.2952 75 57.0742 75.091 56.8142 75.091ZM56.8142 69.631C56.5455 69.631 56.3202 69.54 56.1382 69.358C55.9562 69.176 55.8652 68.9507 55.8652 68.682C55.8652 68.4133 55.9562 68.188 56.1382 68.006C56.3202 67.824 56.5455 67.733 56.8142 67.733C57.0742 67.733 57.2952 67.824 57.4772 68.006C57.6592 68.188 57.7502 68.4133 57.7502 68.682C57.7502 68.9507 57.6592 69.176 57.4772 69.358C57.2952 69.54 57.0742 69.631 56.8142 69.631ZM64.2127 62.728L60.6767 77.275H59.2207L62.7437 62.728H64.2127ZM70.8905 62.728L67.3545 77.275H65.8985L69.4215 62.728H70.8905ZM79.3232 71.243C79.3232 71.5117 79.3059 71.7543 79.2712 71.971H73.7982C73.8415 72.543 74.0539 73.0023 74.4352 73.349C74.8165 73.6957 75.2845 73.869 75.8392 73.869C76.6365 73.869 77.1999 73.5353 77.5292 72.868H79.1282C78.9115 73.5267 78.5172 74.0683 77.9452 74.493C77.3819 74.909 76.6799 75.117 75.8392 75.117C75.1545 75.117 74.5392 74.9653 73.9932 74.662C73.4559 74.35 73.0312 73.9167 72.7192 73.362C72.4159 72.7987 72.2642 72.1487 72.2642 71.412C72.2642 70.6753 72.4115 70.0297 72.7062 69.475C73.0095 68.9117 73.4299 68.4783 73.9672 68.175C74.5132 67.8717 75.1372 67.72 75.8392 67.72C76.5152 67.72 77.1175 67.8673 77.6462 68.162C78.1749 68.4567 78.5865 68.8727 78.8812 69.41C79.1759 69.9387 79.3232 70.5497 79.3232 71.243ZM77.7762 70.775C77.7675 70.229 77.5725 69.7913 77.1912 69.462C76.8099 69.1327 76.3375 68.968 75.7742 68.968C75.2629 68.968 74.8252 69.1327 74.4612 69.462C74.0972 69.7827 73.8805 70.2203 73.8112 70.775H77.7762ZM83.8496 71.373L86.1636 75H84.4866L82.9396 72.569L81.4836 75H79.9366L82.2506 71.477L79.9366 67.837H81.6136L83.1606 70.268L84.6166 67.837H86.1636L83.8496 71.373ZM86.7749 71.386C86.7749 70.6667 86.9223 70.0297 87.2169 69.475C87.5203 68.9203 87.9276 68.4913 88.4389 68.188C88.9589 67.876 89.5309 67.72 90.1549 67.72C90.7183 67.72 91.2079 67.8327 91.6239 68.058C92.0486 68.2747 92.3866 68.5477 92.6379 68.877V67.837H94.1329V75H92.6379V73.934C92.3866 74.272 92.0443 74.5537 91.6109 74.779C91.1776 75.0043 90.6836 75.117 90.1289 75.117C89.5136 75.117 88.9503 74.961 88.4389 74.649C87.9276 74.3283 87.5203 73.8863 87.2169 73.323C86.9223 72.751 86.7749 72.1053 86.7749 71.386ZM92.6379 71.412C92.6379 70.918 92.5339 70.489 92.3259 70.125C92.1266 69.761 91.8623 69.4837 91.5329 69.293C91.2036 69.1023 90.8483 69.007 90.4669 69.007C90.0856 69.007 89.7303 69.1023 89.4009 69.293C89.0716 69.475 88.8029 69.748 88.5949 70.112C88.3956 70.4673 88.2959 70.892 88.2959 71.386C88.2959 71.88 88.3956 72.3133 88.5949 72.686C88.8029 73.0587 89.0716 73.3447 89.4009 73.544C89.7389 73.7347 90.0943 73.83 90.4669 73.83C90.8483 73.83 91.2036 73.7347 91.5329 73.544C91.8623 73.3533 92.1266 73.076 92.3259 72.712C92.5339 72.3393 92.6379 71.906 92.6379 71.412ZM104.75 67.72C105.314 67.72 105.816 67.837 106.258 68.071C106.709 68.305 107.06 68.6517 107.311 69.111C107.571 69.5703 107.701 70.125 107.701 70.775V75H106.232V70.996C106.232 70.3547 106.072 69.865 105.751 69.527C105.431 69.1803 104.993 69.007 104.438 69.007C103.884 69.007 103.442 69.1803 103.112 69.527C102.792 69.865 102.631 70.3547 102.631 70.996V75H101.162V70.996C101.162 70.3547 101.002 69.865 100.681 69.527C100.361 69.1803 99.9232 69.007 99.3685 69.007C98.8138 69.007 98.3718 69.1803 98.0425 69.527C97.7218 69.865 97.5615 70.3547 97.5615 70.996V75H96.0795V67.837H97.5615V68.656C97.8042 68.3613 98.1118 68.1317 98.4845 67.967C98.8572 67.8023 99.2558 67.72 99.6805 67.72C100.252 67.72 100.764 67.8413 101.214 68.084C101.665 68.3267 102.012 68.6777 102.254 69.137C102.471 68.7037 102.809 68.3613 103.268 68.11C103.728 67.85 104.222 67.72 104.75 67.72ZM111.069 68.89C111.321 68.5607 111.663 68.2833 112.096 68.058C112.53 67.8327 113.019 67.72 113.565 67.72C114.189 67.72 114.757 67.876 115.268 68.188C115.788 68.4913 116.196 68.9203 116.49 69.475C116.785 70.0297 116.932 70.6667 116.932 71.386C116.932 72.1053 116.785 72.751 116.49 73.323C116.196 73.8863 115.788 74.3283 115.268 74.649C114.757 74.961 114.189 75.117 113.565 75.117C113.019 75.117 112.534 75.0087 112.109 74.792C111.685 74.5667 111.338 74.2893 111.069 73.96V78.406H109.587V67.837H111.069V68.89ZM115.424 71.386C115.424 70.892 115.32 70.4673 115.112 70.112C114.913 69.748 114.644 69.475 114.306 69.293C113.977 69.1023 113.622 69.007 113.24 69.007C112.868 69.007 112.512 69.1023 112.174 69.293C111.845 69.4837 111.576 69.761 111.368 70.125C111.169 70.489 111.069 70.918 111.069 71.412C111.069 71.906 111.169 72.3393 111.368 72.712C111.576 73.076 111.845 73.3533 112.174 73.544C112.512 73.7347 112.868 73.83 113.24 73.83C113.622 73.83 113.977 73.7347 114.306 73.544C114.644 73.3447 114.913 73.0587 115.112 72.686C115.32 72.3133 115.424 71.88 115.424 71.386ZM119.88 65.38V75H118.398V65.38H119.88ZM128.391 71.243C128.391 71.5117 128.373 71.7543 128.339 71.971H122.866C122.909 72.543 123.121 73.0023 123.503 73.349C123.884 73.6957 124.352 73.869 124.907 73.869C125.704 73.869 126.267 73.5353 126.597 72.868H128.196C127.979 73.5267 127.585 74.0683 127.013 74.493C126.449 74.909 125.747 75.117 124.907 75.117C124.222 75.117 123.607 74.9653 123.061 74.662C122.523 74.35 122.099 73.9167 121.787 73.362C121.483 72.7987 121.332 72.1487 121.332 71.412C121.332 70.6753 121.479 70.0297 121.774 69.475C122.077 68.9117 122.497 68.4783 123.035 68.175C123.581 67.8717 124.205 67.72 124.907 67.72C125.583 67.72 126.185 67.8673 126.714 68.162C127.242 68.4567 127.654 68.8727 127.949 69.41C128.243 69.9387 128.391 70.5497 128.391 71.243ZM126.844 70.775C126.835 70.229 126.64 69.7913 126.259 69.462C125.877 69.1327 125.405 68.968 124.842 68.968C124.33 68.968 123.893 69.1327 123.529 69.462C123.165 69.7827 122.948 70.2203 122.879 70.775H126.844ZM130.447 75.091C130.178 75.091 129.953 75 129.771 74.818C129.589 74.636 129.498 74.4107 129.498 74.142C129.498 73.8733 129.589 73.648 129.771 73.466C129.953 73.284 130.178 73.193 130.447 73.193C130.707 73.193 130.928 73.284 131.11 73.466C131.292 73.648 131.383 73.8733 131.383 74.142C131.383 74.4107 131.292 74.636 131.11 74.818C130.928 75 130.707 75.091 130.447 75.091ZM132.491 71.412C132.491 70.6753 132.638 70.0297 132.933 69.475C133.236 68.9117 133.652 68.4783 134.181 68.175C134.709 67.8717 135.316 67.72 136.001 67.72C136.867 67.72 137.582 67.928 138.146 68.344C138.718 68.7513 139.103 69.3363 139.303 70.099H137.704C137.574 69.7437 137.366 69.4663 137.08 69.267C136.794 69.0677 136.434 68.968 136.001 68.968C135.394 68.968 134.909 69.1847 134.545 69.618C134.189 70.0427 134.012 70.6407 134.012 71.412C134.012 72.1833 134.189 72.7857 134.545 73.219C134.909 73.6523 135.394 73.869 136.001 73.869C136.859 73.869 137.426 73.492 137.704 72.738H139.303C139.095 73.466 138.705 74.0467 138.133 74.48C137.561 74.9047 136.85 75.117 136.001 75.117C135.316 75.117 134.709 74.9653 134.181 74.662C133.652 74.35 133.236 73.9167 132.933 73.362C132.638 72.7987 132.491 72.1487 132.491 71.412ZM143.887 75.117C143.211 75.117 142.6 74.9653 142.054 74.662C141.508 74.35 141.079 73.9167 140.767 73.362C140.455 72.7987 140.299 72.1487 140.299 71.412C140.299 70.684 140.459 70.0383 140.78 69.475C141.1 68.9117 141.538 68.4783 142.093 68.175C142.647 67.8717 143.267 67.72 143.952 67.72C144.636 67.72 145.256 67.8717 145.811 68.175C146.365 68.4783 146.803 68.9117 147.124 69.475C147.444 70.0383 147.605 70.684 147.605 71.412C147.605 72.14 147.44 72.7857 147.111 73.349C146.781 73.9123 146.331 74.35 145.759 74.662C145.195 74.9653 144.571 75.117 143.887 75.117ZM143.887 73.83C144.268 73.83 144.623 73.739 144.953 73.557C145.291 73.375 145.564 73.102 145.772 72.738C145.98 72.374 146.084 71.932 146.084 71.412C146.084 70.892 145.984 70.4543 145.785 70.099C145.585 69.735 145.321 69.462 144.992 69.28C144.662 69.098 144.307 69.007 143.926 69.007C143.544 69.007 143.189 69.098 142.86 69.28C142.539 69.462 142.283 69.735 142.093 70.099C141.902 70.4543 141.807 70.892 141.807 71.412C141.807 72.1833 142.002 72.7813 142.392 73.206C142.79 73.622 143.289 73.83 143.887 73.83ZM157.741 67.72C158.304 67.72 158.807 67.837 159.249 68.071C159.699 68.305 160.05 68.6517 160.302 69.111C160.562 69.5703 160.692 70.125 160.692 70.775V75H159.223V70.996C159.223 70.3547 159.062 69.865 158.742 69.527C158.421 69.1803 157.983 69.007 157.429 69.007C156.874 69.007 156.432 69.1803 156.103 69.527C155.782 69.865 155.622 70.3547 155.622 70.996V75H154.153V70.996C154.153 70.3547 153.992 69.865 153.672 69.527C153.351 69.1803 152.913 69.007 152.359 69.007C151.804 69.007 151.362 69.1803 151.033 69.527C150.712 69.865 150.552 70.3547 150.552 70.996V75H149.07V67.837H150.552V68.656C150.794 68.3613 151.102 68.1317 151.475 67.967C151.847 67.8023 152.246 67.72 152.671 67.72C153.243 67.72 153.754 67.8413 154.205 68.084C154.655 68.3267 155.002 68.6777 155.245 69.137C155.461 68.7037 155.799 68.3613 156.259 68.11C156.718 67.85 157.212 67.72 157.741 67.72Z" fill="#495057"/>
<path d="M28.3145 76.3H161.602V76.95H28.3145V76.3Z" fill="#495057"/>
<path d="M28.9445 33.0965C28.9445 31.8605 29.2205 30.7565 29.7725 29.7845C30.3365 28.8005 31.0985 28.0385 32.0585 27.4985C33.0305 26.9465 34.1165 26.6705 35.3165 26.6705C36.7205 26.6705 37.9505 27.0305 39.0065 27.7505C40.0625 28.4705 40.8005 29.4665 41.2205 30.7385H38.3225C38.0345 30.1385 37.6265 29.6885 37.0985 29.3885C36.5825 29.0885 35.9825 28.9385 35.2985 28.9385C34.5665 28.9385 33.9125 29.1125 33.3365 29.4605C32.7725 29.7965 32.3285 30.2765 32.0045 30.9005C31.6925 31.5245 31.5365 32.2565 31.5365 33.0965C31.5365 33.9245 31.6925 34.6565 32.0045 35.2925C32.3285 35.9165 32.7725 36.4025 33.3365 36.7505C33.9125 37.0865 34.5665 37.2545 35.2985 37.2545C35.9825 37.2545 36.5825 37.1045 37.0985 36.8045C37.6265 36.4925 38.0345 36.0365 38.3225 35.4365H41.2205C40.8005 36.7205 40.0625 37.7225 39.0065 38.4425C37.9625 39.1505 36.7325 39.5045 35.3165 39.5045C34.1165 39.5045 33.0305 39.2345 32.0585 38.6945C31.0985 38.1425 30.3365 37.3805 29.7725 36.4085C29.2205 35.4365 28.9445 34.3325 28.9445 33.0965ZM47.8009 39.5585C46.8409 39.5585 45.9769 39.3485 45.2089 38.9285C44.4409 38.4965 43.8349 37.8905 43.3909 37.1105C42.9589 36.3305 42.7429 35.4305 42.7429 34.4105C42.7429 33.3905 42.9649 32.4905 43.4089 31.7105C43.8649 30.9305 44.4829 30.3305 45.2629 29.9105C46.0429 29.4785 46.9129 29.2625 47.8729 29.2625C48.8329 29.2625 49.7029 29.4785 50.4829 29.9105C51.2629 30.3305 51.8749 30.9305 52.3189 31.7105C52.7749 32.4905 53.0029 33.3905 53.0029 34.4105C53.0029 35.4305 52.7689 36.3305 52.3009 37.1105C51.8449 37.8905 51.2209 38.4965 50.4289 38.9285C49.6489 39.3485 48.7729 39.5585 47.8009 39.5585ZM47.8009 37.3625C48.2569 37.3625 48.6829 37.2545 49.0789 37.0385C49.4869 36.8105 49.8109 36.4745 50.0509 36.0305C50.2909 35.5865 50.4109 35.0465 50.4109 34.4105C50.4109 33.4625 50.1589 32.7365 49.6549 32.2325C49.1629 31.7165 48.5569 31.4585 47.8369 31.4585C47.1169 31.4585 46.5109 31.7165 46.0189 32.2325C45.5389 32.7365 45.2989 33.4625 45.2989 34.4105C45.2989 35.3585 45.5329 36.0905 46.0009 36.6065C46.4809 37.1105 47.0809 37.3625 47.8009 37.3625ZM67.2354 29.2805C68.4594 29.2805 69.4434 29.6585 70.1874 30.4145C70.9434 31.1585 71.3214 32.2025 71.3214 33.5465V39.3965H68.8014V33.8885C68.8014 33.1085 68.6034 32.5145 68.2074 32.1065C67.8114 31.6865 67.2714 31.4765 66.5874 31.4765C65.9034 31.4765 65.3574 31.6865 64.9494 32.1065C64.5534 32.5145 64.3554 33.1085 64.3554 33.8885V39.3965H61.8354V33.8885C61.8354 33.1085 61.6374 32.5145 61.2414 32.1065C60.8454 31.6865 60.3054 31.4765 59.6214 31.4765C58.9254 31.4765 58.3734 31.6865 57.9654 32.1065C57.5694 32.5145 57.3714 33.1085 57.3714 33.8885V39.3965H54.8514V29.4245H57.3714V30.6305C57.6954 30.2105 58.1094 29.8805 58.6134 29.6405C59.1294 29.4005 59.6934 29.2805 60.3054 29.2805C61.0854 29.2805 61.7814 29.4485 62.3934 29.7845C63.0054 30.1085 63.4794 30.5765 63.8154 31.1885C64.1394 30.6125 64.6074 30.1505 65.2194 29.8025C65.8434 29.4545 66.5154 29.2805 67.2354 29.2805ZM76.2327 30.8645C76.5567 30.4085 77.0007 30.0305 77.5647 29.7305C78.1407 29.4185 78.7947 29.2625 79.5267 29.2625C80.3787 29.2625 81.1467 29.4725 81.8307 29.8925C82.5267 30.3125 83.0727 30.9125 83.4687 31.6925C83.8767 32.4605 84.0807 33.3545 84.0807 34.3745C84.0807 35.3945 83.8767 36.3005 83.4687 37.0925C83.0727 37.8725 82.5267 38.4785 81.8307 38.9105C81.1467 39.3425 80.3787 39.5585 79.5267 39.5585C78.7947 39.5585 78.1467 39.4085 77.5827 39.1085C77.0307 38.8085 76.5807 38.4305 76.2327 37.9745V44.1485H73.7127V29.4245H76.2327V30.8645ZM81.5067 34.3745C81.5067 33.7745 81.3807 33.2585 81.1287 32.8265C80.8887 32.3825 80.5647 32.0465 80.1567 31.8185C79.7607 31.5905 79.3287 31.4765 78.8607 31.4765C78.4047 31.4765 77.9727 31.5965 77.5647 31.8365C77.1687 32.0645 76.8447 32.4005 76.5927 32.8445C76.3527 33.2885 76.2327 33.8105 76.2327 34.4105C76.2327 35.0105 76.3527 35.5325 76.5927 35.9765C76.8447 36.4205 77.1687 36.7625 77.5647 37.0025C77.9727 37.2305 78.4047 37.3445 78.8607 37.3445C79.3287 37.3445 79.7607 37.2245 80.1567 36.9845C80.5647 36.7445 80.8887 36.4025 81.1287 35.9585C81.3807 35.5145 81.5067 34.9865 81.5067 34.3745ZM95.1819 34.1945C95.1819 34.5545 95.1579 34.8785 95.1099 35.1665H87.8199C87.8799 35.8865 88.1319 36.4505 88.5759 36.8585C89.0199 37.2665 89.5659 37.4705 90.2139 37.4705C91.1499 37.4705 91.8159 37.0685 92.2119 36.2645H94.9299C94.6419 37.2245 94.0899 38.0165 93.2739 38.6405C92.4579 39.2525 91.4559 39.5585 90.2679 39.5585C89.3079 39.5585 88.4439 39.3485 87.6759 38.9285C86.9199 38.4965 86.3259 37.8905 85.8939 37.1105C85.4739 36.3305 85.2639 35.4305 85.2639 34.4105C85.2639 33.3785 85.4739 32.4725 85.8939 31.6925C86.3139 30.9125 86.9019 30.3125 87.6579 29.8925C88.4139 29.4725 89.2839 29.2625 90.2679 29.2625C91.2159 29.2625 92.0619 29.4665 92.8059 29.8745C93.5619 30.2825 94.1439 30.8645 94.5519 31.6205C94.9719 32.3645 95.1819 33.2225 95.1819 34.1945ZM92.5719 33.4745C92.5599 32.8265 92.3259 32.3105 91.8699 31.9265C91.4139 31.5305 90.8559 31.3325 90.1959 31.3325C89.5719 31.3325 89.0439 31.5245 88.6119 31.9085C88.1919 32.2805 87.9339 32.8025 87.8379 33.4745H92.5719ZM99.9553 31.4945V36.3185C99.9553 36.6545 100.033 36.9005 100.189 37.0565C100.357 37.2005 100.633 37.2725 101.017 37.2725H102.187V39.3965H100.603C98.4793 39.3965 97.4173 38.3645 97.4173 36.3005V31.4945H96.2293V29.4245H97.4173V26.9585H99.9553V29.4245H102.187V31.4945H99.9553ZM105.278 28.2365C104.834 28.2365 104.462 28.0985 104.162 27.8225C103.874 27.5345 103.73 27.1805 103.73 26.7605C103.73 26.3405 103.874 25.9925 104.162 25.7165C104.462 25.4285 104.834 25.2845 105.278 25.2845C105.722 25.2845 106.088 25.4285 106.376 25.7165C106.676 25.9925 106.826 26.3405 106.826 26.7605C106.826 27.1805 106.676 27.5345 106.376 27.8225C106.088 28.0985 105.722 28.2365 105.278 28.2365ZM106.52 29.4245V39.3965H104V29.4245H106.52ZM111.944 31.4945V36.3185C111.944 36.6545 112.022 36.9005 112.178 37.0565C112.346 37.2005 112.622 37.2725 113.006 37.2725H114.176V39.3965H112.592C110.468 39.3965 109.406 38.3645 109.406 36.3005V31.4945H108.218V29.4245H109.406V26.9585H111.944V29.4245H114.176V31.4945H111.944ZM120.416 39.5585C119.456 39.5585 118.592 39.3485 117.824 38.9285C117.056 38.4965 116.45 37.8905 116.006 37.1105C115.574 36.3305 115.358 35.4305 115.358 34.4105C115.358 33.3905 115.58 32.4905 116.024 31.7105C116.48 30.9305 117.098 30.3305 117.878 29.9105C118.658 29.4785 119.528 29.2625 120.488 29.2625C121.448 29.2625 122.318 29.4785 123.098 29.9105C123.878 30.3305 124.49 30.9305 124.934 31.7105C125.39 32.4905 125.618 33.3905 125.618 34.4105C125.618 35.4305 125.384 36.3305 124.916 37.1105C124.46 37.8905 123.836 38.4965 123.044 38.9285C122.264 39.3485 121.388 39.5585 120.416 39.5585ZM120.416 37.3625C120.872 37.3625 121.298 37.2545 121.694 37.0385C122.102 36.8105 122.426 36.4745 122.666 36.0305C122.906 35.5865 123.026 35.0465 123.026 34.4105C123.026 33.4625 122.774 32.7365 122.27 32.2325C121.778 31.7165 121.172 31.4585 120.452 31.4585C119.732 31.4585 119.126 31.7165 118.634 32.2325C118.154 32.7365 117.914 33.4625 117.914 34.4105C117.914 35.3585 118.148 36.0905 118.616 36.6065C119.096 37.1105 119.696 37.3625 120.416 37.3625ZM129.987 30.9725C130.311 30.4445 130.731 30.0305 131.247 29.7305C131.775 29.4305 132.375 29.2805 133.047 29.2805V31.9265H132.381C131.589 31.9265 130.989 32.1125 130.581 32.4845C130.185 32.8565 129.987 33.5045 129.987 34.4285V39.3965H127.467V29.4245H129.987V30.9725ZM138.781 29.7305C138.841 28.5305 139.261 27.6065 140.041 26.9585C140.833 26.2985 141.871 25.9685 143.155 25.9685C144.031 25.9685 144.781 26.1245 145.405 26.4365C146.029 26.7365 146.497 27.1505 146.809 27.6785C147.133 28.1945 147.295 28.7825 147.295 29.4425C147.295 30.1985 147.097 30.8405 146.701 31.3685C146.317 31.8845 145.855 32.2325 145.315 32.4125V32.4845C146.011 32.7005 146.551 33.0845 146.935 33.6365C147.331 34.1885 147.529 34.8965 147.529 35.7605C147.529 36.4805 147.361 37.1225 147.025 37.6865C146.701 38.2505 146.215 38.6945 145.567 39.0185C144.931 39.3305 144.163 39.4865 143.263 39.4865C141.907 39.4865 140.803 39.1445 139.951 38.4605C139.099 37.7765 138.649 36.7685 138.601 35.4365H141.049C141.073 36.0245 141.271 36.4985 141.643 36.8585C142.027 37.2065 142.549 37.3805 143.209 37.3805C143.821 37.3805 144.289 37.2125 144.613 36.8765C144.949 36.5285 145.117 36.0845 145.117 35.5445C145.117 34.8245 144.889 34.3085 144.433 33.9965C143.977 33.6845 143.269 33.5285 142.309 33.5285H141.787V31.4585H142.309C144.013 31.4585 144.865 30.8885 144.865 29.7485C144.865 29.2325 144.709 28.8305 144.397 28.5425C144.097 28.2545 143.659 28.1105 143.083 28.1105C142.519 28.1105 142.081 28.2665 141.769 28.5785C141.469 28.8785 141.295 29.2625 141.247 29.7305H138.781Z" fill="#343A40"/>
<path d="M249 134C249 131.791 250.791 130 253 130H363.314C365.524 130 367.314 131.791 367.314 134V153C367.314 155.209 365.524 157 363.314 157H253C250.791 157 249 155.209 249 153V134Z" fill="#556EE6"/>
<path d="M277.094 139.075L274.103 147H272.909L269.919 139.075H271.022L273.512 145.908L276.002 139.075H277.094ZM278.763 139.757C278.565 139.757 278.399 139.689 278.262 139.553C278.126 139.416 278.058 139.249 278.058 139.052C278.058 138.855 278.126 138.689 278.262 138.552C278.399 138.416 278.565 138.347 278.763 138.347C278.952 138.347 279.111 138.416 279.24 138.552C279.376 138.689 279.445 138.855 279.445 139.052C279.445 139.249 279.376 139.416 279.24 139.553C279.111 139.689 278.952 139.757 278.763 139.757ZM279.263 140.769V147H278.228V140.769H279.263ZM286.711 143.646C286.711 143.843 286.7 144.051 286.677 144.271H281.697C281.735 144.885 281.943 145.367 282.322 145.715C282.709 146.056 283.175 146.227 283.721 146.227C284.168 146.227 284.54 146.125 284.835 145.92C285.138 145.708 285.351 145.427 285.472 145.078H286.586C286.419 145.677 286.086 146.166 285.586 146.545C285.085 146.917 284.464 147.102 283.721 147.102C283.13 147.102 282.599 146.97 282.129 146.704C281.667 146.439 281.303 146.064 281.038 145.579C280.772 145.086 280.64 144.518 280.64 143.873C280.64 143.229 280.768 142.664 281.026 142.179C281.284 141.694 281.644 141.323 282.106 141.065C282.576 140.8 283.114 140.667 283.721 140.667C284.312 140.667 284.835 140.796 285.29 141.053C285.745 141.311 286.093 141.667 286.336 142.122C286.586 142.569 286.711 143.077 286.711 143.646ZM285.642 143.43C285.642 143.036 285.555 142.698 285.381 142.418C285.207 142.13 284.968 141.914 284.665 141.77C284.369 141.618 284.039 141.542 283.675 141.542C283.152 141.542 282.705 141.709 282.334 142.043C281.97 142.376 281.761 142.839 281.708 143.43H285.642ZM296.377 140.769L294.433 147H293.364L291.863 142.054L290.362 147H289.294L287.338 140.769H288.395L289.828 145.999L291.374 140.769H292.432L293.944 146.011L295.354 140.769H296.377ZM305.734 141.395C305.734 142.054 305.506 142.604 305.051 143.043C304.604 143.475 303.918 143.691 302.993 143.691H301.47V147H300.435V139.075H302.993C303.888 139.075 304.566 139.291 305.029 139.723C305.499 140.155 305.734 140.712 305.734 141.395ZM302.993 142.839C303.569 142.839 303.994 142.714 304.267 142.463C304.54 142.213 304.676 141.857 304.676 141.395C304.676 140.417 304.115 139.928 302.993 139.928H301.47V142.839H302.993ZM309.737 147.102C309.153 147.102 308.623 146.97 308.145 146.704C307.675 146.439 307.304 146.064 307.031 145.579C306.766 145.086 306.633 144.518 306.633 143.873C306.633 143.237 306.769 142.676 307.042 142.19C307.323 141.698 307.702 141.323 308.179 141.065C308.657 140.8 309.191 140.667 309.782 140.667C310.374 140.667 310.908 140.8 311.386 141.065C311.863 141.323 312.238 141.694 312.511 142.179C312.792 142.664 312.932 143.229 312.932 143.873C312.932 144.518 312.788 145.086 312.5 145.579C312.219 146.064 311.837 146.439 311.351 146.704C310.866 146.97 310.328 147.102 309.737 147.102ZM309.737 146.193C310.108 146.193 310.457 146.106 310.783 145.931C311.109 145.757 311.37 145.495 311.568 145.147C311.772 144.798 311.875 144.374 311.875 143.873C311.875 143.373 311.776 142.948 311.579 142.6C311.382 142.251 311.124 141.993 310.806 141.827C310.487 141.652 310.142 141.565 309.771 141.565C309.392 141.565 309.043 141.652 308.725 141.827C308.414 141.993 308.164 142.251 307.975 142.6C307.785 142.948 307.69 143.373 307.69 143.873C307.69 144.381 307.781 144.809 307.963 145.158C308.153 145.507 308.403 145.768 308.714 145.943C309.024 146.109 309.366 146.193 309.737 146.193ZM315.327 141.781C315.509 141.425 315.767 141.148 316.1 140.951C316.441 140.754 316.854 140.656 317.339 140.656V141.724H317.067C315.907 141.724 315.327 142.353 315.327 143.612V147H314.292V140.769H315.327V141.781ZM319.796 141.622V145.294C319.796 145.598 319.86 145.814 319.989 145.943C320.118 146.064 320.342 146.125 320.66 146.125H321.422V147H320.49C319.913 147 319.481 146.867 319.193 146.602C318.905 146.337 318.761 145.901 318.761 145.294V141.622H317.954V140.769H318.761V139.2H319.796V140.769H321.422V141.622H319.796ZM325.211 141.622H323.903V147H322.869V141.622H322.062V140.769H322.869V140.326C322.869 139.628 323.047 139.121 323.403 138.802C323.767 138.476 324.347 138.313 325.143 138.313V139.177C324.688 139.177 324.366 139.268 324.176 139.45C323.994 139.625 323.903 139.916 323.903 140.326V140.769H325.211V141.622ZM329.135 147.102C328.551 147.102 328.021 146.97 327.543 146.704C327.073 146.439 326.702 146.064 326.429 145.579C326.163 145.086 326.031 144.518 326.031 143.873C326.031 143.237 326.167 142.676 326.44 142.19C326.721 141.698 327.1 141.323 327.577 141.065C328.055 140.8 328.589 140.667 329.18 140.667C329.772 140.667 330.306 140.8 330.783 141.065C331.261 141.323 331.636 141.694 331.909 142.179C332.19 142.664 332.33 143.229 332.33 143.873C332.33 144.518 332.186 145.086 331.898 145.579C331.617 146.064 331.234 146.439 330.749 146.704C330.264 146.97 329.726 147.102 329.135 147.102ZM329.135 146.193C329.506 146.193 329.855 146.106 330.181 145.931C330.507 145.757 330.768 145.495 330.965 145.147C331.17 144.798 331.272 144.374 331.272 143.873C331.272 143.373 331.174 142.948 330.977 142.6C330.78 142.251 330.522 141.993 330.204 141.827C329.885 141.652 329.54 141.565 329.169 141.565C328.79 141.565 328.441 141.652 328.123 141.827C327.812 141.993 327.562 142.251 327.372 142.6C327.183 142.948 327.088 143.373 327.088 143.873C327.088 144.381 327.179 144.809 327.361 145.158C327.551 145.507 327.801 145.768 328.112 145.943C328.422 146.109 328.763 146.193 329.135 146.193ZM334.725 138.586V147H333.69V138.586H334.725ZM337.023 139.757C336.826 139.757 336.659 139.689 336.522 139.553C336.386 139.416 336.318 139.249 336.318 139.052C336.318 138.855 336.386 138.689 336.522 138.552C336.659 138.416 336.826 138.347 337.023 138.347C337.212 138.347 337.371 138.416 337.5 138.552C337.637 138.689 337.705 138.855 337.705 139.052C337.705 139.249 337.637 139.416 337.5 139.553C337.371 139.689 337.212 139.757 337.023 139.757ZM337.523 140.769V147H336.488V140.769H337.523ZM342.004 147.102C341.42 147.102 340.89 146.97 340.412 146.704C339.942 146.439 339.571 146.064 339.298 145.579C339.032 145.086 338.9 144.518 338.9 143.873C338.9 143.237 339.036 142.676 339.309 142.19C339.59 141.698 339.969 141.323 340.446 141.065C340.924 140.8 341.458 140.667 342.049 140.667C342.64 140.667 343.175 140.8 343.652 141.065C344.13 141.323 344.505 141.694 344.778 142.179C345.059 142.664 345.199 143.229 345.199 143.873C345.199 144.518 345.055 145.086 344.767 145.579C344.486 146.064 344.103 146.439 343.618 146.704C343.133 146.97 342.595 147.102 342.004 147.102ZM342.004 146.193C342.375 146.193 342.724 146.106 343.05 145.931C343.376 145.757 343.637 145.495 343.834 145.147C344.039 144.798 344.141 144.374 344.141 143.873C344.141 143.373 344.043 142.948 343.846 142.6C343.649 142.251 343.391 141.993 343.073 141.827C342.754 141.652 342.409 141.565 342.038 141.565C341.659 141.565 341.31 141.652 340.992 141.827C340.681 141.993 340.431 142.251 340.241 142.6C340.052 142.948 339.957 143.373 339.957 143.873C339.957 144.381 340.048 144.809 340.23 145.158C340.42 145.507 340.67 145.768 340.98 145.943C341.291 146.109 341.632 146.193 342.004 146.193Z" fill="white"/>
<rect x="276.314" y="26.3018" width="91" height="15" rx="4" fill="#34C38F"/>
<path d="M286.967 37.3018L285.307 34.4518H284.207V37.3018H283.297V30.3318H285.547C286.074 30.3318 286.517 30.4218 286.877 30.6018C287.244 30.7818 287.517 31.0251 287.697 31.3318C287.877 31.6384 287.967 31.9884 287.967 32.3818C287.967 32.8618 287.827 33.2851 287.547 33.6518C287.274 34.0184 286.861 34.2618 286.307 34.3818L288.057 37.3018H286.967ZM284.207 33.7218H285.547C286.041 33.7218 286.411 33.6018 286.657 33.3618C286.904 33.1151 287.027 32.7884 287.027 32.3818C287.027 31.9684 286.904 31.6484 286.657 31.4218C286.417 31.1951 286.047 31.0818 285.547 31.0818H284.207V33.7218ZM294.381 34.3518C294.381 34.5251 294.371 34.7084 294.351 34.9018H289.971C290.005 35.4418 290.188 35.8651 290.521 36.1718C290.861 36.4718 291.271 36.6218 291.751 36.6218C292.145 36.6218 292.471 36.5318 292.731 36.3518C292.998 36.1651 293.185 35.9184 293.291 35.6118H294.271C294.125 36.1384 293.831 36.5684 293.391 36.9018C292.951 37.2284 292.405 37.3918 291.751 37.3918C291.231 37.3918 290.765 37.2751 290.351 37.0418C289.945 36.8084 289.625 36.4784 289.391 36.0518C289.158 35.6184 289.041 35.1184 289.041 34.5518C289.041 33.9851 289.155 33.4884 289.381 33.0618C289.608 32.6351 289.925 32.3084 290.331 32.0818C290.745 31.8484 291.218 31.7318 291.751 31.7318C292.271 31.7318 292.731 31.8451 293.131 32.0718C293.531 32.2984 293.838 32.6118 294.051 33.0118C294.271 33.4051 294.381 33.8518 294.381 34.3518ZM293.441 34.1618C293.441 33.8151 293.365 33.5184 293.211 33.2718C293.058 33.0184 292.848 32.8284 292.581 32.7018C292.321 32.5684 292.031 32.5018 291.711 32.5018C291.251 32.5018 290.858 32.6484 290.531 32.9418C290.211 33.2351 290.028 33.6418 289.981 34.1618H293.441ZM295.243 34.5518C295.243 33.9851 295.356 33.4918 295.583 33.0718C295.809 32.6451 296.123 32.3151 296.523 32.0818C296.929 31.8484 297.393 31.7318 297.913 31.7318C298.586 31.7318 299.139 31.8951 299.573 32.2218C300.013 32.5484 300.303 33.0018 300.443 33.5818H299.463C299.369 33.2484 299.186 32.9851 298.913 32.7918C298.646 32.5984 298.313 32.5018 297.913 32.5018C297.393 32.5018 296.973 32.6818 296.653 33.0418C296.333 33.3951 296.173 33.8984 296.173 34.5518C296.173 35.2118 296.333 35.7218 296.653 36.0818C296.973 36.4418 297.393 36.6218 297.913 36.6218C298.313 36.6218 298.646 36.5284 298.913 36.3418C299.179 36.1551 299.363 35.8884 299.463 35.5418H300.443C300.296 36.1018 300.003 36.5518 299.563 36.8918C299.123 37.2251 298.573 37.3918 297.913 37.3918C297.393 37.3918 296.929 37.2751 296.523 37.0418C296.123 36.8084 295.809 36.4784 295.583 36.0518C295.356 35.6251 295.243 35.1251 295.243 34.5518ZM306.657 34.3518C306.657 34.5251 306.647 34.7084 306.627 34.9018H302.247C302.28 35.4418 302.463 35.8651 302.797 36.1718C303.137 36.4718 303.547 36.6218 304.027 36.6218C304.42 36.6218 304.747 36.5318 305.007 36.3518C305.273 36.1651 305.46 35.9184 305.567 35.6118H306.547C306.4 36.1384 306.107 36.5684 305.667 36.9018C305.227 37.2284 304.68 37.3918 304.027 37.3918C303.507 37.3918 303.04 37.2751 302.627 37.0418C302.22 36.8084 301.9 36.4784 301.667 36.0518C301.433 35.6184 301.317 35.1184 301.317 34.5518C301.317 33.9851 301.43 33.4884 301.657 33.0618C301.883 32.6351 302.2 32.3084 302.607 32.0818C303.02 31.8484 303.493 31.7318 304.027 31.7318C304.547 31.7318 305.007 31.8451 305.407 32.0718C305.807 32.2984 306.113 32.6118 306.327 33.0118C306.547 33.4051 306.657 33.8518 306.657 34.3518ZM305.717 34.1618C305.717 33.8151 305.64 33.5184 305.487 33.2718C305.333 33.0184 305.123 32.8284 304.857 32.7018C304.597 32.5684 304.307 32.5018 303.987 32.5018C303.527 32.5018 303.133 32.6484 302.807 32.9418C302.487 33.2351 302.303 33.6418 302.257 34.1618H305.717ZM310.528 31.7218C311.195 31.7218 311.735 31.9251 312.148 32.3318C312.561 32.7318 312.768 33.3118 312.768 34.0718V37.3018H311.868V34.2018C311.868 33.6551 311.731 33.2384 311.458 32.9518C311.185 32.6584 310.811 32.5118 310.338 32.5118C309.858 32.5118 309.475 32.6618 309.188 32.9618C308.908 33.2618 308.768 33.6984 308.768 34.2718V37.3018H307.858V31.8218H308.768V32.6018C308.948 32.3218 309.191 32.1051 309.498 31.9518C309.811 31.7984 310.155 31.7218 310.528 31.7218ZM315.364 32.5718V35.8018C315.364 36.0684 315.421 36.2584 315.534 36.3718C315.648 36.4784 315.844 36.5318 316.124 36.5318H316.794V37.3018H315.974C315.468 37.3018 315.088 37.1851 314.834 36.9518C314.581 36.7184 314.454 36.3351 314.454 35.8018V32.5718H313.744V31.8218H314.454V30.4418H315.364V31.8218H316.794V32.5718H315.364ZM318.807 29.9018V37.3018H317.897V29.9018H318.807ZM325.078 31.8218L321.778 39.8818H320.838L321.918 37.2418L319.708 31.8218H320.718L322.438 36.2618L324.138 31.8218H325.078ZM332.779 35.7518H329.739L329.179 37.3018H328.219L330.739 30.3718H331.789L334.299 37.3018H333.339L332.779 35.7518ZM332.519 35.0118L331.259 31.4918L329.999 35.0118H332.519ZM335.057 34.5418C335.057 33.9818 335.17 33.4918 335.397 33.0718C335.624 32.6451 335.934 32.3151 336.327 32.0818C336.727 31.8484 337.174 31.7318 337.667 31.7318C338.094 31.7318 338.49 31.8318 338.857 32.0318C339.224 32.2251 339.504 32.4818 339.697 32.8018V29.9018H340.617V37.3018H339.697V36.2718C339.517 36.5984 339.25 36.8684 338.897 37.0818C338.544 37.2884 338.13 37.3918 337.657 37.3918C337.17 37.3918 336.727 37.2718 336.327 37.0318C335.934 36.7918 335.624 36.4551 335.397 36.0218C335.17 35.5884 335.057 35.0951 335.057 34.5418ZM339.697 34.5518C339.697 34.1384 339.614 33.7784 339.447 33.4718C339.28 33.1651 339.054 32.9318 338.767 32.7718C338.487 32.6051 338.177 32.5218 337.837 32.5218C337.497 32.5218 337.187 32.6018 336.907 32.7618C336.627 32.9218 336.404 33.1551 336.237 33.4618C336.07 33.7684 335.987 34.1284 335.987 34.5418C335.987 34.9618 336.07 35.3284 336.237 35.6418C336.404 35.9484 336.627 36.1851 336.907 36.3518C337.187 36.5118 337.497 36.5918 337.837 36.5918C338.177 36.5918 338.487 36.5118 338.767 36.3518C339.054 36.1851 339.28 35.9484 339.447 35.6418C339.614 35.3284 339.697 34.9651 339.697 34.5518ZM341.815 34.5418C341.815 33.9818 341.928 33.4918 342.155 33.0718C342.381 32.6451 342.691 32.3151 343.085 32.0818C343.485 31.8484 343.931 31.7318 344.425 31.7318C344.851 31.7318 345.248 31.8318 345.615 32.0318C345.981 32.2251 346.261 32.4818 346.455 32.8018V29.9018H347.375V37.3018H346.455V36.2718C346.275 36.5984 346.008 36.8684 345.655 37.0818C345.301 37.2884 344.888 37.3918 344.415 37.3918C343.928 37.3918 343.485 37.2718 343.085 37.0318C342.691 36.7918 342.381 36.4551 342.155 36.0218C341.928 35.5884 341.815 35.0951 341.815 34.5418ZM346.455 34.5518C346.455 34.1384 346.371 33.7784 346.205 33.4718C346.038 33.1651 345.811 32.9318 345.525 32.7718C345.245 32.6051 344.935 32.5218 344.595 32.5218C344.255 32.5218 343.945 32.6018 343.665 32.7618C343.385 32.9218 343.161 33.1551 342.995 33.4618C342.828 33.7684 342.745 34.1284 342.745 34.5418C342.745 34.9618 342.828 35.3284 342.995 35.6418C343.161 35.9484 343.385 36.1851 343.665 36.3518C343.945 36.5118 344.255 36.5918 344.595 36.5918C344.935 36.5918 345.245 36.5118 345.525 36.3518C345.811 36.1851 346.038 35.9484 346.205 35.6418C346.371 35.3284 346.455 34.9651 346.455 34.5518ZM353.913 34.3518C353.913 34.5251 353.903 34.7084 353.883 34.9018H349.503C349.536 35.4418 349.719 35.8651 350.053 36.1718C350.393 36.4718 350.803 36.6218 351.283 36.6218C351.676 36.6218 352.003 36.5318 352.263 36.3518C352.529 36.1651 352.716 35.9184 352.823 35.6118H353.803C353.656 36.1384 353.363 36.5684 352.923 36.9018C352.483 37.2284 351.936 37.3918 351.283 37.3918C350.763 37.3918 350.296 37.2751 349.883 37.0418C349.476 36.8084 349.156 36.4784 348.923 36.0518C348.689 35.6184 348.573 35.1184 348.573 34.5518C348.573 33.9851 348.686 33.4884 348.913 33.0618C349.139 32.6351 349.456 32.3084 349.863 32.0818C350.276 31.8484 350.749 31.7318 351.283 31.7318C351.803 31.7318 352.263 31.8451 352.663 32.0718C353.063 32.2984 353.369 32.6118 353.583 33.0118C353.803 33.4051 353.913 33.8518 353.913 34.3518ZM352.973 34.1618C352.973 33.8151 352.896 33.5184 352.743 33.2718C352.589 33.0184 352.379 32.8284 352.113 32.7018C351.853 32.5684 351.563 32.5018 351.243 32.5018C350.783 32.5018 350.389 32.6484 350.063 32.9418C349.743 33.2351 349.559 33.6418 349.513 34.1618H352.973ZM354.774 34.5418C354.774 33.9818 354.887 33.4918 355.114 33.0718C355.34 32.6451 355.65 32.3151 356.044 32.0818C356.444 31.8484 356.89 31.7318 357.384 31.7318C357.81 31.7318 358.207 31.8318 358.574 32.0318C358.94 32.2251 359.22 32.4818 359.414 32.8018V29.9018H360.334V37.3018H359.414V36.2718C359.234 36.5984 358.967 36.8684 358.614 37.0818C358.26 37.2884 357.847 37.3918 357.374 37.3918C356.887 37.3918 356.444 37.2718 356.044 37.0318C355.65 36.7918 355.34 36.4551 355.114 36.0218C354.887 35.5884 354.774 35.0951 354.774 34.5418ZM359.414 34.5518C359.414 34.1384 359.33 33.7784 359.164 33.4718C358.997 33.1651 358.77 32.9318 358.484 32.7718C358.204 32.6051 357.894 32.5218 357.554 32.5218C357.214 32.5218 356.904 32.6018 356.624 32.7618C356.344 32.9218 356.12 33.1551 355.954 33.4618C355.787 33.7684 355.704 34.1284 355.704 34.5418C355.704 34.9618 355.787 35.3284 355.954 35.6418C356.12 35.9484 356.344 36.1851 356.624 36.3518C356.904 36.5118 357.214 36.5918 357.554 36.5918C357.894 36.5918 358.204 36.5118 358.484 36.3518C358.77 36.1851 358.997 35.9484 359.164 35.6418C359.33 35.3284 359.414 34.9651 359.414 34.5518Z" fill="white"/>
</svg>
