<svg width="632" height="416" viewBox="0 0 632 416" fill="none" xmlns="http://www.w3.org/2000/svg">
<rect width="631.258" height="416" rx="15" fill="white"/>
<path d="M349.803 358.397C349.383 358.397 349.005 358.325 348.669 358.181C348.333 358.031 348.069 357.821 347.877 357.551C347.685 357.281 347.589 356.966 347.589 356.606H348.687C348.711 356.876 348.816 357.098 349.002 357.272C349.194 357.446 349.461 357.533 349.803 357.533C350.157 357.533 350.433 357.449 350.631 357.281C350.829 357.107 350.928 356.885 350.928 356.615C350.928 356.405 350.865 356.234 350.739 356.102C350.619 355.97 350.466 355.868 350.28 355.796C350.1 355.724 349.848 355.646 349.524 355.562C349.116 355.454 348.783 355.346 348.525 355.238C348.273 355.124 348.057 354.95 347.877 354.716C347.697 354.482 347.607 354.17 347.607 353.78C347.607 353.42 347.697 353.105 347.877 352.835C348.057 352.565 348.309 352.358 348.633 352.214C348.957 352.07 349.332 351.998 349.758 351.998C350.364 351.998 350.859 352.151 351.243 352.457C351.633 352.757 351.849 353.171 351.891 353.699H350.757C350.739 353.471 350.631 353.276 350.433 353.114C350.235 352.952 349.974 352.871 349.65 352.871C349.356 352.871 349.116 352.946 348.93 353.096C348.744 353.246 348.651 353.462 348.651 353.744C348.651 353.936 348.708 354.095 348.822 354.221C348.942 354.341 349.092 354.437 349.272 354.509C349.452 354.581 349.698 354.659 350.01 354.743C350.424 354.857 350.76 354.971 351.018 355.085C351.282 355.199 351.504 355.376 351.684 355.616C351.87 355.85 351.963 356.165 351.963 356.561C351.963 356.879 351.876 357.179 351.702 357.461C351.534 357.743 351.285 357.971 350.955 358.145C350.631 358.313 350.247 358.397 349.803 358.397ZM354.2 352.907V354.743H356.36V355.58H354.2V357.497H356.63V358.334H353.174V352.07H356.63V352.907H354.2ZM360.746 358.397C360.164 358.397 359.627 358.262 359.135 357.992C358.649 357.716 358.262 357.335 357.974 356.849C357.692 356.357 357.551 355.805 357.551 355.193C357.551 354.581 357.692 354.032 357.974 353.546C358.262 353.06 358.649 352.682 359.135 352.412C359.627 352.136 360.164 351.998 360.746 351.998C361.334 351.998 361.871 352.136 362.357 352.412C362.849 352.682 363.236 353.06 363.518 353.546C363.8 354.032 363.941 354.581 363.941 355.193C363.941 355.805 363.8 356.357 363.518 356.849C363.236 357.335 362.849 357.716 362.357 357.992C361.871 358.262 361.334 358.397 360.746 358.397ZM360.746 357.506C361.16 357.506 361.529 357.413 361.853 357.227C362.177 357.035 362.429 356.765 362.609 356.417C362.795 356.063 362.888 355.655 362.888 355.193C362.888 354.731 362.795 354.326 362.609 353.978C362.429 353.63 362.177 353.363 361.853 353.177C361.529 352.991 361.16 352.898 360.746 352.898C360.332 352.898 359.963 352.991 359.639 353.177C359.315 353.363 359.06 353.63 358.874 353.978C358.694 354.326 358.604 354.731 358.604 355.193C358.604 355.655 358.694 356.063 358.874 356.417C359.06 356.765 359.315 357.035 359.639 357.227C359.963 357.413 360.332 357.506 360.746 357.506Z" fill="#74788D"/>
<circle cx="340.754" cy="355.07" r="4.20845" fill="#F46A6A"/>
<path d="M403.877 355.121C404.213 355.181 404.498 355.358 404.732 355.652C404.966 355.946 405.083 356.279 405.083 356.651C405.083 356.969 404.999 357.257 404.831 357.515C404.669 357.767 404.432 357.968 404.12 358.118C403.808 358.262 403.445 358.334 403.031 358.334H400.529V352.079H402.914C403.34 352.079 403.706 352.151 404.012 352.295C404.318 352.439 404.549 352.634 404.705 352.88C404.861 353.12 404.939 353.39 404.939 353.69C404.939 354.05 404.843 354.35 404.651 354.59C404.459 354.83 404.201 355.007 403.877 355.121ZM401.555 354.707H402.824C403.16 354.707 403.421 354.632 403.607 354.482C403.799 354.326 403.895 354.104 403.895 353.816C403.895 353.534 403.799 353.315 403.607 353.159C403.421 352.997 403.16 352.916 402.824 352.916H401.555V354.707ZM402.941 357.497C403.289 357.497 403.562 357.413 403.76 357.245C403.958 357.077 404.057 356.843 404.057 356.543C404.057 356.237 403.952 355.994 403.742 355.814C403.532 355.634 403.253 355.544 402.905 355.544H401.555V357.497H402.941ZM410.743 355.733C410.743 355.919 410.731 356.087 410.707 356.237H406.918C406.948 356.633 407.095 356.951 407.359 357.191C407.623 357.431 407.947 357.551 408.331 357.551C408.883 357.551 409.273 357.32 409.501 356.858H410.608C410.458 357.314 410.185 357.689 409.789 357.983C409.399 358.271 408.913 358.415 408.331 358.415C407.857 358.415 407.431 358.31 407.053 358.1C406.681 357.884 406.387 357.584 406.171 357.2C405.961 356.81 405.856 356.36 405.856 355.85C405.856 355.34 405.958 354.893 406.162 354.509C406.372 354.119 406.663 353.819 407.035 353.609C407.413 353.399 407.845 353.294 408.331 353.294C408.799 353.294 409.216 353.396 409.582 353.6C409.948 353.804 410.233 354.092 410.437 354.464C410.641 354.83 410.743 355.253 410.743 355.733ZM409.672 355.409C409.666 355.031 409.531 354.728 409.267 354.5C409.003 354.272 408.676 354.158 408.286 354.158C407.932 354.158 407.629 354.272 407.377 354.5C407.125 354.722 406.975 355.025 406.927 355.409H409.672ZM413.553 358.415C413.163 358.415 412.812 358.346 412.5 358.208C412.194 358.064 411.951 357.872 411.771 357.632C411.591 357.386 411.495 357.113 411.483 356.813H412.545C412.563 357.023 412.662 357.2 412.842 357.344C413.028 357.482 413.259 357.551 413.535 357.551C413.823 357.551 414.045 357.497 414.201 357.389C414.363 357.275 414.444 357.131 414.444 356.957C414.444 356.771 414.354 356.633 414.174 356.543C414 356.453 413.721 356.354 413.337 356.246C412.965 356.144 412.662 356.045 412.428 355.949C412.194 355.853 411.99 355.706 411.816 355.508C411.648 355.31 411.564 355.049 411.564 354.725C411.564 354.461 411.642 354.221 411.798 354.005C411.954 353.783 412.176 353.609 412.464 353.483C412.758 353.357 413.094 353.294 413.472 353.294C414.036 353.294 414.489 353.438 414.831 353.726C415.179 354.008 415.365 354.395 415.389 354.887H414.363C414.345 354.665 414.255 354.488 414.093 354.356C413.931 354.224 413.712 354.158 413.436 354.158C413.166 354.158 412.959 354.209 412.815 354.311C412.671 354.413 412.599 354.548 412.599 354.716C412.599 354.848 412.647 354.959 412.743 355.049C412.839 355.139 412.956 355.211 413.094 355.265C413.232 355.313 413.436 355.376 413.706 355.454C414.066 355.55 414.36 355.649 414.588 355.751C414.822 355.847 415.023 355.991 415.191 356.183C415.359 356.375 415.446 356.63 415.452 356.948C415.452 357.23 415.374 357.482 415.218 357.704C415.062 357.926 414.84 358.1 414.552 358.226C414.27 358.352 413.937 358.415 413.553 358.415ZM417.757 354.212V356.957C417.757 357.143 417.799 357.278 417.883 357.362C417.973 357.44 418.123 357.479 418.333 357.479H418.963V358.334H418.153C417.691 358.334 417.337 358.226 417.091 358.01C416.845 357.794 416.722 357.443 416.722 356.957V354.212H416.137V353.375H416.722V352.142H417.757V353.375H418.963V354.212H417.757ZM426.621 353.942C426.621 354.26 426.546 354.56 426.396 354.842C426.246 355.124 426.006 355.355 425.676 355.535C425.346 355.709 424.923 355.796 424.407 355.796H423.273V358.334H422.247V352.079H424.407C424.887 352.079 425.292 352.163 425.622 352.331C425.958 352.493 426.207 352.715 426.369 352.997C426.537 353.279 426.621 353.594 426.621 353.942ZM424.407 354.959C424.797 354.959 425.088 354.872 425.28 354.698C425.472 354.518 425.568 354.266 425.568 353.942C425.568 353.258 425.181 352.916 424.407 352.916H423.273V354.959H424.407ZM428.625 354.095C428.775 353.843 428.973 353.648 429.219 353.51C429.471 353.366 429.768 353.294 430.11 353.294V354.356H429.849C429.447 354.356 429.141 354.458 428.931 354.662C428.727 354.866 428.625 355.22 428.625 355.724V358.334H427.599V353.375H428.625V354.095ZM430.711 355.832C430.711 355.334 430.813 354.893 431.017 354.509C431.227 354.125 431.509 353.828 431.863 353.618C432.223 353.402 432.619 353.294 433.051 353.294C433.441 353.294 433.78 353.372 434.068 353.528C434.362 353.678 434.596 353.867 434.77 354.095V353.375H435.805V358.334H434.77V357.596C434.596 357.83 434.359 358.025 434.059 358.181C433.759 358.337 433.417 358.415 433.033 358.415C432.607 358.415 432.217 358.307 431.863 358.091C431.509 357.869 431.227 357.563 431.017 357.173C430.813 356.777 430.711 356.33 430.711 355.832ZM434.77 355.85C434.77 355.508 434.698 355.211 434.554 354.959C434.416 354.707 434.233 354.515 434.005 354.383C433.777 354.251 433.531 354.185 433.267 354.185C433.003 354.185 432.757 354.251 432.529 354.383C432.301 354.509 432.115 354.698 431.971 354.95C431.833 355.196 431.764 355.49 431.764 355.832C431.764 356.174 431.833 356.474 431.971 356.732C432.115 356.99 432.301 357.188 432.529 357.326C432.763 357.458 433.009 357.524 433.267 357.524C433.531 357.524 433.777 357.458 434.005 357.326C434.233 357.194 434.416 357.002 434.554 356.75C434.698 356.492 434.77 356.192 434.77 355.85ZM436.811 355.85C436.811 355.34 436.913 354.893 437.117 354.509C437.327 354.119 437.615 353.819 437.981 353.609C438.347 353.399 438.767 353.294 439.241 353.294C439.841 353.294 440.336 353.438 440.726 353.726C441.122 354.008 441.389 354.413 441.527 354.941H440.42C440.33 354.695 440.186 354.503 439.988 354.365C439.79 354.227 439.541 354.158 439.241 354.158C438.821 354.158 438.485 354.308 438.233 354.608C437.987 354.902 437.864 355.316 437.864 355.85C437.864 356.384 437.987 356.801 438.233 357.101C438.485 357.401 438.821 357.551 439.241 357.551C439.835 357.551 440.228 357.29 440.42 356.768H441.527C441.383 357.272 441.113 357.674 440.717 357.974C440.321 358.268 439.829 358.415 439.241 358.415C438.767 358.415 438.347 358.31 437.981 358.1C437.615 357.884 437.327 357.584 437.117 357.2C436.913 356.81 436.811 356.36 436.811 355.85ZM443.747 354.212V356.957C443.747 357.143 443.789 357.278 443.873 357.362C443.963 357.44 444.113 357.479 444.323 357.479H444.953V358.334H444.143C443.681 358.334 443.327 358.226 443.081 358.01C442.835 357.794 442.712 357.443 442.712 356.957V354.212H442.127V353.375H442.712V352.142H443.747V353.375H444.953V354.212H443.747ZM446.42 352.718C446.234 352.718 446.078 352.655 445.952 352.529C445.826 352.403 445.763 352.247 445.763 352.061C445.763 351.875 445.826 351.719 445.952 351.593C446.078 351.467 446.234 351.404 446.42 351.404C446.6 351.404 446.753 351.467 446.879 351.593C447.005 351.719 447.068 351.875 447.068 352.061C447.068 352.247 447.005 352.403 446.879 352.529C446.753 352.655 446.6 352.718 446.42 352.718ZM446.924 353.375V358.334H445.898V353.375H446.924ZM447.929 355.85C447.929 355.34 448.031 354.893 448.235 354.509C448.445 354.119 448.733 353.819 449.099 353.609C449.465 353.399 449.885 353.294 450.359 353.294C450.959 353.294 451.454 353.438 451.844 353.726C452.24 354.008 452.507 354.413 452.645 354.941H451.538C451.448 354.695 451.304 354.503 451.106 354.365C450.908 354.227 450.659 354.158 450.359 354.158C449.939 354.158 449.603 354.308 449.351 354.608C449.105 354.902 448.982 355.316 448.982 355.85C448.982 356.384 449.105 356.801 449.351 357.101C449.603 357.401 449.939 357.551 450.359 357.551C450.953 357.551 451.346 357.29 451.538 356.768H452.645C452.501 357.272 452.231 357.674 451.835 357.974C451.439 358.268 450.947 358.415 450.359 358.415C449.885 358.415 449.465 358.31 449.099 358.1C448.733 357.884 448.445 357.584 448.235 357.2C448.031 356.81 447.929 356.36 447.929 355.85ZM458.213 355.733C458.213 355.919 458.201 356.087 458.177 356.237H454.388C454.418 356.633 454.565 356.951 454.829 357.191C455.093 357.431 455.417 357.551 455.801 357.551C456.353 357.551 456.743 357.32 456.971 356.858H458.078C457.928 357.314 457.655 357.689 457.259 357.983C456.869 358.271 456.383 358.415 455.801 358.415C455.327 358.415 454.901 358.31 454.523 358.1C454.151 357.884 453.857 357.584 453.641 357.2C453.431 356.81 453.326 356.36 453.326 355.85C453.326 355.34 453.428 354.893 453.632 354.509C453.842 354.119 454.133 353.819 454.505 353.609C454.883 353.399 455.315 353.294 455.801 353.294C456.269 353.294 456.686 353.396 457.052 353.6C457.418 353.804 457.703 354.092 457.907 354.464C458.111 354.83 458.213 355.253 458.213 355.733ZM457.142 355.409C457.136 355.031 457.001 354.728 456.737 354.5C456.473 354.272 456.146 354.158 455.756 354.158C455.402 354.158 455.099 354.272 454.847 354.5C454.595 354.722 454.445 355.025 454.397 355.409H457.142ZM461.022 358.415C460.632 358.415 460.281 358.346 459.969 358.208C459.663 358.064 459.42 357.872 459.24 357.632C459.06 357.386 458.964 357.113 458.952 356.813H460.014C460.032 357.023 460.131 357.2 460.311 357.344C460.497 357.482 460.728 357.551 461.004 357.551C461.292 357.551 461.514 357.497 461.67 357.389C461.832 357.275 461.913 357.131 461.913 356.957C461.913 356.771 461.823 356.633 461.643 356.543C461.469 356.453 461.19 356.354 460.806 356.246C460.434 356.144 460.131 356.045 459.897 355.949C459.663 355.853 459.459 355.706 459.285 355.508C459.117 355.31 459.033 355.049 459.033 354.725C459.033 354.461 459.111 354.221 459.267 354.005C459.423 353.783 459.645 353.609 459.933 353.483C460.227 353.357 460.563 353.294 460.941 353.294C461.505 353.294 461.958 353.438 462.3 353.726C462.648 354.008 462.834 354.395 462.858 354.887H461.832C461.814 354.665 461.724 354.488 461.562 354.356C461.4 354.224 461.181 354.158 460.905 354.158C460.635 354.158 460.428 354.209 460.284 354.311C460.14 354.413 460.068 354.548 460.068 354.716C460.068 354.848 460.116 354.959 460.212 355.049C460.308 355.139 460.425 355.211 460.563 355.265C460.701 355.313 460.905 355.376 461.175 355.454C461.535 355.55 461.829 355.649 462.057 355.751C462.291 355.847 462.492 355.991 462.66 356.183C462.828 356.375 462.915 356.63 462.921 356.948C462.921 357.23 462.843 357.482 462.687 357.704C462.531 357.926 462.309 358.1 462.021 358.226C461.739 358.352 461.406 358.415 461.022 358.415Z" fill="#74788D"/>
<circle cx="393.541" cy="355.07" r="4.20845" fill="#F1B44C"/>
<path d="M265.761 357.056H263.142L262.692 358.334H261.621L263.862 352.07H265.05L267.291 358.334H266.211L265.761 357.056ZM265.473 356.219L264.456 353.312L263.43 356.219H265.473ZM267.923 355.85C267.923 355.34 268.025 354.893 268.229 354.509C268.439 354.119 268.727 353.819 269.093 353.609C269.459 353.399 269.879 353.294 270.353 353.294C270.953 353.294 271.448 353.438 271.838 353.726C272.234 354.008 272.501 354.413 272.639 354.941H271.532C271.442 354.695 271.298 354.503 271.1 354.365C270.902 354.227 270.653 354.158 270.353 354.158C269.933 354.158 269.597 354.308 269.345 354.608C269.099 354.902 268.976 355.316 268.976 355.85C268.976 356.384 269.099 356.801 269.345 357.101C269.597 357.401 269.933 357.551 270.353 357.551C270.947 357.551 271.34 357.29 271.532 356.768H272.639C272.495 357.272 272.225 357.674 271.829 357.974C271.433 358.268 270.941 358.415 270.353 358.415C269.879 358.415 269.459 358.31 269.093 358.1C268.727 357.884 268.439 357.584 268.229 357.2C268.025 356.81 267.923 356.36 267.923 355.85ZM273.32 355.85C273.32 355.34 273.422 354.893 273.626 354.509C273.836 354.119 274.124 353.819 274.49 353.609C274.856 353.399 275.276 353.294 275.75 353.294C276.35 353.294 276.845 353.438 277.235 353.726C277.631 354.008 277.898 354.413 278.036 354.941H276.929C276.839 354.695 276.695 354.503 276.497 354.365C276.299 354.227 276.05 354.158 275.75 354.158C275.33 354.158 274.994 354.308 274.742 354.608C274.496 354.902 274.373 355.316 274.373 355.85C274.373 356.384 274.496 356.801 274.742 357.101C274.994 357.401 275.33 357.551 275.75 357.551C276.344 357.551 276.737 357.29 276.929 356.768H278.036C277.892 357.272 277.622 357.674 277.226 357.974C276.83 358.268 276.338 358.415 275.75 358.415C275.276 358.415 274.856 358.31 274.49 358.1C274.124 357.884 273.836 357.584 273.626 357.2C273.422 356.81 273.32 356.36 273.32 355.85ZM283.603 355.733C283.603 355.919 283.591 356.087 283.567 356.237H279.778C279.808 356.633 279.955 356.951 280.219 357.191C280.483 357.431 280.807 357.551 281.191 357.551C281.743 357.551 282.133 357.32 282.361 356.858H283.468C283.318 357.314 283.045 357.689 282.649 357.983C282.259 358.271 281.773 358.415 281.191 358.415C280.717 358.415 280.291 358.31 279.913 358.1C279.541 357.884 279.247 357.584 279.031 357.2C278.821 356.81 278.716 356.36 278.716 355.85C278.716 355.34 278.818 354.893 279.022 354.509C279.232 354.119 279.523 353.819 279.895 353.609C280.273 353.399 280.705 353.294 281.191 353.294C281.659 353.294 282.076 353.396 282.442 353.6C282.808 353.804 283.093 354.092 283.297 354.464C283.501 354.83 283.603 355.253 283.603 355.733ZM282.532 355.409C282.526 355.031 282.391 354.728 282.127 354.5C281.863 354.272 281.536 354.158 281.146 354.158C280.792 354.158 280.489 354.272 280.237 354.5C279.985 354.722 279.835 355.025 279.787 355.409H282.532ZM286.413 358.415C286.023 358.415 285.672 358.346 285.36 358.208C285.054 358.064 284.811 357.872 284.631 357.632C284.451 357.386 284.355 357.113 284.343 356.813H285.405C285.423 357.023 285.522 357.2 285.702 357.344C285.888 357.482 286.119 357.551 286.395 357.551C286.683 357.551 286.905 357.497 287.061 357.389C287.223 357.275 287.304 357.131 287.304 356.957C287.304 356.771 287.214 356.633 287.034 356.543C286.86 356.453 286.581 356.354 286.197 356.246C285.825 356.144 285.522 356.045 285.288 355.949C285.054 355.853 284.85 355.706 284.676 355.508C284.508 355.31 284.424 355.049 284.424 354.725C284.424 354.461 284.502 354.221 284.658 354.005C284.814 353.783 285.036 353.609 285.324 353.483C285.618 353.357 285.954 353.294 286.332 353.294C286.896 353.294 287.349 353.438 287.691 353.726C288.039 354.008 288.225 354.395 288.249 354.887H287.223C287.205 354.665 287.115 354.488 286.953 354.356C286.791 354.224 286.572 354.158 286.296 354.158C286.026 354.158 285.819 354.209 285.675 354.311C285.531 354.413 285.459 354.548 285.459 354.716C285.459 354.848 285.507 354.959 285.603 355.049C285.699 355.139 285.816 355.211 285.954 355.265C286.092 355.313 286.296 355.376 286.566 355.454C286.926 355.55 287.22 355.649 287.448 355.751C287.682 355.847 287.883 355.991 288.051 356.183C288.219 356.375 288.306 356.63 288.312 356.948C288.312 357.23 288.234 357.482 288.078 357.704C287.922 357.926 287.7 358.1 287.412 358.226C287.13 358.352 286.797 358.415 286.413 358.415ZM291.221 358.415C290.831 358.415 290.48 358.346 290.168 358.208C289.862 358.064 289.619 357.872 289.439 357.632C289.259 357.386 289.163 357.113 289.151 356.813H290.213C290.231 357.023 290.33 357.2 290.51 357.344C290.696 357.482 290.927 357.551 291.203 357.551C291.491 357.551 291.713 357.497 291.869 357.389C292.031 357.275 292.112 357.131 292.112 356.957C292.112 356.771 292.022 356.633 291.842 356.543C291.668 356.453 291.389 356.354 291.005 356.246C290.633 356.144 290.33 356.045 290.096 355.949C289.862 355.853 289.658 355.706 289.484 355.508C289.316 355.31 289.232 355.049 289.232 354.725C289.232 354.461 289.31 354.221 289.466 354.005C289.622 353.783 289.844 353.609 290.132 353.483C290.426 353.357 290.762 353.294 291.14 353.294C291.704 353.294 292.157 353.438 292.499 353.726C292.847 354.008 293.033 354.395 293.057 354.887H292.031C292.013 354.665 291.923 354.488 291.761 354.356C291.599 354.224 291.38 354.158 291.104 354.158C290.834 354.158 290.627 354.209 290.483 354.311C290.339 354.413 290.267 354.548 290.267 354.716C290.267 354.848 290.315 354.959 290.411 355.049C290.507 355.139 290.624 355.211 290.762 355.265C290.9 355.313 291.104 355.376 291.374 355.454C291.734 355.55 292.028 355.649 292.256 355.751C292.49 355.847 292.691 355.991 292.859 356.183C293.027 356.375 293.114 356.63 293.12 356.948C293.12 357.23 293.042 357.482 292.886 357.704C292.73 357.926 292.508 358.1 292.22 358.226C291.938 358.352 291.605 358.415 291.221 358.415ZM294.75 352.718C294.564 352.718 294.408 352.655 294.282 352.529C294.156 352.403 294.093 352.247 294.093 352.061C294.093 351.875 294.156 351.719 294.282 351.593C294.408 351.467 294.564 351.404 294.75 351.404C294.93 351.404 295.083 351.467 295.209 351.593C295.335 351.719 295.398 351.875 295.398 352.061C295.398 352.247 295.335 352.403 295.209 352.529C295.083 352.655 294.93 352.718 294.75 352.718ZM295.254 353.375V358.334H294.228V353.375H295.254ZM297.627 354.113C297.801 353.873 298.038 353.678 298.338 353.528C298.644 353.372 298.983 353.294 299.355 353.294C299.793 353.294 300.189 353.399 300.543 353.609C300.897 353.819 301.176 354.119 301.38 354.509C301.584 354.893 301.686 355.334 301.686 355.832C301.686 356.33 301.584 356.777 301.38 357.173C301.176 357.563 300.894 357.869 300.534 358.091C300.18 358.307 299.787 358.415 299.355 358.415C298.971 358.415 298.629 358.34 298.329 358.19C298.035 358.04 297.801 357.848 297.627 357.614V358.334H296.601V351.674H297.627V354.113ZM300.642 355.832C300.642 355.49 300.57 355.196 300.426 354.95C300.288 354.698 300.102 354.509 299.868 354.383C299.64 354.251 299.394 354.185 299.13 354.185C298.872 354.185 298.626 354.251 298.392 354.383C298.164 354.515 297.978 354.707 297.834 354.959C297.696 355.211 297.627 355.508 297.627 355.85C297.627 356.192 297.696 356.492 297.834 356.75C297.978 357.002 298.164 357.194 298.392 357.326C298.626 357.458 298.872 357.524 299.13 357.524C299.394 357.524 299.64 357.458 299.868 357.326C300.102 357.188 300.288 356.99 300.426 356.732C300.57 356.474 300.642 356.174 300.642 355.832ZM303.223 352.718C303.037 352.718 302.881 352.655 302.755 352.529C302.629 352.403 302.566 352.247 302.566 352.061C302.566 351.875 302.629 351.719 302.755 351.593C302.881 351.467 303.037 351.404 303.223 351.404C303.403 351.404 303.556 351.467 303.682 351.593C303.808 351.719 303.871 351.875 303.871 352.061C303.871 352.247 303.808 352.403 303.682 352.529C303.556 352.655 303.403 352.718 303.223 352.718ZM303.727 353.375V358.334H302.701V353.375H303.727ZM306.1 351.674V358.334H305.074V351.674H306.1ZM307.969 352.718C307.783 352.718 307.627 352.655 307.501 352.529C307.375 352.403 307.312 352.247 307.312 352.061C307.312 351.875 307.375 351.719 307.501 351.593C307.627 351.467 307.783 351.404 307.969 351.404C308.149 351.404 308.302 351.467 308.428 351.593C308.554 351.719 308.617 351.875 308.617 352.061C308.617 352.247 308.554 352.403 308.428 352.529C308.302 352.655 308.149 352.718 307.969 352.718ZM308.473 353.375V358.334H307.447V353.375H308.473ZM311.017 354.212V356.957C311.017 357.143 311.059 357.278 311.143 357.362C311.233 357.44 311.383 357.479 311.593 357.479H312.223V358.334H311.413C310.951 358.334 310.597 358.226 310.351 358.01C310.105 357.794 309.982 357.443 309.982 356.957V354.212H309.397V353.375H309.982V352.142H311.017V353.375H312.223V354.212H311.017ZM317.633 353.375L314.591 360.665H313.529L314.537 358.253L312.584 353.375H313.727L315.122 357.155L316.571 353.375H317.633Z" fill="#74788D"/>
<circle cx="255.002" cy="355.07" r="4.20845" fill="#556EE6"/>
<path d="M171.494 353.942C171.494 354.26 171.419 354.56 171.269 354.842C171.119 355.124 170.879 355.355 170.549 355.535C170.219 355.709 169.796 355.796 169.28 355.796H168.146V358.334H167.12V352.079H169.28C169.76 352.079 170.165 352.163 170.495 352.331C170.831 352.493 171.08 352.715 171.242 352.997C171.41 353.279 171.494 353.594 171.494 353.942ZM169.28 354.959C169.67 354.959 169.961 354.872 170.153 354.698C170.345 354.518 170.441 354.266 170.441 353.942C170.441 353.258 170.054 352.916 169.28 352.916H168.146V354.959H169.28ZM177.017 355.733C177.017 355.919 177.005 356.087 176.981 356.237H173.192C173.222 356.633 173.369 356.951 173.633 357.191C173.897 357.431 174.221 357.551 174.605 357.551C175.157 357.551 175.547 357.32 175.775 356.858H176.882C176.732 357.314 176.459 357.689 176.063 357.983C175.673 358.271 175.187 358.415 174.605 358.415C174.131 358.415 173.705 358.31 173.327 358.1C172.955 357.884 172.661 357.584 172.445 357.2C172.235 356.81 172.13 356.36 172.13 355.85C172.13 355.34 172.232 354.893 172.436 354.509C172.646 354.119 172.937 353.819 173.309 353.609C173.687 353.399 174.119 353.294 174.605 353.294C175.073 353.294 175.49 353.396 175.856 353.6C176.222 353.804 176.507 354.092 176.711 354.464C176.915 354.83 177.017 355.253 177.017 355.733ZM175.946 355.409C175.94 355.031 175.805 354.728 175.541 354.5C175.277 354.272 174.95 354.158 174.56 354.158C174.206 354.158 173.903 354.272 173.651 354.5C173.399 354.722 173.249 355.025 173.201 355.409H175.946ZM179.053 354.095C179.203 353.843 179.401 353.648 179.647 353.51C179.899 353.366 180.196 353.294 180.538 353.294V354.356H180.277C179.875 354.356 179.569 354.458 179.359 354.662C179.155 354.866 179.053 355.22 179.053 355.724V358.334H178.027V353.375H179.053V354.095ZM183.56 354.212H182.642V358.334H181.607V354.212H181.022V353.375H181.607V353.024C181.607 352.454 181.757 352.04 182.057 351.782C182.363 351.518 182.84 351.386 183.488 351.386V352.241C183.176 352.241 182.957 352.301 182.831 352.421C182.705 352.535 182.642 352.736 182.642 353.024V353.375H183.56V354.212ZM186.62 358.415C186.152 358.415 185.729 358.31 185.351 358.1C184.973 357.884 184.676 357.584 184.46 357.2C184.244 356.81 184.136 356.36 184.136 355.85C184.136 355.346 184.247 354.899 184.469 354.509C184.691 354.119 184.994 353.819 185.378 353.609C185.762 353.399 186.191 353.294 186.665 353.294C187.139 353.294 187.568 353.399 187.952 353.609C188.336 353.819 188.639 354.119 188.861 354.509C189.083 354.899 189.194 355.346 189.194 355.85C189.194 356.354 189.08 356.801 188.852 357.191C188.624 357.581 188.312 357.884 187.916 358.1C187.526 358.31 187.094 358.415 186.62 358.415ZM186.62 357.524C186.884 357.524 187.13 357.461 187.358 357.335C187.592 357.209 187.781 357.02 187.925 356.768C188.069 356.516 188.141 356.21 188.141 355.85C188.141 355.49 188.072 355.187 187.934 354.941C187.796 354.689 187.613 354.5 187.385 354.374C187.157 354.248 186.911 354.185 186.647 354.185C186.383 354.185 186.137 354.248 185.909 354.374C185.687 354.5 185.51 354.689 185.378 354.941C185.246 355.187 185.18 355.49 185.18 355.85C185.18 356.384 185.315 356.798 185.585 357.092C185.861 357.38 186.206 357.524 186.62 357.524ZM191.235 354.095C191.385 353.843 191.583 353.648 191.829 353.51C192.081 353.366 192.378 353.294 192.72 353.294V354.356H192.459C192.057 354.356 191.751 354.458 191.541 354.662C191.337 354.866 191.235 355.22 191.235 355.724V358.334H190.209V353.375H191.235V354.095ZM199.666 353.294C200.056 353.294 200.404 353.375 200.71 353.537C201.022 353.699 201.265 353.939 201.439 354.257C201.619 354.575 201.709 354.959 201.709 355.409V358.334H200.692V355.562C200.692 355.118 200.581 354.779 200.359 354.545C200.137 354.305 199.834 354.185 199.45 354.185C199.066 354.185 198.76 354.305 198.532 354.545C198.31 354.779 198.199 355.118 198.199 355.562V358.334H197.182V355.562C197.182 355.118 197.071 354.779 196.849 354.545C196.627 354.305 196.324 354.185 195.94 354.185C195.556 354.185 195.25 354.305 195.022 354.545C194.8 354.779 194.689 355.118 194.689 355.562V358.334H193.663V353.375H194.689V353.942C194.857 353.738 195.07 353.579 195.328 353.465C195.586 353.351 195.862 353.294 196.156 353.294C196.552 353.294 196.906 353.378 197.218 353.546C197.53 353.714 197.77 353.957 197.938 354.275C198.088 353.975 198.322 353.738 198.64 353.564C198.958 353.384 199.3 353.294 199.666 353.294ZM202.672 355.832C202.672 355.334 202.774 354.893 202.978 354.509C203.188 354.125 203.47 353.828 203.824 353.618C204.184 353.402 204.58 353.294 205.012 353.294C205.402 353.294 205.741 353.372 206.029 353.528C206.323 353.678 206.557 353.867 206.731 354.095V353.375H207.766V358.334H206.731V357.596C206.557 357.83 206.32 358.025 206.02 358.181C205.72 358.337 205.378 358.415 204.994 358.415C204.568 358.415 204.178 358.307 203.824 358.091C203.47 357.869 203.188 357.563 202.978 357.173C202.774 356.777 202.672 356.33 202.672 355.832ZM206.731 355.85C206.731 355.508 206.659 355.211 206.515 354.959C206.377 354.707 206.194 354.515 205.966 354.383C205.738 354.251 205.492 354.185 205.228 354.185C204.964 354.185 204.718 354.251 204.49 354.383C204.262 354.509 204.076 354.698 203.932 354.95C203.794 355.196 203.725 355.49 203.725 355.832C203.725 356.174 203.794 356.474 203.932 356.732C204.076 356.99 204.262 357.188 204.49 357.326C204.724 357.458 204.97 357.524 205.228 357.524C205.492 357.524 205.738 357.458 205.966 357.326C206.194 357.194 206.377 357.002 206.515 356.75C206.659 356.492 206.731 356.192 206.731 355.85ZM211.616 353.294C212.006 353.294 212.354 353.375 212.66 353.537C212.972 353.699 213.215 353.939 213.389 354.257C213.563 354.575 213.65 354.959 213.65 355.409V358.334H212.633V355.562C212.633 355.118 212.522 354.779 212.3 354.545C212.078 354.305 211.775 354.185 211.391 354.185C211.007 354.185 210.701 354.305 210.473 354.545C210.251 354.779 210.14 355.118 210.14 355.562V358.334H209.114V353.375H210.14V353.942C210.308 353.738 210.521 353.579 210.779 353.465C211.043 353.351 211.322 353.294 211.616 353.294ZM214.617 355.85C214.617 355.34 214.719 354.893 214.923 354.509C215.133 354.119 215.421 353.819 215.787 353.609C216.153 353.399 216.573 353.294 217.047 353.294C217.647 353.294 218.142 353.438 218.532 353.726C218.928 354.008 219.195 354.413 219.333 354.941H218.226C218.136 354.695 217.992 354.503 217.794 354.365C217.596 354.227 217.347 354.158 217.047 354.158C216.627 354.158 216.291 354.308 216.039 354.608C215.793 354.902 215.67 355.316 215.67 355.85C215.67 356.384 215.793 356.801 216.039 357.101C216.291 357.401 216.627 357.551 217.047 357.551C217.641 357.551 218.034 357.29 218.226 356.768H219.333C219.189 357.272 218.919 357.674 218.523 357.974C218.127 358.268 217.635 358.415 217.047 358.415C216.573 358.415 216.153 358.31 215.787 358.1C215.421 357.884 215.133 357.584 214.923 357.2C214.719 356.81 214.617 356.36 214.617 355.85ZM224.9 355.733C224.9 355.919 224.888 356.087 224.864 356.237H221.075C221.105 356.633 221.252 356.951 221.516 357.191C221.78 357.431 222.104 357.551 222.488 357.551C223.04 357.551 223.43 357.32 223.658 356.858H224.765C224.615 357.314 224.342 357.689 223.946 357.983C223.556 358.271 223.07 358.415 222.488 358.415C222.014 358.415 221.588 358.31 221.21 358.1C220.838 357.884 220.544 357.584 220.328 357.2C220.118 356.81 220.013 356.36 220.013 355.85C220.013 355.34 220.115 354.893 220.319 354.509C220.529 354.119 220.82 353.819 221.192 353.609C221.57 353.399 222.002 353.294 222.488 353.294C222.956 353.294 223.373 353.396 223.739 353.6C224.105 353.804 224.39 354.092 224.594 354.464C224.798 354.83 224.9 355.253 224.9 355.733ZM223.829 355.409C223.823 355.031 223.688 354.728 223.424 354.5C223.16 354.272 222.833 354.158 222.443 354.158C222.089 354.158 221.786 354.272 221.534 354.5C221.282 354.722 221.132 355.025 221.084 355.409H223.829Z" fill="#74788D"/>
<circle cx="160.132" cy="355.07" r="4.20845" fill="#34C38F"/>
<path d="M112.171 270.49C112.171 269.229 112.377 268.246 112.787 267.542C113.198 266.831 113.917 266.475 114.943 266.475C115.963 266.475 116.678 266.831 117.088 267.542C117.499 268.246 117.704 269.229 117.704 270.49C117.704 271.773 117.499 272.771 117.088 273.482C116.678 274.193 115.963 274.549 114.943 274.549C113.917 274.549 113.198 274.193 112.787 273.482C112.377 272.771 112.171 271.773 112.171 270.49ZM116.714 270.49C116.714 269.852 116.67 269.313 116.582 268.873C116.502 268.426 116.329 268.066 116.065 267.795C115.809 267.524 115.435 267.388 114.943 267.388C114.445 267.388 114.063 267.524 113.799 267.795C113.543 268.066 113.37 268.426 113.282 268.873C113.202 269.313 113.161 269.852 113.161 270.49C113.161 271.15 113.202 271.704 113.282 272.151C113.37 272.598 113.543 272.958 113.799 273.229C114.063 273.5 114.445 273.636 114.943 273.636C115.435 273.636 115.809 273.5 116.065 273.229C116.329 272.958 116.502 272.598 116.582 272.151C116.67 271.704 116.714 271.15 116.714 270.49Z" fill="#ADB5BD"/>
<path d="M105.345 239.841C106.277 239.093 107.006 238.48 107.534 238.004C108.062 237.52 108.506 237.017 108.865 236.497C109.232 235.969 109.415 235.452 109.415 234.946C109.415 234.469 109.298 234.095 109.063 233.824C108.836 233.545 108.466 233.406 107.952 233.406C107.454 233.406 107.065 233.563 106.786 233.879C106.515 234.187 106.368 234.601 106.346 235.122H105.378C105.408 234.3 105.657 233.666 106.126 233.219C106.596 232.771 107.201 232.548 107.941 232.548C108.697 232.548 109.294 232.757 109.734 233.175C110.182 233.593 110.405 234.168 110.405 234.902C110.405 235.51 110.222 236.104 109.855 236.684C109.496 237.256 109.085 237.762 108.623 238.202C108.161 238.634 107.571 239.14 106.852 239.72H110.636V240.556H105.345V239.841ZM111.793 236.585C111.793 235.323 111.999 234.341 112.409 233.637C112.82 232.925 113.539 232.57 114.565 232.57C115.585 232.57 116.3 232.925 116.71 233.637C117.121 234.341 117.326 235.323 117.326 236.585C117.326 237.868 117.121 238.865 116.71 239.577C116.3 240.288 115.585 240.644 114.565 240.644C113.539 240.644 112.82 240.288 112.409 239.577C111.999 238.865 111.793 237.868 111.793 236.585ZM116.336 236.585C116.336 235.947 116.292 235.408 116.204 234.968C116.124 234.52 115.951 234.161 115.687 233.89C115.431 233.618 115.057 233.483 114.565 233.483C114.067 233.483 113.685 233.618 113.421 233.89C113.165 234.161 112.992 234.52 112.904 234.968C112.824 235.408 112.783 235.947 112.783 236.585C112.783 237.245 112.824 237.798 112.904 238.246C112.992 238.693 113.165 239.052 113.421 239.324C113.685 239.595 114.067 239.731 114.565 239.731C115.057 239.731 115.431 239.595 115.687 239.324C115.951 239.052 116.124 238.693 116.204 238.246C116.292 237.798 116.336 237.245 116.336 236.585Z" fill="#ADB5BD"/>
<path d="M104.597 204.967V204.208L108.458 198.862H109.657V204.098H110.757V204.967H109.657V206.738H108.667V204.967H104.597ZM108.711 199.907L105.752 204.098H108.711V199.907ZM111.757 202.679C111.757 201.418 111.963 200.435 112.373 199.731C112.784 199.02 113.503 198.664 114.529 198.664C115.549 198.664 116.264 199.02 116.674 199.731C117.085 200.435 117.29 201.418 117.29 202.679C117.29 203.963 117.085 204.96 116.674 205.671C116.264 206.383 115.549 206.738 114.529 206.738C113.503 206.738 112.784 206.383 112.373 205.671C111.963 204.96 111.757 203.963 111.757 202.679ZM116.3 202.679C116.3 202.041 116.256 201.502 116.168 201.062C116.088 200.615 115.915 200.256 115.651 199.984C115.395 199.713 115.021 199.577 114.529 199.577C114.031 199.577 113.649 199.713 113.385 199.984C113.129 200.256 112.956 200.615 112.868 201.062C112.788 201.502 112.747 202.041 112.747 202.679C112.747 203.339 112.788 203.893 112.868 204.34C112.956 204.788 113.129 205.147 113.385 205.418C113.649 205.69 114.031 205.825 114.529 205.825C115.021 205.825 115.395 205.69 115.651 205.418C115.915 205.147 116.088 204.788 116.168 204.34C116.256 203.893 116.3 203.339 116.3 202.679Z" fill="#ADB5BD"/>
<path d="M109.261 166.772C109.099 165.958 108.597 165.551 107.754 165.551C107.101 165.551 106.613 165.804 106.291 166.31C105.968 166.809 105.81 167.634 105.818 168.785C105.986 168.404 106.265 168.107 106.654 167.894C107.05 167.674 107.49 167.564 107.974 167.564C108.729 167.564 109.33 167.799 109.778 168.268C110.232 168.737 110.46 169.386 110.46 170.215C110.46 170.714 110.361 171.161 110.163 171.557C109.972 171.953 109.679 172.268 109.283 172.503C108.894 172.738 108.421 172.855 107.864 172.855C107.108 172.855 106.518 172.686 106.093 172.349C105.667 172.012 105.37 171.546 105.202 170.952C105.033 170.358 104.949 169.625 104.949 168.752C104.949 166.061 105.887 164.715 107.765 164.715C108.483 164.715 109.048 164.909 109.459 165.298C109.869 165.687 110.111 166.178 110.185 166.772H109.261ZM107.765 168.411C107.449 168.411 107.152 168.477 106.874 168.609C106.595 168.734 106.368 168.928 106.192 169.192C106.023 169.449 105.939 169.764 105.939 170.138C105.939 170.695 106.1 171.15 106.423 171.502C106.745 171.847 107.207 172.019 107.809 172.019C108.322 172.019 108.729 171.861 109.03 171.546C109.338 171.223 109.492 170.791 109.492 170.248C109.492 169.676 109.345 169.229 109.052 168.906C108.758 168.576 108.329 168.411 107.765 168.411ZM111.81 168.774C111.81 167.513 112.016 166.53 112.426 165.826C112.837 165.115 113.556 164.759 114.582 164.759C115.602 164.759 116.317 165.115 116.727 165.826C117.138 166.53 117.343 167.513 117.343 168.774C117.343 170.057 117.138 171.055 116.727 171.766C116.317 172.477 115.602 172.833 114.582 172.833C113.556 172.833 112.837 172.477 112.426 171.766C112.016 171.055 111.81 170.057 111.81 168.774ZM116.353 168.774C116.353 168.136 116.309 167.597 116.221 167.157C116.141 166.71 115.968 166.35 115.704 166.079C115.448 165.808 115.074 165.672 114.582 165.672C114.084 165.672 113.702 165.808 113.438 166.079C113.182 166.35 113.009 166.71 112.921 167.157C112.841 167.597 112.8 168.136 112.8 168.774C112.8 169.434 112.841 169.988 112.921 170.435C113.009 170.882 113.182 171.242 113.438 171.513C113.702 171.784 114.084 171.92 114.582 171.92C115.074 171.92 115.448 171.784 115.704 171.513C115.968 171.242 116.141 170.882 116.221 170.435C116.309 169.988 116.353 169.434 116.353 168.774Z" fill="#ADB5BD"/>
<path d="M106.233 134.792C105.822 134.63 105.507 134.396 105.287 134.088C105.067 133.78 104.957 133.406 104.957 132.966C104.957 132.57 105.056 132.214 105.254 131.899C105.452 131.576 105.745 131.323 106.134 131.14C106.53 130.949 107.006 130.854 107.564 130.854C108.121 130.854 108.594 130.949 108.983 131.14C109.379 131.323 109.676 131.576 109.874 131.899C110.079 132.214 110.182 132.57 110.182 132.966C110.182 133.391 110.068 133.765 109.841 134.088C109.613 134.403 109.302 134.638 108.906 134.792C109.36 134.931 109.72 135.177 109.984 135.529C110.255 135.873 110.391 136.291 110.391 136.783C110.391 137.259 110.273 137.677 110.039 138.037C109.804 138.389 109.47 138.664 109.038 138.862C108.612 139.052 108.121 139.148 107.564 139.148C107.006 139.148 106.515 139.052 106.09 138.862C105.672 138.664 105.345 138.389 105.111 138.037C104.876 137.677 104.759 137.259 104.759 136.783C104.759 136.291 104.891 135.87 105.155 135.518C105.419 135.166 105.778 134.924 106.233 134.792ZM109.214 133.087C109.214 132.639 109.067 132.295 108.774 132.053C108.48 131.811 108.077 131.69 107.564 131.69C107.058 131.69 106.658 131.811 106.365 132.053C106.071 132.295 105.925 132.643 105.925 133.098C105.925 133.508 106.075 133.838 106.376 134.088C106.684 134.337 107.08 134.462 107.564 134.462C108.055 134.462 108.451 134.337 108.752 134.088C109.06 133.831 109.214 133.497 109.214 133.087ZM107.564 135.232C107.021 135.232 106.577 135.36 106.233 135.617C105.888 135.866 105.716 136.244 105.716 136.75C105.716 137.219 105.881 137.597 106.211 137.883C106.548 138.169 106.999 138.312 107.564 138.312C108.128 138.312 108.576 138.169 108.906 137.883C109.236 137.597 109.401 137.219 109.401 136.75C109.401 136.258 109.232 135.884 108.895 135.628C108.557 135.364 108.114 135.232 107.564 135.232ZM111.72 134.869C111.72 133.607 111.925 132.625 112.336 131.921C112.747 131.209 113.465 130.854 114.492 130.854C115.511 130.854 116.226 131.209 116.637 131.921C117.048 132.625 117.253 133.607 117.253 134.869C117.253 136.152 117.048 137.149 116.637 137.861C116.226 138.572 115.511 138.928 114.492 138.928C113.465 138.928 112.747 138.572 112.336 137.861C111.925 137.149 111.72 136.152 111.72 134.869ZM116.263 134.869C116.263 134.231 116.219 133.692 116.131 133.252C116.05 132.804 115.878 132.445 115.614 132.174C115.357 131.902 114.983 131.767 114.492 131.767C113.993 131.767 113.612 131.902 113.348 132.174C113.091 132.445 112.919 132.804 112.831 133.252C112.75 133.692 112.71 134.231 112.71 134.869C112.71 135.529 112.75 136.082 112.831 136.53C112.919 136.977 113.091 137.336 113.348 137.608C113.612 137.879 113.993 138.015 114.492 138.015C114.983 138.015 115.357 137.879 115.614 137.608C115.878 137.336 116.05 136.977 116.131 136.53C116.219 136.082 116.263 135.529 116.263 134.869Z" fill="#ADB5BD"/>
<path d="M101.252 97.9823V97.0693H103.32V105.022H102.308V97.9823H101.252ZM105.04 100.963C105.04 99.702 105.245 98.7193 105.656 98.0153C106.067 97.304 106.785 96.9483 107.812 96.9483C108.831 96.9483 109.546 97.304 109.957 98.0153C110.368 98.7193 110.573 99.702 110.573 100.963C110.573 102.247 110.368 103.244 109.957 103.955C109.546 104.667 108.831 105.022 107.812 105.022C106.785 105.022 106.067 104.667 105.656 103.955C105.245 103.244 105.04 102.247 105.04 100.963ZM109.583 100.963C109.583 100.325 109.539 99.7863 109.451 99.3463C109.37 98.899 109.198 98.5397 108.934 98.2683C108.677 97.997 108.303 97.8613 107.812 97.8613C107.313 97.8613 106.932 97.997 106.668 98.2683C106.411 98.5397 106.239 98.899 106.151 99.3463C106.07 99.7863 106.03 100.325 106.03 100.963C106.03 101.623 106.07 102.177 106.151 102.624C106.239 103.072 106.411 103.431 106.668 103.702C106.932 103.974 107.313 104.109 107.812 104.109C108.303 104.109 108.677 103.974 108.934 103.702C109.198 103.431 109.37 103.072 109.451 102.624C109.539 102.177 109.583 101.623 109.583 100.963ZM111.947 100.963C111.947 99.702 112.152 98.7193 112.563 98.0153C112.974 97.304 113.692 96.9483 114.719 96.9483C115.738 96.9483 116.453 97.304 116.864 98.0153C117.275 98.7193 117.48 99.702 117.48 100.963C117.48 102.247 117.275 103.244 116.864 103.955C116.453 104.667 115.738 105.022 114.719 105.022C113.692 105.022 112.974 104.667 112.563 103.955C112.152 103.244 111.947 102.247 111.947 100.963ZM116.49 100.963C116.49 100.325 116.446 99.7863 116.358 99.3463C116.277 98.899 116.105 98.5397 115.841 98.2683C115.584 97.997 115.21 97.8613 114.719 97.8613C114.22 97.8613 113.839 97.997 113.575 98.2683C113.318 98.5397 113.146 98.899 113.058 99.3463C112.977 99.7863 112.937 100.325 112.937 100.963C112.937 101.623 112.977 102.177 113.058 102.624C113.146 103.072 113.318 103.431 113.575 103.702C113.839 103.974 114.22 104.109 114.719 104.109C115.21 104.109 115.584 103.974 115.841 103.702C116.105 103.431 116.277 103.072 116.358 102.624C116.446 102.177 116.49 101.623 116.49 100.963Z" fill="#ADB5BD"/>
<rect x="128.691" y="277.241" width="378.197" height="1.13018" fill="#E0E0E0"/>
<rect x="128.691" y="243.336" width="378.197" height="1.13018" fill="#F8F9FA"/>
<rect x="128.691" y="209.43" width="378.197" height="1.13018" fill="#F8F9FA"/>
<rect x="128.691" y="174.395" width="378.197" height="1.13018" fill="#F8F9FA"/>
<rect x="128.691" y="139.359" width="378.197" height="1.13018" fill="#F8F9FA"/>
<rect x="128.691" y="105.454" width="378.197" height="1.13018" fill="#F8F9FA"/>
<rect x="482.647" y="278.371" width="1.07506" height="5.65088" fill="#E0E0E0"/>
<rect x="372.611" y="278.371" width="1.07506" height="5.65088" fill="#E0E0E0"/>
<rect x="262.575" y="278.371" width="1.07506" height="5.65088" fill="#E0E0E0"/>
<path d="M134.818 303.507C133.977 303.507 133.21 303.312 132.517 302.922C131.823 302.524 131.273 301.973 130.866 301.271C130.467 300.561 130.268 299.763 130.268 298.879C130.268 297.995 130.467 297.202 130.866 296.5C131.273 295.79 131.823 295.239 132.517 294.849C133.21 294.451 133.977 294.251 134.818 294.251C135.667 294.251 136.438 294.451 137.132 294.849C137.825 295.239 138.371 295.785 138.77 296.487C139.168 297.189 139.368 297.987 139.368 298.879C139.368 299.772 139.168 300.569 138.77 301.271C138.371 301.973 137.825 302.524 137.132 302.922C136.438 303.312 135.667 303.507 134.818 303.507ZM134.818 302.48C135.45 302.48 136.018 302.333 136.521 302.038C137.032 301.744 137.431 301.323 137.717 300.777C138.011 300.231 138.159 299.599 138.159 298.879C138.159 298.151 138.011 297.519 137.717 296.981C137.431 296.435 137.036 296.015 136.534 295.72C136.031 295.426 135.459 295.278 134.818 295.278C134.176 295.278 133.604 295.426 133.102 295.72C132.599 296.015 132.2 296.435 131.906 296.981C131.62 297.519 131.477 298.151 131.477 298.879C131.477 299.599 131.62 300.231 131.906 300.777C132.2 301.323 132.599 301.744 133.102 302.038C133.613 302.333 134.185 302.48 134.818 302.48ZM140.488 299.841C140.488 299.105 140.635 298.463 140.93 297.917C141.224 297.363 141.632 296.934 142.152 296.63C142.68 296.327 143.283 296.175 143.959 296.175C144.834 296.175 145.553 296.388 146.117 296.812C146.689 297.237 147.066 297.826 147.248 298.58H145.974C145.852 298.147 145.614 297.805 145.259 297.553C144.912 297.302 144.479 297.176 143.959 297.176C143.283 297.176 142.737 297.41 142.321 297.878C141.905 298.338 141.697 298.992 141.697 299.841C141.697 300.699 141.905 301.362 142.321 301.83C142.737 302.298 143.283 302.532 143.959 302.532C144.479 302.532 144.912 302.411 145.259 302.168C145.605 301.926 145.844 301.579 145.974 301.128H147.248C147.057 301.856 146.676 302.441 146.104 302.883C145.532 303.317 144.817 303.533 143.959 303.533C143.283 303.533 142.68 303.382 142.152 303.078C141.632 302.775 141.224 302.346 140.93 301.791C140.635 301.237 140.488 300.587 140.488 299.841ZM150.269 297.267V301.466C150.269 301.813 150.343 302.06 150.49 302.207C150.637 302.346 150.893 302.415 151.257 302.415H152.128V303.416H151.062C150.403 303.416 149.909 303.265 149.58 302.961C149.251 302.658 149.086 302.16 149.086 301.466V297.267H148.163V296.292H149.086V294.498H150.269V296.292H152.128V297.267H150.269ZM156.52 295.096V294.017H158.964V303.416H157.768V295.096H156.52ZM160.71 301.323V300.426L165.273 294.108H166.69V300.296H167.99V301.323H166.69V303.416H165.52V301.323H160.71ZM165.572 295.343L162.075 300.296H165.572V295.343ZM170.589 301.778L169.133 305.275H168.34L169.289 301.778H170.589ZM137.348 322.467C138.449 321.583 139.311 320.86 139.935 320.296C140.559 319.724 141.083 319.131 141.508 318.515C141.941 317.891 142.158 317.28 142.158 316.682C142.158 316.119 142.019 315.677 141.742 315.356C141.473 315.027 141.036 314.862 140.429 314.862C139.84 314.862 139.38 315.049 139.051 315.421C138.73 315.785 138.557 316.275 138.531 316.89H137.387C137.422 315.92 137.716 315.17 138.271 314.641C138.826 314.113 139.541 313.848 140.416 313.848C141.309 313.848 142.015 314.095 142.535 314.589C143.064 315.083 143.328 315.764 143.328 316.63C143.328 317.35 143.111 318.052 142.678 318.736C142.253 319.412 141.768 320.01 141.222 320.53C140.676 321.042 139.978 321.64 139.129 322.324H143.601V323.312H137.348V322.467ZM144.968 318.619C144.968 317.129 145.211 315.967 145.696 315.135C146.182 314.295 147.031 313.874 148.244 313.874C149.449 313.874 150.294 314.295 150.779 315.135C151.265 315.967 151.507 317.129 151.507 318.619C151.507 320.136 151.265 321.315 150.779 322.155C150.294 322.996 149.449 323.416 148.244 323.416C147.031 323.416 146.182 322.996 145.696 322.155C145.211 321.315 144.968 320.136 144.968 318.619ZM150.337 318.619C150.337 317.865 150.285 317.228 150.181 316.708C150.086 316.18 149.882 315.755 149.57 315.434C149.267 315.114 148.825 314.953 148.244 314.953C147.655 314.953 147.204 315.114 146.892 315.434C146.589 315.755 146.385 316.18 146.281 316.708C146.186 317.228 146.138 317.865 146.138 318.619C146.138 319.399 146.186 320.054 146.281 320.582C146.385 321.111 146.589 321.536 146.892 321.856C147.204 322.177 147.655 322.337 148.244 322.337C148.825 322.337 149.267 322.177 149.57 321.856C149.882 321.536 150.086 321.111 150.181 320.582C150.285 320.054 150.337 319.399 150.337 318.619ZM152.989 322.467C154.089 321.583 154.952 320.86 155.576 320.296C156.2 319.724 156.724 319.131 157.149 318.515C157.582 317.891 157.799 317.28 157.799 316.682C157.799 316.119 157.66 315.677 157.383 315.356C157.114 315.027 156.676 314.862 156.07 314.862C155.48 314.862 155.021 315.049 154.692 315.421C154.371 315.785 154.198 316.275 154.172 316.89H153.028C153.062 315.92 153.357 315.17 153.912 314.641C154.466 314.113 155.181 313.848 156.057 313.848C156.949 313.848 157.656 314.095 158.176 314.589C158.704 315.083 158.969 315.764 158.969 316.63C158.969 317.35 158.752 318.052 158.319 318.736C157.894 319.412 157.409 320.01 156.863 320.53C156.317 321.042 155.619 321.64 154.77 322.324H159.242V323.312H152.989V322.467ZM160.297 315.096V314.017H162.741V323.416H161.545V315.096H160.297Z" fill="#ADB5BD"/>
<path d="M247.971 303.416H246.788L242.03 296.201V303.416H240.847V294.342H242.03L246.788 301.544V294.342H247.971V303.416ZM253.095 303.533C252.428 303.533 251.821 303.382 251.275 303.078C250.738 302.775 250.313 302.346 250.001 301.791C249.698 301.228 249.546 300.578 249.546 299.841C249.546 299.113 249.702 298.472 250.014 297.917C250.335 297.354 250.768 296.925 251.314 296.63C251.86 296.327 252.471 296.175 253.147 296.175C253.823 296.175 254.434 296.327 254.98 296.63C255.526 296.925 255.955 297.35 256.267 297.904C256.588 298.459 256.748 299.105 256.748 299.841C256.748 300.578 256.583 301.228 256.254 301.791C255.933 302.346 255.496 302.775 254.941 303.078C254.386 303.382 253.771 303.533 253.095 303.533ZM253.095 302.493C253.52 302.493 253.918 302.394 254.291 302.194C254.664 301.995 254.963 301.696 255.188 301.297C255.422 300.899 255.539 300.413 255.539 299.841C255.539 299.269 255.426 298.784 255.201 298.385C254.976 297.987 254.681 297.692 254.317 297.501C253.953 297.302 253.559 297.202 253.134 297.202C252.701 297.202 252.302 297.302 251.938 297.501C251.583 297.692 251.297 297.987 251.08 298.385C250.863 298.784 250.755 299.269 250.755 299.841C250.755 300.422 250.859 300.912 251.067 301.31C251.284 301.709 251.57 302.008 251.925 302.207C252.28 302.398 252.67 302.493 253.095 302.493ZM260.955 302.324L263.165 296.292H264.426L261.631 303.416H260.253L257.458 296.292H258.732L260.955 302.324ZM268.835 296.383C268.896 295.586 269.204 294.962 269.758 294.511C270.313 294.061 271.032 293.835 271.916 293.835C272.506 293.835 273.013 293.944 273.437 294.16C273.871 294.368 274.196 294.654 274.412 295.018C274.638 295.382 274.75 295.794 274.75 296.253C274.75 296.791 274.594 297.254 274.282 297.644C273.979 298.034 273.58 298.286 273.086 298.398V298.463C273.65 298.602 274.096 298.875 274.425 299.282C274.755 299.69 274.919 300.223 274.919 300.881C274.919 301.375 274.807 301.822 274.581 302.22C274.356 302.61 274.018 302.918 273.567 303.143C273.117 303.369 272.575 303.481 271.942 303.481C271.024 303.481 270.27 303.243 269.68 302.766C269.091 302.281 268.762 301.596 268.692 300.712H269.836C269.897 301.232 270.109 301.657 270.473 301.986C270.837 302.316 271.323 302.48 271.929 302.48C272.536 302.48 272.995 302.324 273.307 302.012C273.628 301.692 273.788 301.28 273.788 300.777C273.788 300.127 273.572 299.659 273.138 299.373C272.705 299.087 272.051 298.944 271.175 298.944H270.876V297.956H271.188C271.986 297.948 272.588 297.818 272.995 297.566C273.403 297.306 273.606 296.908 273.606 296.37C273.606 295.911 273.455 295.543 273.151 295.265C272.857 294.988 272.432 294.849 271.877 294.849C271.34 294.849 270.907 294.988 270.577 295.265C270.248 295.543 270.053 295.915 269.992 296.383H268.835ZM276.517 298.619C276.517 297.129 276.759 295.967 277.245 295.135C277.73 294.295 278.579 293.874 279.793 293.874C280.997 293.874 281.842 294.295 282.328 295.135C282.813 295.967 283.056 297.129 283.056 298.619C283.056 300.136 282.813 301.315 282.328 302.155C281.842 302.996 280.997 303.416 279.793 303.416C278.579 303.416 277.73 302.996 277.245 302.155C276.759 301.315 276.517 300.136 276.517 298.619ZM281.886 298.619C281.886 297.865 281.834 297.228 281.73 296.708C281.634 296.18 281.431 295.755 281.119 295.434C280.815 295.114 280.373 294.953 279.793 294.953C279.203 294.953 278.753 295.114 278.441 295.434C278.137 295.755 277.934 296.18 277.83 296.708C277.734 297.228 277.687 297.865 277.687 298.619C277.687 299.399 277.734 300.054 277.83 300.582C277.934 301.111 278.137 301.536 278.441 301.856C278.753 302.177 279.203 302.337 279.793 302.337C280.373 302.337 280.815 302.177 281.119 301.856C281.431 301.536 281.634 301.111 281.73 300.582C281.834 300.054 281.886 299.399 281.886 298.619ZM286.097 301.778L284.641 305.275H283.848L284.797 301.778H286.097ZM250.17 322.467C251.271 321.583 252.133 320.86 252.757 320.296C253.381 319.724 253.906 319.131 254.33 318.515C254.764 317.891 254.98 317.28 254.98 316.682C254.98 316.119 254.842 315.677 254.564 315.356C254.296 315.027 253.858 314.862 253.251 314.862C252.662 314.862 252.203 315.049 251.873 315.421C251.553 315.785 251.379 316.275 251.353 316.89H250.209C250.244 315.92 250.539 315.17 251.093 314.641C251.648 314.113 252.363 313.848 253.238 313.848C254.131 313.848 254.837 314.095 255.357 314.589C255.886 315.083 256.15 315.764 256.15 316.63C256.15 317.35 255.934 318.052 255.5 318.736C255.076 319.412 254.59 320.01 254.044 320.53C253.498 321.042 252.801 321.64 251.951 322.324H256.423V323.312H250.17V322.467ZM257.791 318.619C257.791 317.129 258.034 315.967 258.519 315.135C259.004 314.295 259.854 313.874 261.067 313.874C262.272 313.874 263.117 314.295 263.602 315.135C264.087 315.967 264.33 317.129 264.33 318.619C264.33 320.136 264.087 321.315 263.602 322.155C263.117 322.996 262.272 323.416 261.067 323.416C259.854 323.416 259.004 322.996 258.519 322.155C258.034 321.315 257.791 320.136 257.791 318.619ZM263.16 318.619C263.16 317.865 263.108 317.228 263.004 316.708C262.909 316.18 262.705 315.755 262.393 315.434C262.09 315.114 261.648 314.953 261.067 314.953C260.478 314.953 260.027 315.114 259.715 315.434C259.412 315.755 259.208 316.18 259.104 316.708C259.009 317.228 258.961 317.865 258.961 318.619C258.961 319.399 259.009 320.054 259.104 320.582C259.208 321.111 259.412 321.536 259.715 321.856C260.027 322.177 260.478 322.337 261.067 322.337C261.648 322.337 262.09 322.177 262.393 321.856C262.705 321.536 262.909 321.111 263.004 320.582C263.108 320.054 263.16 319.399 263.16 318.619ZM265.811 322.467C266.912 321.583 267.774 320.86 268.398 320.296C269.022 319.724 269.546 319.131 269.971 318.515C270.404 317.891 270.621 317.28 270.621 316.682C270.621 316.119 270.482 315.677 270.205 315.356C269.936 315.027 269.499 314.862 268.892 314.862C268.303 314.862 267.843 315.049 267.514 315.421C267.193 315.785 267.02 316.275 266.994 316.89H265.85C265.885 315.92 266.179 315.17 266.734 314.641C267.289 314.113 268.004 313.848 268.879 313.848C269.772 313.848 270.478 314.095 270.998 314.589C271.527 315.083 271.791 315.764 271.791 316.63C271.791 317.35 271.574 318.052 271.141 318.736C270.716 319.412 270.231 320.01 269.685 320.53C269.139 321.042 268.441 321.64 267.592 322.324H272.064V323.312H265.811V322.467ZM273.12 315.096V314.017H275.564V323.416H274.368V315.096H273.12Z" fill="#ADB5BD"/>
<path d="M353.318 294.355C354.306 294.355 355.159 294.542 355.879 294.914C356.607 295.278 357.161 295.803 357.543 296.487C357.933 297.172 358.128 297.978 358.128 298.905C358.128 299.833 357.933 300.639 357.543 301.323C357.161 301.999 356.607 302.519 355.879 302.883C355.159 303.239 354.306 303.416 353.318 303.416H350.497V294.355H353.318ZM353.318 302.441C354.488 302.441 355.38 302.134 355.996 301.518C356.611 300.894 356.919 300.023 356.919 298.905C356.919 297.779 356.607 296.899 355.983 296.266C355.367 295.634 354.479 295.317 353.318 295.317H351.68V302.441H353.318ZM366.188 299.581C366.188 299.807 366.175 300.045 366.149 300.296H360.455C360.498 300.998 360.737 301.549 361.17 301.947C361.612 302.337 362.145 302.532 362.769 302.532C363.28 302.532 363.705 302.415 364.043 302.181C364.39 301.939 364.632 301.618 364.771 301.219H366.045C365.854 301.904 365.473 302.463 364.901 302.896C364.329 303.321 363.618 303.533 362.769 303.533C362.093 303.533 361.486 303.382 360.949 303.078C360.42 302.775 360.004 302.346 359.701 301.791C359.398 301.228 359.246 300.578 359.246 299.841C359.246 299.105 359.393 298.459 359.688 297.904C359.983 297.35 360.394 296.925 360.923 296.63C361.46 296.327 362.076 296.175 362.769 296.175C363.445 296.175 364.043 296.323 364.563 296.617C365.083 296.912 365.482 297.319 365.759 297.839C366.045 298.351 366.188 298.931 366.188 299.581ZM364.966 299.334C364.966 298.884 364.866 298.498 364.667 298.177C364.468 297.848 364.195 297.601 363.848 297.436C363.51 297.263 363.133 297.176 362.717 297.176C362.119 297.176 361.608 297.367 361.183 297.748C360.767 298.13 360.529 298.658 360.468 299.334H364.966ZM367.307 299.841C367.307 299.105 367.455 298.463 367.749 297.917C368.044 297.363 368.451 296.934 368.971 296.63C369.5 296.327 370.102 296.175 370.778 296.175C371.654 296.175 372.373 296.388 372.936 296.812C373.508 297.237 373.885 297.826 374.067 298.58H372.793C372.672 298.147 372.434 297.805 372.078 297.553C371.732 297.302 371.298 297.176 370.778 297.176C370.102 297.176 369.556 297.41 369.14 297.878C368.724 298.338 368.516 298.992 368.516 299.841C368.516 300.699 368.724 301.362 369.14 301.83C369.556 302.298 370.102 302.532 370.778 302.532C371.298 302.532 371.732 302.411 372.078 302.168C372.425 301.926 372.663 301.579 372.793 301.128H374.067C373.877 301.856 373.495 302.441 372.923 302.883C372.351 303.317 371.636 303.533 370.778 303.533C370.102 303.533 369.5 303.382 368.971 303.078C368.451 302.775 368.044 302.346 367.749 301.791C367.455 301.237 367.307 300.587 367.307 299.841ZM378.774 302.467C379.874 301.583 380.737 300.86 381.361 300.296C381.985 299.724 382.509 299.131 382.934 298.515C383.367 297.891 383.584 297.28 383.584 296.682C383.584 296.119 383.445 295.677 383.168 295.356C382.899 295.027 382.461 294.862 381.855 294.862C381.265 294.862 380.806 295.049 380.477 295.421C380.156 295.785 379.983 296.275 379.957 296.89H378.813C378.847 295.92 379.142 295.17 379.697 294.641C380.251 294.113 380.966 293.848 381.842 293.848C382.734 293.848 383.441 294.095 383.961 294.589C384.489 295.083 384.754 295.764 384.754 296.63C384.754 297.35 384.537 298.052 384.104 298.736C383.679 299.412 383.194 300.01 382.648 300.53C382.102 301.042 381.404 301.64 380.555 302.324H385.027V303.312H378.774V302.467ZM386.108 301.323V300.426L390.671 294.108H392.088V300.296H393.388V301.323H392.088V303.416H390.918V301.323H386.108ZM390.97 295.343L387.473 300.296H390.97V295.343ZM395.987 301.778L394.531 305.275H393.738L394.687 301.778H395.987ZM359.94 322.467C361.041 321.583 361.903 320.86 362.527 320.296C363.151 319.724 363.676 319.131 364.1 318.515C364.534 317.891 364.75 317.28 364.75 316.682C364.75 316.119 364.612 315.677 364.334 315.356C364.066 315.027 363.628 314.862 363.021 314.862C362.432 314.862 361.973 315.049 361.643 315.421C361.323 315.785 361.149 316.275 361.123 316.89H359.979C360.014 315.92 360.309 315.17 360.863 314.641C361.418 314.113 362.133 313.848 363.008 313.848C363.901 313.848 364.607 314.095 365.127 314.589C365.656 315.083 365.92 315.764 365.92 316.63C365.92 317.35 365.704 318.052 365.27 318.736C364.846 319.412 364.36 320.01 363.814 320.53C363.268 321.042 362.571 321.64 361.721 322.324H366.193V323.312H359.94V322.467ZM367.561 318.619C367.561 317.129 367.803 315.967 368.289 315.135C368.774 314.295 369.623 313.874 370.837 313.874C372.041 313.874 372.886 314.295 373.372 315.135C373.857 315.967 374.1 317.129 374.1 318.619C374.1 320.136 373.857 321.315 373.372 322.155C372.886 322.996 372.041 323.416 370.837 323.416C369.623 323.416 368.774 322.996 368.289 322.155C367.803 321.315 367.561 320.136 367.561 318.619ZM372.93 318.619C372.93 317.865 372.878 317.228 372.774 316.708C372.678 316.18 372.475 315.755 372.163 315.434C371.859 315.114 371.417 314.953 370.837 314.953C370.247 314.953 369.797 315.114 369.485 315.434C369.181 315.755 368.978 316.18 368.874 316.708C368.778 317.228 368.731 317.865 368.731 318.619C368.731 319.399 368.778 320.054 368.874 320.582C368.978 321.111 369.181 321.536 369.485 321.856C369.797 322.177 370.247 322.337 370.837 322.337C371.417 322.337 371.859 322.177 372.163 321.856C372.475 321.536 372.678 321.111 372.774 320.582C372.878 320.054 372.93 319.399 372.93 318.619ZM375.581 322.467C376.682 321.583 377.544 320.86 378.168 320.296C378.792 319.724 379.316 319.131 379.741 318.515C380.174 317.891 380.391 317.28 380.391 316.682C380.391 316.119 380.252 315.677 379.975 315.356C379.706 315.027 379.269 314.862 378.662 314.862C378.073 314.862 377.613 315.049 377.284 315.421C376.963 315.785 376.79 316.275 376.764 316.89H375.62C375.655 315.92 375.949 315.17 376.504 314.641C377.059 314.113 377.774 313.848 378.649 313.848C379.542 313.848 380.248 314.095 380.768 314.589C381.297 315.083 381.561 315.764 381.561 316.63C381.561 317.35 381.344 318.052 380.911 318.736C380.486 319.412 380.001 320.01 379.455 320.53C378.909 321.042 378.211 321.64 377.362 322.324H381.834V323.312H375.581V322.467ZM382.889 315.096V314.017H385.333V323.416H384.137V315.096H382.889Z" fill="#ADB5BD"/>
<path d="M465.752 294.355V301.05C465.752 301.796 465.522 302.394 465.063 302.844C464.604 303.286 463.997 303.507 463.243 303.507C462.48 303.507 461.869 303.282 461.41 302.831C460.951 302.372 460.721 301.748 460.721 300.959H461.904C461.913 301.401 462.025 301.761 462.242 302.038C462.467 302.316 462.801 302.454 463.243 302.454C463.685 302.454 464.014 302.324 464.231 302.064C464.448 301.796 464.556 301.458 464.556 301.05V294.355H465.752ZM467.641 299.828C467.641 299.1 467.788 298.463 468.083 297.917C468.377 297.363 468.78 296.934 469.292 296.63C469.812 296.327 470.388 296.175 471.021 296.175C471.645 296.175 472.186 296.31 472.646 296.578C473.105 296.847 473.447 297.185 473.673 297.592V296.292H474.869V303.416H473.673V302.09C473.439 302.506 473.088 302.853 472.62 303.13C472.16 303.399 471.623 303.533 471.008 303.533C470.375 303.533 469.803 303.377 469.292 303.065C468.78 302.753 468.377 302.316 468.083 301.752C467.788 301.189 467.641 300.548 467.641 299.828ZM473.673 299.841C473.673 299.304 473.564 298.836 473.348 298.437C473.131 298.039 472.836 297.735 472.464 297.527C472.1 297.311 471.697 297.202 471.255 297.202C470.813 297.202 470.41 297.306 470.046 297.514C469.682 297.722 469.391 298.026 469.175 298.424C468.958 298.823 468.85 299.291 468.85 299.828C468.85 300.374 468.958 300.851 469.175 301.258C469.391 301.657 469.682 301.965 470.046 302.181C470.41 302.389 470.813 302.493 471.255 302.493C471.697 302.493 472.1 302.389 472.464 302.181C472.836 301.965 473.131 301.657 473.348 301.258C473.564 300.851 473.673 300.379 473.673 299.841ZM480.339 296.162C481.205 296.162 481.907 296.427 482.445 296.955C482.982 297.475 483.251 298.229 483.251 299.217V303.416H482.081V299.386C482.081 298.676 481.903 298.134 481.548 297.761C481.192 297.38 480.707 297.189 480.092 297.189C479.468 297.189 478.969 297.384 478.597 297.774C478.233 298.164 478.051 298.732 478.051 299.477V303.416H476.868V296.292H478.051V297.306C478.285 296.942 478.601 296.661 479 296.461C479.407 296.262 479.853 296.162 480.339 296.162ZM488.311 302.467C489.412 301.583 490.274 300.86 490.898 300.296C491.522 299.724 492.046 299.131 492.471 298.515C492.904 297.891 493.121 297.28 493.121 296.682C493.121 296.119 492.982 295.677 492.705 295.356C492.436 295.027 491.999 294.862 491.392 294.862C490.803 294.862 490.343 295.049 490.014 295.421C489.693 295.785 489.52 296.275 489.494 296.89H488.35C488.385 295.92 488.679 295.17 489.234 294.641C489.789 294.113 490.504 293.848 491.379 293.848C492.272 293.848 492.978 294.095 493.498 294.589C494.027 295.083 494.291 295.764 494.291 296.63C494.291 297.35 494.074 298.052 493.641 298.736C493.216 299.412 492.731 300.01 492.185 300.53C491.639 301.042 490.941 301.64 490.092 302.324H494.564V303.312H488.311V302.467ZM497.453 300.894C497.539 301.388 497.739 301.77 498.051 302.038C498.371 302.307 498.8 302.441 499.338 302.441C500.057 302.441 500.586 302.16 500.924 301.596C501.27 301.033 501.435 300.084 501.418 298.749C501.236 299.139 500.932 299.447 500.508 299.672C500.083 299.889 499.611 299.997 499.091 299.997C498.51 299.997 497.99 299.88 497.531 299.646C497.08 299.404 496.725 299.053 496.465 298.593C496.205 298.134 496.075 297.579 496.075 296.929C496.075 296.002 496.343 295.257 496.881 294.693C497.418 294.121 498.181 293.835 499.169 293.835C500.382 293.835 501.231 294.23 501.717 295.018C502.211 295.807 502.458 296.981 502.458 298.541C502.458 299.633 502.358 300.535 502.159 301.245C501.968 301.956 501.639 302.498 501.171 302.87C500.711 303.243 500.079 303.429 499.273 303.429C498.389 303.429 497.7 303.191 497.206 302.714C496.712 302.238 496.43 301.631 496.361 300.894H497.453ZM499.286 298.996C499.866 298.996 500.343 298.819 500.716 298.463C501.088 298.099 501.275 297.61 501.275 296.994C501.275 296.344 501.093 295.82 500.729 295.421C500.365 295.023 499.853 294.823 499.195 294.823C498.588 294.823 498.103 295.014 497.739 295.395C497.383 295.777 497.206 296.279 497.206 296.903C497.206 297.536 497.383 298.043 497.739 298.424C498.094 298.806 498.61 298.996 499.286 298.996ZM505.537 301.778L504.081 305.275H503.288L504.237 301.778H505.537ZM468.405 322.467C469.505 321.583 470.368 320.86 470.992 320.296C471.616 319.724 472.14 319.131 472.565 318.515C472.998 317.891 473.215 317.28 473.215 316.682C473.215 316.119 473.076 315.677 472.799 315.356C472.53 315.027 472.092 314.862 471.486 314.862C470.896 314.862 470.437 315.049 470.108 315.421C469.787 315.785 469.614 316.275 469.588 316.89H468.444C468.478 315.92 468.773 315.17 469.328 314.641C469.882 314.113 470.597 313.848 471.473 313.848C472.365 313.848 473.072 314.095 473.592 314.589C474.12 315.083 474.385 315.764 474.385 316.63C474.385 317.35 474.168 318.052 473.735 318.736C473.31 319.412 472.825 320.01 472.279 320.53C471.733 321.042 471.035 321.64 470.186 322.324H474.658V323.312H468.405V322.467ZM476.025 318.619C476.025 317.129 476.268 315.967 476.753 315.135C477.239 314.295 478.088 313.874 479.301 313.874C480.506 313.874 481.351 314.295 481.836 315.135C482.322 315.967 482.564 317.129 482.564 318.619C482.564 320.136 482.322 321.315 481.836 322.155C481.351 322.996 480.506 323.416 479.301 323.416C478.088 323.416 477.239 322.996 476.753 322.155C476.268 321.315 476.025 320.136 476.025 318.619ZM481.394 318.619C481.394 317.865 481.342 317.228 481.238 316.708C481.143 316.18 480.939 315.755 480.627 315.434C480.324 315.114 479.882 314.953 479.301 314.953C478.712 314.953 478.261 315.114 477.949 315.434C477.646 315.755 477.442 316.18 477.338 316.708C477.243 317.228 477.195 317.865 477.195 318.619C477.195 319.399 477.243 320.054 477.338 320.582C477.442 321.111 477.646 321.536 477.949 321.856C478.261 322.177 478.712 322.337 479.301 322.337C479.882 322.337 480.324 322.177 480.627 321.856C480.939 321.536 481.143 321.111 481.238 320.582C481.342 320.054 481.394 319.399 481.394 318.619ZM484.045 322.467C485.146 321.583 486.008 320.86 486.632 320.296C487.256 319.724 487.781 319.131 488.205 318.515C488.639 317.891 488.855 317.28 488.855 316.682C488.855 316.119 488.717 315.677 488.439 315.356C488.171 315.027 487.733 314.862 487.126 314.862C486.537 314.862 486.078 315.049 485.748 315.421C485.428 315.785 485.254 316.275 485.228 316.89H484.084C484.119 315.92 484.414 315.17 484.968 314.641C485.523 314.113 486.238 313.848 487.113 313.848C488.006 313.848 488.712 314.095 489.232 314.589C489.761 315.083 490.025 315.764 490.025 316.63C490.025 317.35 489.809 318.052 489.375 318.736C488.951 319.412 488.465 320.01 487.919 320.53C487.373 321.042 486.676 321.64 485.826 322.324H490.298V323.312H484.045V322.467ZM491.523 322.467C492.624 321.583 493.486 320.86 494.11 320.296C494.734 319.724 495.258 319.131 495.683 318.515C496.116 317.891 496.333 317.28 496.333 316.682C496.333 316.119 496.194 315.677 495.917 315.356C495.648 315.027 495.211 314.862 494.604 314.862C494.015 314.862 493.555 315.049 493.226 315.421C492.905 315.785 492.732 316.275 492.706 316.89H491.562C491.597 315.92 491.891 315.17 492.446 314.641C493.001 314.113 493.716 313.848 494.591 313.848C495.484 313.848 496.19 314.095 496.71 314.589C497.239 315.083 497.503 315.764 497.503 316.63C497.503 317.35 497.286 318.052 496.853 318.736C496.428 319.412 495.943 320.01 495.397 320.53C494.851 321.042 494.153 321.64 493.304 322.324H497.776V323.312H491.523V322.467Z" fill="#ADB5BD"/>
<rect x="151.136" y="278.371" width="1.07506" height="5.65088" fill="#E0E0E0"/>
<path d="M93.1133 73.6533L91.0333 70.0393H89.9023V73.6533H88.4203V64.6183H91.5403C92.2336 64.6183 92.8186 64.7397 93.2953 64.9823C93.7806 65.225 94.1403 65.55 94.3743 65.9573C94.617 66.3647 94.7383 66.8197 94.7383 67.3223C94.7383 67.9117 94.565 68.449 94.2183 68.9343C93.8803 69.411 93.356 69.736 92.6453 69.9093L94.8813 73.6533H93.1133ZM89.9023 68.8563H91.5403C92.095 68.8563 92.511 68.7177 92.7883 68.4403C93.0743 68.163 93.2173 67.7903 93.2173 67.3223C93.2173 66.8543 93.0786 66.4903 92.8013 66.2303C92.524 65.9617 92.1036 65.8273 91.5403 65.8273H89.9023V68.8563ZM98.1162 65.8143V68.4663H101.236V69.6753H98.1162V72.4443H101.626V73.6533H96.6342V64.6053H101.626V65.8143H98.1162ZM102.958 69.1163C102.958 68.2323 103.161 67.4393 103.569 66.7373C103.985 66.0353 104.544 65.4893 105.246 65.0993C105.956 64.7007 106.732 64.5013 107.573 64.5013C108.535 64.5013 109.388 64.7397 110.134 65.2163C110.888 65.6843 111.434 66.3517 111.772 67.2183H109.991C109.757 66.7417 109.432 66.3863 109.016 66.1523C108.6 65.9183 108.119 65.8013 107.573 65.8013C106.975 65.8013 106.442 65.9357 105.974 66.2043C105.506 66.473 105.137 66.8587 104.869 67.3613C104.609 67.864 104.479 68.449 104.479 69.1163C104.479 69.7837 104.609 70.3687 104.869 70.8713C105.137 71.374 105.506 71.764 105.974 72.0413C106.442 72.31 106.975 72.4443 107.573 72.4443C108.119 72.4443 108.6 72.3273 109.016 72.0933C109.432 71.8593 109.757 71.504 109.991 71.0273H111.772C111.434 71.894 110.888 72.5613 110.134 73.0293C109.388 73.4973 108.535 73.7313 107.573 73.7313C106.723 73.7313 105.948 73.5363 105.246 73.1463C104.544 72.7477 103.985 72.1973 103.569 71.4953C103.161 70.7933 102.958 70.0003 102.958 69.1163ZM114.988 65.8143V68.4663H118.108V69.6753H114.988V72.4443H118.498V73.6533H113.506V64.6053H118.498V65.8143H114.988ZM127.747 73.6533H126.265L121.806 66.9063V73.6533H120.324V64.6053H121.806L126.265 71.3393V64.6053H127.747V73.6533ZM135.53 64.6183V65.8273H133.125V73.6533H131.643V65.8273H129.225V64.6183H135.53ZM140.018 65.5283V64.1763H142.722V73.6533H141.227V65.5283H140.018ZM144.758 68.7913C144.758 67.292 145.009 66.122 145.512 65.2813C146.023 64.432 146.898 64.0073 148.138 64.0073C149.377 64.0073 150.248 64.432 150.751 65.2813C151.262 66.122 151.518 67.292 151.518 68.7913C151.518 70.308 151.262 71.4953 150.751 72.3533C150.248 73.2027 149.377 73.6273 148.138 73.6273C146.898 73.6273 146.023 73.2027 145.512 72.3533C145.009 71.4953 144.758 70.308 144.758 68.7913ZM150.062 68.7913C150.062 68.0893 150.014 67.4957 149.919 67.0103C149.832 66.525 149.65 66.1307 149.373 65.8273C149.095 65.5153 148.684 65.3593 148.138 65.3593C147.592 65.3593 147.18 65.5153 146.903 65.8273C146.625 66.1307 146.439 66.525 146.344 67.0103C146.257 67.4957 146.214 68.0893 146.214 68.7913C146.214 69.5193 146.257 70.1303 146.344 70.6243C146.43 71.1183 146.612 71.517 146.89 71.8203C147.176 72.1237 147.592 72.2753 148.138 72.2753C148.684 72.2753 149.095 72.1237 149.373 71.8203C149.659 71.517 149.845 71.1183 149.932 70.6243C150.018 70.1303 150.062 69.5193 150.062 68.7913ZM162.105 71.8073H158.322L157.672 73.6533H156.125L159.362 64.6053H161.078L164.315 73.6533H162.755L162.105 71.8073ZM161.689 70.5983L160.22 66.3993L158.738 70.5983H161.689ZM167.191 64.6183V70.3773C167.191 71.062 167.369 71.5777 167.724 71.9243C168.088 72.271 168.591 72.4443 169.232 72.4443C169.882 72.4443 170.385 72.271 170.74 71.9243C171.104 71.5777 171.286 71.062 171.286 70.3773V64.6183H172.768V70.3513C172.768 71.088 172.608 71.712 172.287 72.2233C171.966 72.7347 171.537 73.116 171 73.3673C170.463 73.6187 169.869 73.7443 169.219 73.7443C168.569 73.7443 167.975 73.6187 167.438 73.3673C166.909 73.116 166.489 72.7347 166.177 72.2233C165.865 71.712 165.709 71.088 165.709 70.3513V64.6183H167.191ZM177.649 64.6183C178.611 64.6183 179.451 64.8047 180.171 65.1773C180.899 65.5413 181.458 66.07 181.848 66.7633C182.246 67.448 182.446 68.2497 182.446 69.1683C182.446 70.087 182.246 70.8843 181.848 71.5603C181.458 72.2363 180.899 72.7563 180.171 73.1203C179.451 73.4757 178.611 73.6533 177.649 73.6533H174.698V64.6183H177.649ZM177.649 72.4443C178.706 72.4443 179.516 72.1583 180.08 71.5863C180.643 71.0143 180.925 70.2083 180.925 69.1683C180.925 68.1197 180.643 67.3007 180.08 66.7113C179.516 66.122 178.706 65.8273 177.649 65.8273H176.18V72.4443H177.649ZM185.396 64.6183V73.6533H183.914V64.6183H185.396ZM193.179 64.6183V65.8273H190.774V73.6533H189.292V65.8273H186.874V64.6183H193.179ZM197.657 73.7443C197.05 73.7443 196.504 73.6403 196.019 73.4323C195.534 73.2157 195.152 72.9123 194.875 72.5223C194.598 72.1323 194.459 71.6773 194.459 71.1573H196.045C196.08 71.5473 196.231 71.868 196.5 72.1193C196.777 72.3707 197.163 72.4963 197.657 72.4963C198.168 72.4963 198.567 72.375 198.853 72.1323C199.139 71.881 199.282 71.5603 199.282 71.1703C199.282 70.867 199.191 70.62 199.009 70.4293C198.836 70.2387 198.615 70.0913 198.346 69.9873C198.086 69.8833 197.722 69.7707 197.254 69.6493C196.665 69.4933 196.184 69.3373 195.811 69.1813C195.447 69.0167 195.135 68.7653 194.875 68.4273C194.615 68.0893 194.485 67.6387 194.485 67.0753C194.485 66.5553 194.615 66.1003 194.875 65.7103C195.135 65.3203 195.499 65.0213 195.967 64.8133C196.435 64.6053 196.977 64.5013 197.592 64.5013C198.467 64.5013 199.182 64.7223 199.737 65.1643C200.3 65.5977 200.612 66.1957 200.673 66.9583H199.035C199.009 66.629 198.853 66.3473 198.567 66.1133C198.281 65.8793 197.904 65.7623 197.436 65.7623C197.011 65.7623 196.665 65.8707 196.396 66.0873C196.127 66.304 195.993 66.616 195.993 67.0233C195.993 67.3007 196.075 67.5303 196.24 67.7123C196.413 67.8857 196.63 68.0243 196.89 68.1283C197.15 68.2323 197.505 68.345 197.956 68.4663C198.554 68.631 199.039 68.7957 199.412 68.9603C199.793 69.125 200.114 69.3807 200.374 69.7273C200.643 70.0653 200.777 70.5203 200.777 71.0923C200.777 71.5517 200.651 71.985 200.4 72.3923C200.157 72.7997 199.798 73.129 199.321 73.3803C198.853 73.623 198.298 73.7443 197.657 73.7443Z" fill="#495057"/>
<path fill-rule="evenodd" clip-rule="evenodd" d="M154.079 197.264C154.079 197.264 156.675 197.265 159.271 197.265C161.867 197.265 164.463 197.264 164.463 197.264L164.463 278.194H154.079V197.264Z" fill="#F46A6A"/>
<path fill-rule="evenodd" clip-rule="evenodd" d="M166.705 153.317C166.705 153.317 169.16 153.317 171.614 153.317C174.069 153.317 176.524 153.317 176.524 153.317L176.524 278.194H166.705V153.317Z" fill="#F1B44C"/>
<path fill-rule="evenodd" clip-rule="evenodd" d="M141.454 114.148C141.454 114.148 144.118 114.148 146.714 114.148C149.31 114.148 151.838 114.148 151.838 114.148L151.838 278.194H141.454V114.148Z" fill="#556EE6"/>
<path fill-rule="evenodd" clip-rule="evenodd" d="M128.828 174.298C128.828 174.298 131.142 174.298 133.738 174.298C136.334 174.298 139.212 174.298 139.212 174.298V278.194H128.828V174.298Z" fill="#34C38F"/>
<path fill-rule="evenodd" clip-rule="evenodd" d="M264.2 213.997C264.2 213.997 266.796 213.997 269.392 213.997C271.988 213.997 274.584 213.997 274.584 213.997L274.584 278.194H264.2V213.997Z" fill="#F46A6A"/>
<path fill-rule="evenodd" clip-rule="evenodd" d="M276.826 179.136C276.826 179.136 279.281 179.135 281.736 179.135C284.19 179.135 286.645 179.136 286.645 179.136L286.645 278.194H276.826V179.136Z" fill="#F1B44C"/>
<path fill-rule="evenodd" clip-rule="evenodd" d="M251.575 148.064C251.575 148.064 254.171 148.065 256.767 148.064C259.363 148.064 261.959 148.064 261.959 148.064L261.959 278.194H251.575V148.064Z" fill="#556EE6"/>
<path fill-rule="evenodd" clip-rule="evenodd" d="M238.949 195.779C238.949 195.779 241.545 195.779 244.141 195.779C246.737 195.779 249.333 195.779 249.333 195.779V278.194H238.949V195.779Z" fill="#34C38F"/>
<path fill-rule="evenodd" clip-rule="evenodd" d="M374.322 197.264C374.322 197.264 376.917 197.265 379.513 197.265C382.109 197.265 384.705 197.264 384.705 197.264L384.705 278.194H374.322V197.264Z" fill="#F46A6A"/>
<path fill-rule="evenodd" clip-rule="evenodd" d="M386.947 153.317C386.947 153.317 389.402 153.317 391.857 153.317C394.312 153.317 396.766 153.317 396.766 153.317L396.766 278.194H386.947V153.317Z" fill="#F1B44C"/>
<path fill-rule="evenodd" clip-rule="evenodd" d="M361.696 114.148C361.696 114.148 364.292 114.148 366.888 114.148C369.484 114.148 372.08 114.148 372.08 114.148L372.08 278.194H361.696V114.148Z" fill="#556EE6"/>
<path fill-rule="evenodd" clip-rule="evenodd" d="M349.071 174.298C349.071 174.298 351.667 174.298 354.263 174.298C356.859 174.298 359.455 174.298 359.455 174.298V278.194H349.071V174.298Z" fill="#34C38F"/>
<path fill-rule="evenodd" clip-rule="evenodd" d="M484.443 204.094C484.443 204.094 487.039 204.094 489.634 204.094C492.23 204.094 494.826 204.094 494.826 204.094L494.826 278.194H484.443V204.094Z" fill="#F46A6A"/>
<path fill-rule="evenodd" clip-rule="evenodd" d="M497.068 163.855C497.068 163.855 499.523 163.856 501.978 163.856C504.433 163.856 506.888 163.855 506.888 163.855L506.888 278.194H497.068V163.855Z" fill="#F1B44C"/>
<path fill-rule="evenodd" clip-rule="evenodd" d="M471.817 127.991C471.817 127.991 474.413 127.991 477.009 127.991C479.605 127.991 482.201 127.991 482.201 127.991L482.201 278.194H471.817V127.991Z" fill="#556EE6"/>
<path fill-rule="evenodd" clip-rule="evenodd" d="M459.192 183.066C459.192 183.066 461.788 183.065 464.384 183.065C466.98 183.065 469.576 183.066 469.576 183.066V278.194H459.192V183.066Z" fill="#34C38F"/>
</svg>
